<?xml version="1.0" encoding="UTF-8" standalone="no"?>
<svg width="53px" height="53px" viewBox="0 0 53 53" version="1.1" xmlns="http://www.w3.org/2000/svg" xmlns:xlink="http://www.w3.org/1999/xlink">
    <!-- Generator: Sketch 3.6.1 (26313) - http://www.bohemiancoding.com/sketch -->
    <title>back-button</title>
    <desc>Created with Sketch.</desc>
    <defs></defs>
    <g id="Page-1" stroke="none" stroke-width="1" fill="none" fill-rule="evenodd">
        <g id="back-button" stroke="#FFFFFF">
            <g id="Group" transform="translate(2.390539, 2.390539)">
                <path d="M27.8142134,15.6265457 L19.327275,24.113484 L27.8142134,32.6003641 C28.1831727,32.9693817 28.1831727,33.5228207 27.8142134,33.8918966 C27.6296755,34.0764345 27.352956,34.1686161 27.1684763,34.1686161 C26.9839384,34.1686161 26.7072772,34.0764345 26.5227393,33.8918966 L17.3900638,24.7592211 C17.0210462,24.3902035 17.0210462,23.8367063 17.3900638,23.4676887 L26.5227393,14.3350132 C26.8917569,13.9659956 27.4451958,13.9659956 27.8142134,14.3350132 C28.1831727,14.7040308 28.183231,15.2575864 27.8142134,15.6265457 L27.8142134,15.6265457 Z" id="Stroke-1" stroke-width="4.31463146"></path>
                <path d="M24.1134491,1.74917492e-05 C10.8141223,1.74917492e-05 2.33223322e-05,10.8141165 2.33223322e-05,24.1134432 C2.33223322e-05,37.4128283 10.814064,48.2269273 24.1134491,48.2269273 C37.4127758,48.2269273 48.2268748,37.4128283 48.2268748,24.1134432 C48.2268748,10.8141165 37.4127758,1.74917492e-05 24.1134491,1.74917492e-05 L24.1134491,1.74917492e-05 Z" id="Stroke-3" stroke-width="4.66446645"></path>
            </g>
        </g>
    </g>
</svg>