<?xml version="1.0" encoding="UTF-8" standalone="no"?>
<!DOCTYPE svg PUBLIC "-//W3C//DTD SVG 1.1//EN"
"http://www.w3.org/Graphics/SVG/1.1/DTD/svg11.dtd">
<svg width="441px" height="54px" viewBox="0 0 441 54" version="1.1" xmlns="http://www.w3.org/2000/svg" xmlns:xlink="http://www.w3.org/1999/xlink">
    <!-- Generator: Sketch 3.7.2 (28276) - http://www.bohemiancoding.com/sketch -->
    <title>header-logo</title>
    <desc>Created with Sketch.</desc>
    <defs>
        <filter x="-50%" y="-50%" width="200%" height="200%" filterUnits="objectBoundingBox" id="filter-1">
            <feOffset dx="0" dy="2" in="SourceAlpha" result="shadowOffsetOuter1"></feOffset>
            <feColorMatrix values="0 0 0 0 0   0 0 0 0 0   0 0 0 0 0  0 0 0 0.5 0" type="matrix" in="shadowOffsetOuter1" result="shadowMatrixOuter1"></feColorMatrix>
            <feMerge>
                <feMergeNode in="shadowMatrixOuter1"></feMergeNode>
                <feMergeNode in="SourceGraphic"></feMergeNode>
            </feMerge>
        </filter>
    </defs>
    <g id="Page-1" stroke="none" stroke-width="1" fill="none" fill-rule="evenodd">
        <g id="header-logo" fill="#FFFFFF">
            <g id="Page-1">
                <path d="M67.0361,1.0483 L80.9081,1.0483 L85.5791,19.5923 C86.6581,23.7603 87.9511,29.9423 88.4541,33.9663 C89.1011,29.8693 90.6101,23.7603 91.6881,19.6633 L96.6481,1.0483 L110.2321,1.0483 L114.4721,51.1443 L102.8291,51.1443 L101.4631,30.1573 C101.1761,25.9173 100.7451,19.3763 100.6011,15.4953 C100.0261,19.4483 98.7321,25.4133 97.7981,29.5823 L92.9831,51.1443 L83.3511,51.1443 L78.6081,29.6543 C77.6731,25.4133 76.3081,19.4483 75.7331,15.4953 C75.5891,19.4483 75.3731,25.9883 75.1581,30.1573 L73.8641,51.1443 L62.7961,51.1443 L67.0361,1.0483 Z" id="Fill-1"></path>
                <polygon id="Fill-3" points="119.4331 1.0483 148.6861 1.0483 147.8951 10.6803 131.3641 10.6803 131.3641 20.3823 144.8041 20.3823 144.8041 29.7263 131.3641 29.7263 131.3641 41.4413 149.6201 41.4413 149.6201 51.1443 119.4331 51.1443"></polygon>
                <path d="M152.3521,26.3476 C152.3521,9.3856 160.2581,0.2576 174.5611,0.2576 C181.2451,0.2576 186.3481,2.5576 189.9411,5.5766 L184.6941,14.2016 C182.1071,11.8296 179.1601,10.0326 174.7041,10.0326 C167.7321,10.0326 164.9301,14.4176 164.9301,25.8446 C164.9301,37.9926 167.6611,42.8066 174.2731,42.8066 C176.4291,42.8066 178.0111,42.4486 179.3041,41.8006 L179.3041,32.2426 L172.6921,32.2426 L171.9731,22.8976 L190.5891,22.8976 L190.5891,47.6226 C185.7731,50.6416 180.2391,52.0066 174.4891,52.0066 C159.9701,52.0066 152.3521,43.4536 152.3521,26.3476" id="Fill-5"></path>
                <path d="M207.6953,39.7168 L204.8203,51.1448 L193.3923,51.1448 L208.7013,1.0488 L221.1363,1.0488 L235.7263,51.1448 L222.9323,51.1448 L220.2013,39.7168 L207.6953,39.7168 Z M218.3323,31.6668 L217.1823,26.9948 C216.1763,22.8978 214.8113,17.2928 214.2363,13.2678 C213.5173,17.2928 212.0793,22.9698 211.0013,26.9948 L209.7073,31.6668 L218.3323,31.6668 Z" id="Fill-7"></path>
                <path d="M239.0332,1.0483 L255.1332,1.0483 C268.5022,1.0483 274.3232,5.9353 274.3232,16.9323 C274.3232,27.3543 267.8532,33.0323 255.4202,33.0323 L250.9632,33.0323 L250.9632,51.1443 L239.0332,51.1443 L239.0332,1.0483 Z M254.6302,24.7673 C260.3062,24.7673 262.7522,22.3223 262.7522,17.0043 C262.7522,11.9733 260.1632,9.6013 254.6302,9.6013 L250.7482,9.6013 L250.7482,24.7673 L254.6302,24.7673 Z" id="Fill-9"></path>
                <polygon id="Fill-11" points="278.708 1.0483 290.639 1.0483 290.639 19.8793 302.93 19.8793 302.93 1.0483 314.859 1.0483 314.859 51.1443 302.93 51.1443 302.93 29.5103 290.639 29.5103 290.639 51.1443 278.708 51.1443"></polygon>
                <path d="M319.8203,26.707 C319.8203,10.967 326.8633,0.186 341.0223,0.186 C354.8943,0.186 362.0813,10.32 362.0813,25.485 C362.0813,42.95 355.1823,52.007 341.0223,52.007 C327.3673,52.007 319.8203,42.305 319.8203,26.707 M349.2163,26.061 C349.2163,13.698 347.0603,9.457 341.0223,9.457 C334.8413,9.457 332.6853,14.273 332.6853,25.988 C332.6853,38.71 335.0573,42.734 341.0223,42.734 C347.1323,42.734 349.2163,38.997 349.2163,26.061" id="Fill-13"></path>
                <path d="M366.9687,1.0483 L378.3977,1.0483 L388.6747,22.4673 C389.7527,24.7673 392.1247,30.1573 393.5627,33.9663 C393.1307,29.4383 392.9877,24.2633 392.9877,20.1673 L392.9877,1.0483 L403.9837,1.0483 L403.9837,51.1443 L392.6277,51.1443 L382.2057,29.5103 C380.2667,25.4853 378.8277,21.8203 377.2467,18.0103 C377.7497,22.5383 377.8947,27.7143 377.8947,31.8823 L377.8947,51.1443 L366.9687,51.1443 L366.9687,1.0483 Z" id="Fill-16"></path>
                <polygon id="Fill-18" points="410.4521 1.0488 410.4521 51.1448 440.6391 51.1448 440.6391 41.4418 422.3841 41.4418 422.3841 29.7268 435.8241 29.7268 435.8241 20.3828 422.3841 20.3828 422.3841 10.6798 438.9151 10.6798 439.7061 1.0488"></polygon>
                <path d="M27.3472,44.4492 L27.3272,7.4502 L0.0002,22.2962 L0.0012,23.6632 C0.0012,23.6672 0.0002,23.6692 0.0002,23.6732 L0.0002,27.8192 C0.0002,27.8212 0.0012,27.8222 0.0012,27.8242 L0.0152,29.5992 L27.3472,44.4492 Z" id="Fill-20"></path>
                <path d="M46.5503,8.7231 C45.9613,6.3251 44.8103,2.9121 44.4023,1.7251 L44.4043,1.7231 L44.3693,1.6301 C44.2983,1.4231 44.2533,1.2961 44.2533,1.2961 C44.2373,1.2491 44.2133,1.2091 44.1913,1.1651 L43.7463,0.0001 L36.4663,3.9791 L37.2063,6.2771 L37.2083,6.2751 C37.6433,7.6981 38.4883,10.5531 38.9383,12.7021 C38.9413,12.7151 38.9433,12.7271 38.9453,12.7401 L38.9033,12.7581 C39.8513,17.0751 40.3253,21.3921 40.3253,25.7071 C40.3253,28.9951 40.0303,32.3761 39.4493,35.8481 C39.2913,36.7651 39.1163,37.6811 38.9153,38.5971 L38.9343,38.6051 C38.9313,38.6211 38.9293,38.6371 38.9263,38.6531 C38.4793,40.7861 37.6453,43.6111 37.2073,45.0451 L37.2063,45.0451 L36.4663,47.3411 L43.7463,51.3221 L44.1733,50.2031 C44.1973,50.1561 44.2243,50.1101 44.2423,50.0591 C44.2423,50.0591 44.2903,49.9201 44.3703,49.6891 L44.4043,49.5991 L44.4023,49.5981 C44.8193,48.3821 45.9543,45.0101 46.5383,42.6321 C46.6053,42.3601 46.6623,42.0881 46.7243,41.8141 L46.7393,41.8201 C47.9663,36.5601 48.5813,31.1701 48.5813,25.6501 C48.5813,19.8671 47.9023,14.2261 46.5503,8.7231" id="Fill-22"></path>
            </g>
        </g>
    </g>
</svg>