<?xml version="1.0" encoding="UTF-8"?>
<svg width="284px" height="32px" viewBox="0 0 284 32" version="1.1" xmlns="http://www.w3.org/2000/svg" xmlns:xlink="http://www.w3.org/1999/xlink">
    <!-- Generator: Sketch 46 (44423) - http://www.bohemiancoding.com/sketch -->
    <title>SSM Revision 2 BLUE ORANGE RGB</title>
    <desc>Created with Sketch.</desc>
    <defs></defs>
    <g id="Page-1" stroke="none" stroke-width="1" fill="none" fill-rule="evenodd">
        <g id="SSM-Revision-2-BLUE-ORANGE-RGB" transform="translate(0.946321, -0.050308)" fill="#FFFFFF">
            <polygon id="Fill-1" points="149.992878 14.6148162 145.665825 1.24918336 149.992878 1.24918336"></polygon>
            <path d="M109.525489,18.0051571 C111.440857,19.263428 112.650195,20.1581984 113.139523,20.6964587 C113.614869,21.234719 113.852543,22.3804446 113.852543,24.1217517 C113.852543,24.9186565 113.726716,25.5198304 113.475061,25.9182828 C113.230398,26.3307161 112.845926,26.5264471 112.335627,26.5264471 C111.818338,26.5264471 111.461828,26.365668 111.259107,26.0504013 C111.056385,25.7365326 110.95852,25.0235125 110.95852,23.9050495 L110.95852,20.2980063 L103.828318,20.2980063 L103.828318,11.7487547 C103.919193,12.1472072 104.03104,12.5107077 104.163857,12.8462466 C104.5693,13.8598537 105.093579,14.6567585 105.708734,15.2299708 C106.337869,15.8101735 107.610121,16.7259151 109.525489,18.0051571" id="Fill-4"></path>
            <path d="M108.595767,30.9296961 L103.828318,30.9296961 L103.828318,23.6813569 C103.905212,25.2192435 104.121915,26.4565432 104.464444,27.3925569 C104.91882,28.602594 105.876503,29.59523 107.337496,30.377455 C107.735948,30.5878659 108.155372,30.7766065 108.595767,30.9296961" id="Fill-5"></path>
            <g id="Group">
                <polygon id="Fill-2" points="139.213691 30.9296961 136.997736 30.9296961 136.997736 24.9878614 131.328527 24.9878614 131.328527 18.4595327 136.151899 18.4595327 136.151899 12.8112946 131.328527 12.8112946 131.328527 7.18402764 136.480447 7.18402764 136.480447 1.24219297 139.213691 1.24219297"></polygon>
                <path d="M120.54235,10.2248489 L120.54235,9.05675412 C120.54235,6.69470008 120.318657,5.02329694 119.864281,4.04534085 C119.395925,3.05270494 118.466203,2.24112023 117.054143,1.59171265 C116.774527,1.46588557 116.480931,1.34704887 116.180344,1.24219297 L123.611132,1.24918336 L123.611132,30.9296961 L116.613748,30.9296961 C116.942297,30.8115585 117.263855,30.678741 117.578423,30.5319427 C118.990482,29.8608649 119.948166,29.0150273 120.444484,28.0084106 C120.940802,27.0087843 121.185466,25.4499265 121.185466,23.3388276 C121.185466,20.4238334 120.745071,18.3190258 119.850301,17.0125212 C118.95553,15.7053176 116.795499,14.0276231 113.356225,11.9934185 C112.160867,11.2803984 111.433867,10.6792245 111.175222,10.1759162 C110.902597,9.67260781 110.77677,8.92393664 110.77677,7.93899016 C110.77677,7.16235742 110.895606,6.58984417 111.13328,6.21236291 C111.370953,5.83488165 111.720473,5.64614102 112.181839,5.64614102 C112.615243,5.64614102 112.92282,5.78594889 113.104571,6.06556464 C113.286321,6.34518039 113.377196,7.00157836 113.377196,8.02986528 L113.377196,10.2248489 L120.54235,10.2248489 Z" id="Fill-3"></path>
                <path d="M103.828318,1.24219297 L107.882747,1.24219297 C107.659054,1.32607769 107.442352,1.40996242 107.23264,1.50782793 C105.939417,2.1020114 104.995714,2.92617882 104.422502,3.97473788 C104.177838,4.42282212 103.982107,4.97506322 103.842299,5.63915063 L103.842299,7.18402764 L99.2566006,7.18402764 L99.2566006,30.9296961 L91.5461963,30.9296961 L91.5461963,7.18402764 L86.9744788,7.18402764 L86.9744788,1.24918336 L103.828318,1.24918336 L103.828318,1.24219297" id="Fill-6"></path>
                <polyline id="Fill-7" points="86.5760264 24.9878614 86.5760264 30.9296961 73.1894224 30.9296961 73.1894224 1.24918336 86.0587373 1.24918336 86.0587373 7.18402764 80.9138075 7.18402764 80.9138075 12.8112946 85.7301888 12.8112946 85.7301888 18.4595327 80.9138075 18.4595327 80.9138075 24.9878614 86.5760264 24.9878614"></polyline>
                <polyline id="Fill-8" points="70.9734676 24.9878614 70.9734676 30.9296961 57.5868636 30.9296961 57.5868636 1.24918336 70.4561784 1.24918336 70.4561784 7.18402764 65.3112487 7.18402764 65.3112487 12.8112946 70.1276299 12.8112946 70.1276299 18.4595327 65.3112487 18.4595327 65.3112487 24.9878614 70.9734676 24.9878614"></polyline>
                <path d="M47.4368119,10.2458201 L47.4368119,8.61705836 C47.4368119,7.67265616 47.2690424,7.05820055 46.9265131,6.76460402 C46.5909742,6.47100748 45.9758196,6.32420921 45.0880396,6.32420921 L45.0880396,12.9231409 C45.9548484,12.9231409 46.5630127,12.8043042 46.9125324,12.5659318 C47.262052,12.3289574 47.4368119,11.5530237 47.4368119,10.2458201 Z M54.6019655,23.1011542 L54.6019655,30.9296961 L47.4368119,30.9296961 L47.4368119,21.0669496 C47.4368119,19.4731398 47.3039944,18.4937857 47.0523402,18.110013 C46.8076764,17.7325318 46.1505794,17.5437912 45.0880396,17.5437912 L45.0880396,30.9296961 L37.3706449,30.9296961 L37.3706449,1.24918336 L42.8301424,1.24918336 C46.4721375,1.24918336 48.9397465,1.3813018 50.225979,1.66161659 C51.5192018,1.94822273 52.5677609,2.66823329 53.3786466,3.82164825 C54.1965226,4.97506322 54.6019655,6.81283773 54.6019655,9.3510497 C54.6019655,11.6578796 54.3153593,13.209747 53.7351566,14.0066519 C53.1689347,14.8035568 52.036491,15.2789036 50.3448157,15.4326922 C51.8757119,15.8171639 52.9032998,16.3204723 53.4345697,16.9565981 C53.9518588,17.5927239 54.2804073,18.1722276 54.4062344,18.7041965 C54.5390519,19.2347674 54.6019655,20.7034491 54.6019655,23.1011542 L54.6019655,23.1011542 Z" id="Fill-9"></path>
                <polyline id="Fill-10" points="35.6020753 1.24918336 35.6020753 7.18402764 31.0233674 7.18402764 31.0233674 30.9296961 23.3059727 30.9296961 23.3059727 7.18402764 18.7342552 7.18402764 18.7342552 1.24918336 35.6020753 1.24918336"></polyline>
                <path d="M16.2946078,17.0125212 C17.1893782,18.3190258 17.6367634,20.4238334 17.6367634,23.3388276 C17.6367634,25.4499265 17.3851092,27.0087843 16.8887913,28.0084106 C16.3994637,29.0150273 15.4417798,29.8608649 14.0227298,30.5319427 C12.6036799,31.2100109 10.9609374,31.5525402 9.07353107,31.5525402 C7.01136492,31.5525402 5.2427953,31.1610781 3.7887934,30.377455 C2.32081072,29.59523 1.36312678,28.602594 0.915741579,27.3925569 C0.461365986,26.1769274 0.237673387,24.4635819 0.237673387,22.2343454 L0.237673387,20.2980063 L7.40282696,20.2980063 L7.40282696,23.9050495 C7.40282696,25.0235125 7.50768287,25.7365326 7.7034139,26.0504013 C7.91312571,26.365668 8.26963579,26.5264471 8.77993453,26.5264471 C9.29722367,26.5264471 9.67470493,26.3307161 9.9263591,25.9182828 C10.1780133,25.5198304 10.3038404,24.9186565 10.3038404,24.1217517 C10.3038404,22.3804446 10.066167,21.234719 9.5908202,20.6964587 C9.10149264,20.1581984 7.89215453,19.263428 5.97678664,18.0051571 C4.05442837,16.7259151 2.7891671,15.8101735 2.16003166,15.2299708 C1.53788662,14.6567585 1.02059749,13.8598537 0.615154649,12.8462466 C0.202721418,11.8326395 0,10.5394166 0,8.95958765 C0,6.68770969 0.286606143,5.02329694 0.873799217,3.97473788 C1.4470115,2.92617882 2.38372426,2.1020114 3.6839375,1.50782793 C4.97716034,0.920634855 6.54300854,0.620047924 8.37449169,0.620047924 C10.3807347,0.620047924 12.0933812,0.941606036 13.4984503,1.59171265 C14.9105098,2.24112023 15.8472226,3.05270494 16.3085886,4.04534085 C16.7629642,5.02329694 16.9936472,6.69470008 16.9936472,9.05675412 L16.9936472,10.2248489 L9.82849359,10.2248489 L9.82849359,8.02986528 C9.82849359,7.00157836 9.73062808,6.34518039 9.54887784,6.06556464 C9.3671276,5.78594889 9.05955028,5.64614102 8.63313626,5.64614102 C8.16477988,5.64614102 7.81526019,5.83488165 7.57758681,6.21236291 C7.33991342,6.58984417 7.22107673,7.16235742 7.22107673,7.93899016 C7.22107673,8.92393664 7.35389421,9.67260781 7.61952917,10.1759162 C7.87817374,10.6792245 8.61216508,11.2803984 9.80752241,11.9934185 C13.2398057,14.0276231 15.3998374,15.7053176 16.2946078,17.0125212" id="Fill-11"></path>
            </g>
            <path d="M163.238276,1.24429008 C163.013186,1.32467961 162.795784,1.41275857 162.584675,1.50852697 C161.289355,2.10340947 160.351244,2.92338266 159.775235,3.97403884 C159.193635,5.02539406 158.904931,6.69050584 158.904931,8.96168477 C158.904931,10.5387176 159.104857,11.8347366 159.518688,12.8476446 C159.92483,13.8619508 160.444915,14.6567585 161.063565,15.232767 C161.689904,15.8080764 162.960059,16.7280122 164.881718,18.0044581 C166.796387,19.262729 168.004327,20.1574994 168.492256,20.6957597 C168.967603,21.23402 169.205976,22.3797455 169.205976,24.1252469 C169.205976,24.9200546 169.080148,25.5212285 168.829892,25.921079 C168.579636,26.3279199 168.19866,26.5278452 167.684866,26.5278452 C167.171771,26.5278452 166.815261,26.364969 166.609044,26.0517994 C166.40842,25.7337365 166.308457,25.0200173 166.308457,23.9057485 L166.308457,20.2952101 L159.143304,20.2952101 L159.143304,22.2350444 C159.143304,24.4628829 159.368394,26.1776265 159.818576,27.3918578 C160.269456,28.5997979 161.226441,29.5945309 162.690929,30.376756 C163.087284,30.5892639 163.506008,30.7731113 163.947102,30.928298 L143.36249,30.928298 L145.663028,30.927599 L145.663028,17.7618914 L145.698679,17.5556748 L149.680408,30.927599 L156.445711,30.927599 L156.445711,1.24568816 L163.238276,1.24429008 Z M215.067852,1.24568816 L215.067852,30.927599 L208.321423,30.927599 L208.321423,10.8896354 L205.624529,30.927599 L200.836808,30.927599 L197.995912,11.3461081 L197.995912,30.927599 L191.414456,30.927599 L171.965783,30.928298 C172.298526,30.8122575 172.619385,30.6808381 172.929059,30.5333408 C174.343915,29.8573697 175.3009,29.0122311 175.79582,28.0112067 C176.290041,27.0101823 176.540297,25.4520236 176.540297,23.3360314 C176.540297,20.4266295 176.096407,18.3176277 175.200238,17.0097251 C174.305468,15.7018224 172.147533,14.0304193 168.711755,11.9913214 C167.516397,11.2776022 166.783804,10.6764284 166.527257,10.1759162 C166.258126,9.67540397 166.126707,8.92393664 166.126707,7.93549497 C166.126707,7.16585262 166.245544,6.58984417 166.483916,6.21446003 C166.72159,5.83278453 167.071808,5.64544198 167.535271,5.64544198 C167.967278,5.64544198 168.273457,5.78315274 168.455207,6.06416656 C168.636258,6.34657847 168.72993,7.00297644 168.72993,8.02916624 L168.72993,10.226247 L175.895782,10.226247 L175.895782,9.05605508 C175.895782,6.6967972 175.670692,5.02539406 175.21352,4.0425447 C174.750756,3.05410302 173.817538,2.24112023 172.403382,1.58961554 C172.125164,1.46239037 171.834364,1.34704887 171.53168,1.24429008 C174.833106,1.24444543 177.309175,1.24456194 178.959888,1.24463961 C183.911835,1.24487263 191.339755,1.24522214 201.243649,1.24568816 C201.537945,3.02963664 201.844124,5.13234708 202.176168,7.55381947 L203.239406,15.1076389 L204.99819,1.24568816 L215.067852,1.24568816 Z M191.249483,30.927599 L191.249483,24.9885605 L186.684057,24.9885605 L186.684057,18.4616299 L191.249483,18.4616299 L191.249483,12.8105956 L186.684057,12.8105956 L186.684057,7.18472668 L191.249483,7.18472668 L191.249483,1.24568816 L178.961769,1.24568816 L178.961769,30.927599 L191.249483,30.927599 Z M218.165295,1.24568816 L231.038105,1.24568816 L231.038105,7.18472668 L225.887583,7.18472668 L225.887583,12.8105956 L230.706062,12.8105956 L230.706062,18.4616299 L225.887583,18.4616299 L225.887583,24.9885605 L231.550501,24.9885605 L231.550501,30.927599 L218.165295,30.927599 L218.165295,1.24568816 Z M233.766456,1.24568816 L239.542618,1.24568816 C243.272692,1.24568816 245.787836,1.41485569 247.102729,1.75878306 C248.416923,2.10340947 249.417947,2.65984482 250.099511,3.44206987 C250.788764,4.22499397 251.21378,5.10019127 251.389239,6.05787521 C251.557707,7.01625819 251.645786,8.89947026 251.645786,11.7152009 L251.645786,22.1099163 C251.645786,24.7760525 251.520658,26.5537096 251.26411,27.4547714 C251.013854,28.3488427 250.581848,29.0562706 249.956208,29.5630741 C249.329869,30.0698777 248.560925,30.4207955 247.646582,30.6270121 C246.726646,30.8276364 245.350237,30.927599 243.504074,30.927599 L233.766456,30.927599 L233.766456,1.24568816 Z M241.488744,6.32071401 L241.488744,25.8462818 C242.596721,25.8462818 243.285275,25.6274825 243.541823,25.1821944 C243.79837,24.732013 243.923498,23.5177816 243.923498,21.5401993 L243.923498,10.0067486 C243.923498,8.66179688 243.879459,7.80407556 243.79837,7.42240007 C243.710291,7.04701592 243.516657,6.7660021 243.209779,6.58984417 C242.9036,6.41438529 242.326892,6.32071401 241.488744,6.32071401 Z M254.518139,30.927599 L262.241126,30.927599 L262.241126,1.24568816 L254.518139,1.24568816 L254.518139,30.927599 Z M278.668551,1.24568816 L283.08648,30.927599 L275.181743,30.927599 L274.800067,25.5890353 L272.029075,25.5890353 L271.571204,30.927599 L263.579786,30.927599 L267.503494,1.24568816 L278.668551,1.24568816 Z M274.581967,20.3322592 C274.18701,16.9719769 273.799043,12.8168869 273.404085,7.87887278 C272.622559,13.5550725 272.13463,17.7038712 271.940996,20.3322592 L274.581967,20.3322592 L274.581967,20.3322592 Z" id="Fill-12"></path>
        </g>
    </g>
</svg>