<?xml version="1.0" encoding="UTF-8" standalone="no"?>
<svg width="523px" height="214px" viewBox="0 0 523 214" version="1.1" xmlns="http://www.w3.org/2000/svg" xmlns:xlink="http://www.w3.org/1999/xlink">
    <!-- Generator: Sketch 3.7.2 (28276) - http://www.bohemiancoding.com/sketch -->
    <title>intro-3-payment</title>
    <desc>Created with Sketch.</desc>
    <defs></defs>
    <g id="Page-1" stroke="none" stroke-width="1" fill="none" fill-rule="evenodd">
        <g id="intro-3-payment">
            <circle id="Oval-2" fill="#F89232" cx="90" cy="107" r="90"></circle>
            <path d="M113.87,125.054 C113.87,114.154 107.221,109.358 100.245,105.87 L94.141,102.927 L94.141,72.407 C99.591,72.952 104.278,76.222 107.003,81.672 L111.363,78.402 C107.003,70.772 100.681,68.047 94.141,67.502 L94.141,59 L89.018,59 L89.018,67.502 C78.445,68.592 70.27,75.568 70.27,86.032 C70.27,96.496 76.919,101.292 84.44,104.889 L89.018,107.069 L89.018,139.769 C81.715,139.769 75.175,135.082 72.123,127.234 L67,129.959 C70.815,139.224 79.099,144.892 89.018,145.001 L89.018,154.157 L94.141,154.157 L94.141,144.892 C104.496,143.802 113.87,135.954 113.87,125.054 L113.87,125.054 Z M86.838,99.657 C81.824,97.15 75.938,93.662 75.938,86.032 C75.938,78.402 81.17,73.279 89.018,72.407 L89.018,100.747 L86.838,99.657 Z M107.875,125.599 C107.875,133.774 100.681,139.442 94.141,139.769 L94.141,109.249 L97.52,110.884 C103.515,113.718 107.875,117.424 107.875,125.599 L107.875,125.599 Z" id="$" fill="#FFFFFF"></path>
            <polygon id="Page-1" fill="#E6E6E6" transform="translate(267.325001, 106.500402) scale(-1, 1) translate(-267.325001, -106.500402) " points="267.776989 47 238.479355 76.0279456 209 106.500402 237.303376 135.707754 267.776989 166.000803 267.776989 128.203939 325.650002 128.203939 325.650002 84.7991794 267.776989 84.7991794"></polygon>
            <g id="avatar" transform="translate(337.000000, 25.000000)" fill="#F89232">
                <path d="M92.50185,0 L92.50185,0 L92.5,0 C70.91235,0.0852808989 53.4983,17.8830337 53.6389,39.7353371 C53.4983,61.8045506 70.91235,79.5967416 92.5,79.4855056 L92.50185,79.4855056 C114.08765,79.5985955 131.50355,61.8045506 131.36295,39.7353371 C131.50355,17.8830337 114.08765,0.0852808989 92.50185,0" id="Fill-1"></path>
                <path d="M184.99815,164.616236 C185.09435,136.479101 160.9981,90.5386517 133.67175,90.4292697 L51.32825,90.4292697 C24.00005,90.5386517 -0.0925,136.479101 7.83373475e-14,164.616236 L184.99815,164.616236 Z" id="Fill-3"></path>
            </g>
        </g>
    </g>
</svg>