<?xml version="1.0" encoding="UTF-8" standalone="no"?>
<svg width="214px" height="214px" viewBox="0 0 214 214" version="1.1" xmlns="http://www.w3.org/2000/svg" xmlns:xlink="http://www.w3.org/1999/xlink">
    <!-- Generator: Sketch 3.7.2 (28276) - http://www.bohemiancoding.com/sketch -->
    <title>intro-2-location</title>
    <desc>Created with Sketch.</desc>
    <defs></defs>
    <g id="Page-1" stroke="none" stroke-width="1" fill="none" fill-rule="evenodd">
        <g id="intro-2-location">
            <circle id="Oval-2" fill="#2A4ED2" cx="107" cy="107" r="107"></circle>
            <path d="M105.736842,73.8245614 C113.420188,73.8245614 119.649123,80.0475353 119.649123,87.7308814 L119.649123,87.7368421 C119.649123,95.4201882 113.426149,101.649123 105.742803,101.649123 L105.736842,101.649123 C98.053496,101.649123 91.8245614,95.4261489 91.8245614,87.7428028 L91.8245614,87.7368421 C91.8245614,80.053496 98.0475353,73.8245614 105.730881,73.8245614 L105.736842,73.8245614 Z M106.807018,46 C83.1653133,46 64,65.1174 64,88.7 C64,92.3966 64.4097243,97.0936 66.1831579,102.0346 C75.7291228,128.594 106.807018,168 106.807018,168 C106.807018,168 137.884912,128.594 147.430877,102.0346 C149.204311,97.0936 149.614035,92.3966 149.614035,88.7 C149.614035,65.1174 130.448722,46 106.807018,46 L106.807018,46 Z" id="Page-1" fill="#FFFFFF"></path>
        </g>
    </g>
</svg>