<?xml version="1.0" encoding="UTF-8" standalone="no"?>
<svg width="56px" height="72px" viewBox="0 0 56 72" version="1.1" xmlns="http://www.w3.org/2000/svg" xmlns:xlink="http://www.w3.org/1999/xlink">
    <!-- Generator: Sketch 3.7.2 (28276) - http://www.bohemiancoding.com/sketch -->
    <title>lock-icon</title>
    <desc>Created with Sketch.</desc>
    <defs></defs>
    <g id="Page-1" stroke="none" stroke-width="1" fill="none" fill-rule="evenodd">
        <g id="lock-icon" fill="#EA8741">
            <g id="noun_143794">
                <path d="M52.4,30.7 L48.5,30.7 C48,30.7 47.5,30.3 47.5,29.7 L47.5,20.5 C47.5,9.9 39.3,0.9 28.7,0.5 C17.6,0.1 8.4,9 8.4,20.1 L8.4,29.8 C8.4,30.3 8,30.8 7.4,30.8 L3.5,30.8 C2,30.8 0.8,32 0.8,33.5 L0.8,68.9 C0.8,70.4 2,71.6 3.5,71.6 L52.3,71.6 C53.8,71.6 55,70.4 55,68.9 L55,33.4 C55.1,31.9 53.9,30.7 52.4,30.7 L52.4,30.7 Z M14.5,20.1 C14.5,12.4 20.9,6.2 28.7,6.6 C36,7 41.6,13.2 41.6,20.5 L41.6,29.8 C41.6,30.3 41.2,30.8 40.6,30.8 L15.4,30.8 C14.9,30.8 14.4,30.4 14.4,29.8 L14.4,20.1 L14.5,20.1 Z" id="Shape"></path>
            </g>
        </g>
    </g>
</svg>