<?xml version="1.0" encoding="UTF-8"?>
<svg width="408px" height="80px" viewBox="0 0 408 80" version="1.1" xmlns="http://www.w3.org/2000/svg" xmlns:xlink="http://www.w3.org/1999/xlink">
    <!-- Generator: Sketch 46 (44423) - http://www.bohemiancoding.com/sketch -->
    <title>SSM Revision 2 BLUE ORANGE RGB</title>
    <desc>Created with Sketch.</desc>
    <defs></defs>
    <g id="Page-1" stroke="none" stroke-width="1" fill="none" fill-rule="evenodd">
        <g id="SSM-Revision-2-BLUE-ORANGE-RGB">
            <polyline id="Fill-1" fill="#263875" points="219.43 7.777 219.43 7.787 214.57 7.787 214.57 26.907 208.38 7.787 208.38 7.777 219.43 7.777"></polyline>
            <polyline id="Fill-2" fill="#263875" points="199.15 7.787 199.15 50.246 195.98 50.246 195.98 41.746 187.87 41.746 187.87 32.407 194.77 32.407 194.77 24.327 187.87 24.327 187.87 16.277 195.24 16.277 195.24 7.777 208.38 7.777 208.38 7.787 199.15 7.787"></polyline>
            <path d="M162.19,20.627 L172.44,20.627 L172.44,18.956 C172.44,15.577 172.12,13.186 171.47,11.787 C170.8,10.367 169.47,9.206 167.45,8.277 C167.05,8.097 166.63,7.927 166.2,7.777 L195.24,7.777 L195.24,7.787 L176.83,7.787 L176.83,50.246 L166.82,50.246 C167.29,50.077 167.75,49.887 168.2,49.677 C170.22,48.717 171.59,47.507 172.3,46.067 C173.01,44.637 173.36,42.407 173.36,39.387 C173.36,35.217 172.73,32.206 171.45,30.337 C170.17,28.467 167.08,26.067 162.16,23.157 C160.45,22.137 159.41,21.277 159.04,20.557 C158.65,19.837 158.47,18.766 158.47,17.357 C158.47,16.246 158.64,15.427 158.98,14.887 C159.32,14.347 159.82,14.077 160.48,14.077 C161.1,14.077 161.54,14.277 161.8,14.677 C162.06,15.077 162.19,16.016 162.19,17.487 L162.19,20.627" id="Fill-3" fill="#263875"></path>
            <path d="M156.68,31.757 C159.42,33.557 161.15,34.837 161.85,35.607 C162.53,36.377 162.87,38.016 162.87,40.507 C162.87,41.647 162.69,42.507 162.33,43.077 C161.98,43.667 161.43,43.947 160.7,43.947 C159.96,43.947 159.45,43.717 159.16,43.266 C158.87,42.817 158.73,41.797 158.73,40.197 L158.73,35.037 L148.53,35.037 L148.53,22.807 C148.66,23.377 148.82,23.897 149.01,24.377 C149.59,25.827 150.34,26.967 151.22,27.787 C152.12,28.617 153.94,29.927 156.68,31.757" id="Fill-4" fill="#263875"></path>
            <path d="M155.35,50.246 L148.53,50.246 L148.53,39.877 C148.64,42.077 148.95,43.847 149.44,45.186 C150.09,46.917 151.46,48.337 153.55,49.456 C154.12,49.757 154.72,50.027 155.35,50.246" id="Fill-5" fill="#263875"></path>
            <path d="M148.53,7.777 L154.33,7.777 C154.01,7.897 153.7,8.017 153.4,8.157 C151.55,9.007 150.2,10.186 149.38,11.686 C149.03,12.327 148.75,13.117 148.55,14.067 L148.55,16.277 L141.99,16.277 L141.99,50.246 L130.96,50.246 L130.96,16.277 L124.42,16.277 L124.42,7.787 L148.53,7.787 L148.53,7.777" id="Fill-6" fill="#263875"></path>
            <polyline id="Fill-7" fill="#263875" points="123.85 41.746 123.85 50.246 104.7 50.246 104.7 7.787 123.11 7.787 123.11 16.277 115.75 16.277 115.75 24.327 122.64 24.327 122.64 32.407 115.75 32.407 115.75 41.746 123.85 41.746"></polyline>
            <polyline id="Fill-8" fill="#263875" points="101.53 41.746 101.53 50.246 82.38 50.246 82.38 7.787 100.79 7.787 100.79 16.277 93.43 16.277 93.43 24.327 100.32 24.327 100.32 32.407 93.43 32.407 93.43 41.746 101.53 41.746"></polyline>
            <path d="M67.86,20.657 L67.86,18.327 C67.86,16.976 67.62,16.097 67.13,15.677 C66.65,15.257 65.77,15.047 64.5,15.047 L64.5,24.487 C65.74,24.487 66.61,24.317 67.11,23.976 C67.61,23.637 67.86,22.527 67.86,20.657 Z M78.11,39.047 L78.11,50.246 L67.86,50.246 L67.86,36.137 C67.86,33.857 67.67,32.456 67.31,31.907 C66.96,31.367 66.02,31.097 64.5,31.097 L64.5,50.246 L53.46,50.246 L53.46,7.787 L61.27,7.787 C66.48,7.787 70.01,7.976 71.85,8.377 C73.7,8.787 75.2,9.817 76.36,11.467 C77.53,13.117 78.11,15.746 78.11,19.377 C78.11,22.677 77.7,24.897 76.87,26.037 C76.06,27.177 74.44,27.857 72.02,28.077 C74.21,28.627 75.68,29.347 76.44,30.257 C77.18,31.167 77.65,31.996 77.83,32.757 C78.02,33.516 78.11,35.617 78.11,39.047 L78.11,39.047 Z" id="Fill-9" fill="#263875"></path>
            <polyline id="Fill-10" fill="#263875" points="50.93 7.787 50.93 16.277 44.38 16.277 44.38 50.246 33.34 50.246 33.34 16.277 26.8 16.277 26.8 7.787 50.93 7.787"></polyline>
            <path d="M23.31,30.337 C24.59,32.206 25.23,35.217 25.23,39.387 C25.23,42.407 24.87,44.637 24.16,46.067 C23.46,47.507 22.09,48.717 20.06,49.677 C18.03,50.647 15.68,51.137 12.98,51.137 C10.03,51.137 7.5,50.577 5.42,49.456 C3.32,48.337 1.95,46.917 1.31,45.186 C0.66,43.447 0.34,40.996 0.34,37.807 L0.34,35.037 L10.59,35.037 L10.59,40.197 C10.59,41.797 10.74,42.817 11.02,43.266 C11.32,43.717 11.83,43.947 12.56,43.947 C13.3,43.947 13.84,43.667 14.2,43.077 C14.56,42.507 14.74,41.647 14.74,40.507 C14.74,38.016 14.4,36.377 13.72,35.607 C13.02,34.837 11.29,33.557 8.55,31.757 C5.8,29.927 3.99,28.617 3.09,27.787 C2.2,26.967 1.46,25.827 0.88,24.377 C0.29,22.927 0,21.077 0,18.817 C0,15.567 0.41,13.186 1.25,11.686 C2.07,10.186 3.41,9.007 5.27,8.157 C7.12,7.317 9.36,6.887 11.98,6.887 C14.85,6.887 17.3,7.347 19.31,8.277 C21.33,9.206 22.67,10.367 23.33,11.787 C23.98,13.186 24.31,15.577 24.31,18.956 L24.31,20.627 L14.06,20.627 L14.06,17.487 C14.06,16.016 13.92,15.077 13.66,14.677 C13.4,14.277 12.96,14.077 12.35,14.077 C11.68,14.077 11.18,14.347 10.84,14.887 C10.5,15.427 10.33,16.246 10.33,17.357 C10.33,18.766 10.52,19.837 10.9,20.557 C11.27,21.277 12.32,22.137 14.03,23.157 C18.94,26.067 22.03,28.467 23.31,30.337" id="Fill-11" fill="#263875"></path>
            <path d="M220.856,7.78 L233.518,7.78 C233.196,7.895 232.885,8.021 232.583,8.158 C230.73,9.009 229.388,10.182 228.564,11.685 C227.732,13.189 227.319,15.571 227.319,18.82 C227.319,21.076 227.605,22.93 228.197,24.379 C228.778,25.83 229.522,26.967 230.407,27.791 C231.303,28.614 233.12,29.93 235.869,31.756 C238.608,33.556 240.336,34.836 241.034,35.606 C241.714,36.376 242.055,38.015 242.055,40.512 C242.055,41.649 241.875,42.509 241.517,43.081 C241.159,43.663 240.614,43.949 239.879,43.949 C239.145,43.949 238.635,43.716 238.34,43.268 C238.053,42.813 237.91,41.792 237.91,40.198 L237.91,35.033 L227.66,35.033 L227.66,37.808 C227.66,40.995 227.982,43.448 228.626,45.185 C229.271,46.913 230.64,48.336 232.735,49.455 C233.302,49.759 233.901,50.022 234.532,50.244 L205.085,50.244 L205.085,50.243 L208.376,50.243 L208.376,31.409 L208.427,31.114 L214.123,50.243 L223.801,50.243 L223.801,7.782 L220.856,7.782 L220.856,7.78 Z M307.662,7.782 L307.662,50.243 L298.011,50.243 L298.011,21.578 L294.153,50.243 L287.304,50.243 L283.24,22.231 L283.24,50.243 L273.825,50.243 L273.825,50.244 L246.003,50.244 C246.479,50.078 246.938,49.89 247.381,49.679 C249.405,48.712 250.774,47.503 251.482,46.071 C252.189,44.639 252.547,42.41 252.547,39.383 C252.547,35.221 251.912,32.204 250.63,30.333 C249.35,28.462 246.263,26.071 241.348,23.154 C239.638,22.133 238.59,21.273 238.223,20.557 C237.838,19.841 237.65,18.766 237.65,17.352 C237.65,16.251 237.82,15.427 238.161,14.89 C238.501,14.344 239.002,14.076 239.665,14.076 C240.283,14.076 240.721,14.273 240.981,14.675 C241.24,15.079 241.374,16.018 241.374,17.486 L241.374,20.629 L251.625,20.629 L251.625,18.955 C251.625,15.58 251.303,13.189 250.649,11.783 C249.987,10.369 248.652,9.206 246.629,8.274 C246.231,8.092 245.815,7.927 245.382,7.78 L273.825,7.78 L273.825,7.782 L287.886,7.782 C288.307,10.334 288.745,13.342 289.22,16.806 L290.741,27.612 L293.257,7.782 L307.662,7.782 Z M273.589,50.243 L273.589,41.747 L267.058,41.747 L267.058,32.41 L273.589,32.41 L273.589,24.326 L267.058,24.326 L267.058,16.278 L273.589,16.278 L273.589,7.782 L256.011,7.782 L256.011,50.243 L273.589,50.243 Z M312.093,7.782 L330.508,7.782 L330.508,16.278 L323.14,16.278 L323.14,24.326 L330.033,24.326 L330.033,32.41 L323.14,32.41 L323.14,41.747 L331.241,41.747 L331.241,50.243 L312.093,50.243 L312.093,7.782 Z M334.411,7.782 L342.674,7.782 C348.01,7.782 351.608,8.024 353.489,8.516 C355.369,9.009 356.801,9.805 357.776,10.924 C358.762,12.044 359.37,13.296 359.621,14.666 C359.862,16.037 359.988,18.731 359.988,22.759 L359.988,37.629 C359.988,41.443 359.809,43.986 359.442,45.275 C359.084,46.554 358.466,47.566 357.571,48.291 C356.675,49.016 355.575,49.518 354.267,49.813 C352.951,50.1 350.982,50.243 348.341,50.243 L334.411,50.243 L334.411,7.782 Z M345.458,15.042 L345.458,42.974 C347.043,42.974 348.028,42.661 348.395,42.024 C348.762,41.38 348.941,39.643 348.941,36.814 L348.941,20.315 C348.941,18.391 348.878,17.164 348.762,16.618 C348.636,16.081 348.359,15.679 347.92,15.427 C347.482,15.176 346.657,15.042 345.458,15.042 Z M364.097,50.243 L375.145,50.243 L375.145,7.782 L364.097,7.782 L364.097,50.243 Z M398.645,7.782 L404.965,50.243 L393.657,50.243 L393.111,42.606 L389.147,42.606 L388.492,50.243 L377.06,50.243 L382.673,7.782 L398.645,7.782 Z M392.799,35.086 C392.234,30.279 391.679,24.335 391.114,17.271 C389.996,25.391 389.298,31.326 389.021,35.086 L392.799,35.086 L392.799,35.086 Z" id="Fill-12" fill="#EA8741"></path>
            <path d="M2.986,75.538 L2.986,60.365 L9.437,60.365 C11.059,60.365 12.235,60.503 12.97,60.774 C13.705,61.047 14.295,61.531 14.736,62.227 C15.178,62.926 15.397,63.721 15.397,64.618 C15.397,65.756 15.061,66.699 14.394,67.441 C13.726,68.18 12.722,68.649 11.391,68.84 C12.055,69.229 12.603,69.653 13.033,70.116 C13.465,70.578 14.044,71.397 14.776,72.578 L16.63,75.538 L12.966,75.538 L10.752,72.235 C9.963,71.055 9.426,70.314 9.137,70.006 C8.847,69.699 8.54,69.49 8.214,69.374 C7.89,69.261 7.377,69.204 6.671,69.204 L6.052,69.204 L6.052,75.538 L2.986,75.538 Z M6.052,66.78 L8.317,66.78 C9.787,66.78 10.705,66.721 11.073,66.597 C11.437,66.474 11.723,66.258 11.932,65.954 C12.136,65.65 12.242,65.272 12.242,64.816 C12.242,64.304 12.104,63.894 11.832,63.58 C11.561,63.266 11.175,63.068 10.677,62.982 C10.43,62.951 9.684,62.933 8.441,62.933 L6.052,62.933 L6.052,66.78 Z M24.628,72.041 L27.528,72.525 C27.153,73.588 26.568,74.397 25.762,74.952 C24.96,75.51 23.953,75.786 22.745,75.786 C20.834,75.786 19.421,75.164 18.502,73.913 C17.777,72.913 17.414,71.649 17.414,70.126 C17.414,68.303 17.89,66.876 18.845,65.845 C19.794,64.813 21,64.297 22.455,64.297 C24.091,64.297 25.38,64.838 26.327,65.918 C27.271,66.999 27.722,68.652 27.684,70.882 L20.396,70.882 C20.417,71.744 20.65,72.415 21.099,72.892 C21.547,73.373 22.109,73.613 22.777,73.613 C23.232,73.613 23.614,73.489 23.925,73.242 C24.236,72.991 24.472,72.592 24.628,72.041 Z M24.794,69.101 C24.773,68.257 24.557,67.618 24.144,67.18 C23.73,66.742 23.226,66.522 22.632,66.522 C21.996,66.522 21.473,66.756 21.059,67.218 C20.646,67.678 20.441,68.307 20.449,69.101 L24.794,69.101 Z M32.227,67.9 L29.588,67.424 C29.884,66.36 30.393,65.576 31.117,65.063 C31.845,64.555 32.919,64.297 34.346,64.297 C35.646,64.297 36.61,64.452 37.247,64.76 C37.879,65.067 38.327,65.455 38.585,65.929 C38.843,66.403 38.974,67.268 38.974,68.533 L38.942,71.928 C38.942,72.892 38.988,73.606 39.084,74.065 C39.175,74.521 39.352,75.015 39.607,75.538 L36.728,75.538 C36.653,75.344 36.557,75.058 36.448,74.68 C36.402,74.507 36.366,74.394 36.346,74.337 C35.847,74.821 35.318,75.181 34.752,75.425 C34.187,75.665 33.583,75.786 32.941,75.786 C31.81,75.786 30.916,75.478 30.266,74.867 C29.612,74.252 29.287,73.475 29.287,72.536 C29.287,71.917 29.436,71.362 29.732,70.875 C30.029,70.387 30.446,70.016 30.98,69.759 C31.513,69.501 32.286,69.275 33.294,69.081 C34.65,68.826 35.593,68.585 36.116,68.367 L36.116,68.077 C36.116,67.516 35.979,67.12 35.703,66.879 C35.427,66.642 34.908,66.522 34.142,66.522 C33.622,66.522 33.219,66.625 32.93,66.83 C32.64,67.032 32.407,67.389 32.227,67.9 Z M36.116,70.26 C35.745,70.384 35.155,70.532 34.346,70.705 C33.541,70.878 33.014,71.048 32.764,71.211 C32.385,71.483 32.195,71.822 32.195,72.235 C32.195,72.645 32.347,72.995 32.651,73.291 C32.954,73.588 33.339,73.736 33.809,73.736 C34.336,73.736 34.834,73.564 35.311,73.221 C35.664,72.959 35.893,72.638 36.003,72.256 C36.081,72.009 36.116,71.536 36.116,70.84 L36.116,70.26 Z M41.842,75.538 L44.749,75.538 L44.749,60.365 L41.842,60.365 L41.842,75.538 Z" id="Fill-13" fill="#A6A6A3"></path>
            <path d="M52.865,70.602 L55.847,70.309 C56.023,71.313 56.387,72.048 56.939,72.517 C57.486,72.984 58.225,73.221 59.157,73.221 C60.143,73.221 60.888,73.013 61.386,72.592 C61.888,72.175 62.139,71.687 62.139,71.129 C62.139,70.769 62.033,70.465 61.821,70.214 C61.612,69.96 61.245,69.741 60.718,69.557 C60.362,69.431 59.542,69.211 58.267,68.893 C56.624,68.487 55.472,67.985 54.812,67.391 C53.88,66.558 53.413,65.541 53.413,64.339 C53.413,63.565 53.632,62.845 54.07,62.17 C54.508,61.499 55.141,60.987 55.964,60.634 C56.791,60.284 57.782,60.107 58.948,60.107 C60.857,60.107 62.287,60.524 63.252,61.357 C64.213,62.195 64.717,63.308 64.767,64.704 L61.704,64.838 C61.574,64.057 61.29,63.495 60.86,63.156 C60.429,62.813 59.782,62.643 58.921,62.643 C58.03,62.643 57.331,62.824 56.829,63.191 C56.504,63.425 56.341,63.739 56.341,64.131 C56.341,64.491 56.493,64.798 56.797,65.053 C57.182,65.378 58.122,65.717 59.613,66.067 C61.104,66.42 62.206,66.784 62.919,67.159 C63.633,67.537 64.191,68.048 64.598,68.703 C65.001,69.356 65.202,70.162 65.202,71.119 C65.202,71.988 64.962,72.804 64.478,73.559 C63.994,74.319 63.312,74.885 62.428,75.252 C61.545,75.623 60.443,75.807 59.125,75.807 C57.207,75.807 55.734,75.366 54.706,74.478 C53.678,73.591 53.063,72.299 52.865,70.602 Z M72.797,64.548 L72.797,66.866 L70.812,66.866 L70.812,71.295 C70.812,72.192 70.83,72.715 70.868,72.864 C70.907,73.013 70.991,73.132 71.126,73.231 C71.26,73.327 71.426,73.376 71.617,73.376 C71.89,73.376 72.278,73.281 72.79,73.097 L73.037,75.35 C72.359,75.641 71.596,75.786 70.738,75.786 C70.214,75.786 69.741,75.697 69.321,75.524 C68.9,75.348 68.593,75.118 68.396,74.839 C68.197,74.56 68.063,74.182 67.985,73.704 C67.925,73.369 67.894,72.683 67.894,71.655 L67.894,66.866 L66.559,66.866 L66.559,64.548 L67.894,64.548 L67.894,62.361 L70.812,60.665 L70.812,64.548 L72.797,64.548 Z M74.143,69.886 C74.143,68.921 74.383,67.985 74.857,67.081 C75.334,66.18 76.008,65.488 76.881,65.015 C77.754,64.537 78.729,64.297 79.806,64.297 C81.466,64.297 82.83,64.838 83.894,65.918 C84.957,66.999 85.486,68.364 85.486,70.013 C85.486,71.673 84.949,73.051 83.88,74.146 C82.805,75.242 81.456,75.786 79.827,75.786 C78.817,75.786 77.859,75.559 76.945,75.103 C76.029,74.648 75.334,73.98 74.857,73.1 C74.383,72.221 74.143,71.15 74.143,69.886 Z M77.125,70.041 C77.125,71.133 77.383,71.966 77.902,72.546 C78.418,73.125 79.057,73.414 79.817,73.414 C80.576,73.414 81.213,73.125 81.724,72.546 C82.24,71.966 82.498,71.125 82.498,70.02 C82.498,68.946 82.24,68.116 81.724,67.537 C81.213,66.957 80.576,66.667 79.817,66.667 C79.057,66.667 78.418,66.957 77.902,67.537 C77.383,68.116 77.125,68.953 77.125,70.041 Z M90.549,75.538 L87.642,75.538 L87.642,64.548 L90.341,64.548 L90.341,66.109 C90.804,65.37 91.22,64.883 91.588,64.65 C91.959,64.417 92.376,64.297 92.845,64.297 C93.51,64.297 94.146,64.48 94.76,64.848 L93.86,67.381 C93.372,67.067 92.917,66.908 92.496,66.908 C92.087,66.908 91.744,67.017 91.461,67.244 C91.174,67.465 90.956,67.872 90.793,68.458 C90.631,69.045 90.549,70.274 90.549,72.143 L90.549,75.538 Z M96.015,63.057 L98.922,63.057 L98.922,60.365 L96.015,60.365 L96.015,63.057 Z M96.015,75.538 L98.922,75.538 L98.922,64.548 L96.015,64.548 L96.015,75.538 Z M108.266,72.041 L111.167,72.525 C110.792,73.588 110.206,74.397 109.4,74.952 C108.598,75.51 107.592,75.786 106.383,75.786 C104.472,75.786 103.059,75.164 102.141,73.913 C101.416,72.913 101.052,71.649 101.052,70.126 C101.052,68.303 101.529,66.876 102.483,65.845 C103.433,64.813 104.638,64.297 106.094,64.297 C107.729,64.297 109.019,64.838 109.965,65.918 C110.909,66.999 111.361,68.652 111.322,70.882 L104.034,70.882 C104.055,71.744 104.289,72.415 104.737,72.892 C105.186,73.373 105.747,73.613 106.416,73.613 C106.871,73.613 107.252,73.489 107.563,73.242 C107.874,72.991 108.111,72.592 108.266,72.041 Z M108.433,69.101 C108.411,68.257 108.196,67.618 107.783,67.18 C107.369,66.742 106.864,66.522 106.271,66.522 C105.634,66.522 105.111,66.756 104.698,67.218 C104.284,67.678 104.08,68.307 104.087,69.101 L108.433,69.101 Z M112.668,72.401 L115.586,71.956 C115.71,72.521 115.96,72.952 116.341,73.245 C116.72,73.539 117.25,73.687 117.936,73.687 C118.688,73.687 119.253,73.549 119.631,73.271 C119.889,73.08 120.016,72.818 120.016,72.496 C120.016,72.274 119.945,72.09 119.808,71.945 C119.663,71.808 119.338,71.681 118.836,71.564 C116.491,71.048 115.003,70.575 114.374,70.147 C113.505,69.554 113.07,68.727 113.07,67.671 C113.07,66.721 113.445,65.918 114.198,65.272 C114.95,64.622 116.116,64.297 117.695,64.297 C119.2,64.297 120.319,64.544 121.051,65.032 C121.782,65.523 122.284,66.247 122.559,67.207 L119.818,67.713 C119.701,67.286 119.479,66.957 119.15,66.731 C118.822,66.501 118.356,66.388 117.748,66.388 C116.981,66.388 116.434,66.495 116.102,66.71 C115.882,66.862 115.774,67.059 115.774,67.3 C115.774,67.508 115.868,67.682 116.063,67.827 C116.324,68.021 117.229,68.292 118.779,68.646 C120.327,68.995 121.408,69.426 122.022,69.938 C122.63,70.458 122.934,71.179 122.934,72.1 C122.934,73.107 122.513,73.977 121.67,74.701 C120.829,75.425 119.585,75.786 117.936,75.786 C116.438,75.786 115.253,75.482 114.378,74.874 C113.505,74.27 112.936,73.443 112.668,72.401 L112.668,72.401 Z" id="Fill-14" fill="#A6A6A3"></path>
            <polygon id="Fill-15" fill="#A6A6A3" points="131.671 79.999 133.978 79.999 133.978 60.107 131.671 60.107"></polygon>
            <path d="M143.219,75.538 L143.219,60.365 L149.67,60.365 C151.292,60.365 152.468,60.503 153.203,60.774 C153.938,61.047 154.527,61.531 154.969,62.227 C155.411,62.926 155.629,63.721 155.629,64.618 C155.629,65.756 155.294,66.699 154.627,67.441 C153.959,68.18 152.955,68.649 151.624,68.84 C152.288,69.229 152.836,69.653 153.266,70.116 C153.697,70.578 154.276,71.397 155.008,72.578 L156.862,75.538 L153.199,75.538 L150.984,72.235 C150.196,71.055 149.659,70.314 149.369,70.006 C149.08,69.699 148.773,69.49 148.447,69.374 C148.123,69.261 147.61,69.204 146.903,69.204 L146.286,69.204 L146.286,75.538 L143.219,75.538 Z M146.286,66.78 L148.55,66.78 C150.02,66.78 150.938,66.721 151.305,66.597 C151.67,66.474 151.956,66.258 152.164,65.954 C152.369,65.65 152.475,65.272 152.475,64.816 C152.475,64.304 152.337,63.894 152.065,63.58 C151.794,63.266 151.408,63.068 150.91,62.982 C150.663,62.951 149.917,62.933 148.673,62.933 L146.286,62.933 L146.286,66.78 Z M164.86,72.041 L167.761,72.525 C167.386,73.588 166.8,74.397 165.995,74.952 C165.192,75.51 164.186,75.786 162.978,75.786 C161.066,75.786 159.653,75.164 158.735,73.913 C158.01,72.913 157.647,71.649 157.647,70.126 C157.647,68.303 158.123,66.876 159.078,65.845 C160.027,64.813 161.232,64.297 162.688,64.297 C164.324,64.297 165.613,64.838 166.559,65.918 C167.503,66.999 167.955,68.652 167.917,70.882 L160.628,70.882 C160.649,71.744 160.883,72.415 161.332,72.892 C161.78,73.373 162.341,73.613 163.01,73.613 C163.465,73.613 163.846,73.489 164.157,73.242 C164.468,72.991 164.705,72.592 164.86,72.041 Z M165.027,69.101 C165.005,68.257 164.79,67.618 164.377,67.18 C163.963,66.742 163.458,66.522 162.865,66.522 C162.229,66.522 161.706,66.756 161.292,67.218 C160.878,67.678 160.674,68.307 160.681,69.101 L165.027,69.101 Z M172.46,67.9 L169.82,67.424 C170.117,66.36 170.626,65.576 171.35,65.063 C172.078,64.555 173.152,64.297 174.579,64.297 C175.879,64.297 176.843,64.452 177.48,64.76 C178.111,65.067 178.56,65.455 178.818,65.929 C179.076,66.403 179.207,67.268 179.207,68.533 L179.175,71.928 C179.175,72.892 179.221,73.606 179.316,74.065 C179.408,74.521 179.585,75.015 179.839,75.538 L176.961,75.538 C176.886,75.344 176.79,75.058 176.681,74.68 C176.635,74.507 176.6,74.394 176.579,74.337 C176.08,74.821 175.551,75.181 174.985,75.425 C174.42,75.665 173.816,75.786 173.173,75.786 C172.043,75.786 171.149,75.478 170.499,74.867 C169.845,74.252 169.52,73.475 169.52,72.536 C169.52,71.917 169.669,71.362 169.965,70.875 C170.262,70.387 170.679,70.016 171.212,69.759 C171.746,69.501 172.519,69.275 173.526,69.081 C174.882,68.826 175.826,68.585 176.349,68.367 L176.349,68.077 C176.349,67.516 176.212,67.12 175.935,66.879 C175.66,66.642 175.141,66.522 174.374,66.522 C173.855,66.522 173.452,66.625 173.163,66.83 C172.873,67.032 172.64,67.389 172.46,67.9 Z M176.349,70.26 C175.978,70.384 175.388,70.532 174.579,70.705 C173.773,70.878 173.247,71.048 172.996,71.211 C172.618,71.483 172.427,71.822 172.427,72.235 C172.427,72.645 172.58,72.995 172.883,73.291 C173.187,73.588 173.572,73.736 174.042,73.736 C174.568,73.736 175.067,73.564 175.543,73.221 C175.897,72.959 176.126,72.638 176.236,72.256 C176.314,72.009 176.349,71.536 176.349,70.84 L176.349,70.26 Z M182.075,75.538 L184.982,75.538 L184.982,60.365 L182.075,60.365 L182.075,75.538 Z" id="Fill-16" fill="#A6A6A3"></path>
            <path d="M193.876,75.538 L193.876,60.365 L198.789,60.365 C200.651,60.365 201.866,60.443 202.432,60.595 C203.3,60.82 204.031,61.315 204.619,62.079 C205.205,62.842 205.498,63.827 205.498,65.032 C205.498,65.964 205.328,66.748 204.989,67.381 C204.65,68.017 204.222,68.515 203.7,68.879 C203.18,69.24 202.65,69.479 202.113,69.597 C201.382,69.741 200.322,69.815 198.934,69.815 L196.938,69.815 L196.938,75.538 L193.876,75.538 Z M196.938,62.933 L196.938,67.236 L198.613,67.236 C199.821,67.236 200.63,67.159 201.036,66.999 C201.442,66.841 201.761,66.594 201.993,66.254 C202.223,65.915 202.339,65.523 202.339,65.074 C202.339,64.523 202.177,64.067 201.852,63.707 C201.531,63.35 201.117,63.124 200.623,63.036 C200.255,62.965 199.521,62.933 198.418,62.933 L196.938,62.933 Z M214.355,72.041 L217.255,72.525 C216.88,73.588 216.294,74.397 215.489,74.952 C214.686,75.51 213.68,75.786 212.472,75.786 C210.56,75.786 209.148,75.164 208.229,73.913 C207.504,72.913 207.141,71.649 207.141,70.126 C207.141,68.303 207.617,66.876 208.572,65.845 C209.522,64.813 210.727,64.297 212.182,64.297 C213.818,64.297 215.107,64.838 216.054,65.918 C216.997,66.999 217.449,68.652 217.411,70.882 L210.122,70.882 C210.144,71.744 210.377,72.415 210.826,72.892 C211.274,73.373 211.836,73.613 212.504,73.613 C212.959,73.613 213.34,73.489 213.651,73.242 C213.962,72.991 214.199,72.592 214.355,72.041 Z M214.521,69.101 C214.5,68.257 214.284,67.618 213.871,67.18 C213.458,66.742 212.952,66.522 212.359,66.522 C211.723,66.522 211.2,66.756 210.786,67.218 C210.373,67.678 210.168,68.307 210.176,69.101 L214.521,69.101 Z M219.107,69.886 C219.107,68.921 219.346,67.985 219.819,67.081 C220.296,66.18 220.971,65.488 221.844,65.015 C222.716,64.537 223.691,64.297 224.769,64.297 C226.429,64.297 227.793,64.838 228.857,65.918 C229.92,66.999 230.449,68.364 230.449,70.013 C230.449,71.673 229.913,73.051 228.842,74.146 C227.768,75.242 226.419,75.786 224.79,75.786 C223.78,75.786 222.822,75.559 221.908,75.103 C220.993,74.648 220.296,73.98 219.819,73.1 C219.346,72.221 219.107,71.15 219.107,69.886 Z M222.088,70.041 C222.088,71.133 222.346,71.966 222.865,72.546 C223.38,73.125 224.02,73.414 224.779,73.414 C225.539,73.414 226.175,73.125 226.687,72.546 C227.203,71.966 227.461,71.125 227.461,70.02 C227.461,68.946 227.203,68.116 226.687,67.537 C226.175,66.957 225.539,66.667 224.779,66.667 C224.02,66.667 223.38,66.957 222.865,67.537 C222.346,68.116 222.088,68.953 222.088,70.041 Z M232.644,64.548 L235.357,64.548 L235.357,66.162 C235.707,65.608 236.183,65.16 236.784,64.816 C237.385,64.47 238.052,64.297 238.783,64.297 C240.059,64.297 241.144,64.798 242.03,65.799 C242.921,66.798 243.365,68.193 243.365,69.981 C243.365,71.815 242.917,73.242 242.024,74.26 C241.126,75.277 240.038,75.786 238.762,75.786 C238.155,75.786 237.604,75.665 237.109,75.425 C236.618,75.181 236.099,74.768 235.551,74.182 L235.551,79.721 L232.644,79.721 L232.644,64.548 Z M235.523,69.858 C235.523,71.091 235.767,72.006 236.258,72.592 C236.745,73.182 237.342,73.479 238.049,73.479 C238.724,73.479 239.285,73.207 239.734,72.666 C240.183,72.125 240.408,71.235 240.408,70.002 C240.408,68.848 240.176,67.992 239.712,67.434 C239.25,66.876 238.678,66.597 237.996,66.597 C237.286,66.597 236.696,66.869 236.226,67.419 C235.756,67.967 235.523,68.78 235.523,69.858 Z M245.676,75.538 L248.584,75.538 L248.584,60.365 L245.676,60.365 L245.676,75.538 Z M257.928,72.041 L260.829,72.525 C260.454,73.588 259.868,74.397 259.063,74.952 C258.26,75.51 257.254,75.786 256.046,75.786 C254.134,75.786 252.721,75.164 251.802,73.913 C251.078,72.913 250.714,71.649 250.714,70.126 C250.714,68.303 251.191,66.876 252.146,65.845 C253.095,64.813 254.3,64.297 255.756,64.297 C257.391,64.297 258.681,64.838 259.627,65.918 C260.571,66.999 261.023,68.652 260.984,70.882 L253.696,70.882 C253.717,71.744 253.95,72.415 254.399,72.892 C254.848,73.373 255.409,73.613 256.077,73.613 C256.533,73.613 256.914,73.489 257.225,73.242 C257.536,72.991 257.773,72.592 257.928,72.041 Z M258.095,69.101 C258.073,68.257 257.858,67.618 257.444,67.18 C257.031,66.742 256.526,66.522 255.932,66.522 C255.296,66.522 254.774,66.756 254.36,67.218 C253.946,67.678 253.742,68.307 253.749,69.101 L258.095,69.101 L258.095,69.101 Z" id="Fill-17" fill="#A6A6A3"></path>
            <polygon id="Fill-18" fill="#A6A6A3" points="269.544 79.999 271.851 79.999 271.851 60.107 269.544 60.107"></polygon>
            <g id="Group-22" transform="translate(281.000000, 60.000000)" fill="#A6A6A3">
                <path d="M0.092,15.538 L0.092,0.365 L6.543,0.365 C8.165,0.365 9.341,0.503 10.077,0.774 C10.811,1.047 11.401,1.531 11.842,2.227 C12.284,2.926 12.503,3.721 12.503,4.618 C12.503,5.756 12.167,6.699 11.5,7.441 C10.832,8.18 9.829,8.649 8.497,8.84 C9.161,9.229 9.709,9.653 10.139,10.116 C10.571,10.578 11.15,11.397 11.881,12.578 L13.736,15.538 L10.072,15.538 L7.858,12.235 C7.069,11.055 6.532,10.314 6.243,10.006 C5.954,9.699 5.646,9.49 5.321,9.374 C4.996,9.261 4.483,9.204 3.777,9.204 L3.159,9.204 L3.159,15.538 L0.092,15.538 Z M3.159,6.78 L5.423,6.78 C6.893,6.78 7.811,6.721 8.179,6.597 C8.543,6.474 8.829,6.258 9.038,5.954 C9.242,5.65 9.349,5.272 9.349,4.816 C9.349,4.304 9.21,3.894 8.939,3.58 C8.667,3.266 8.281,3.068 7.783,2.982 C7.536,2.951 6.79,2.933 5.547,2.933 L3.159,2.933 L3.159,6.78 Z M21.734,12.041 L24.635,12.525 C24.26,13.588 23.673,14.397 22.868,14.952 C22.066,15.51 21.06,15.786 19.851,15.786 C17.94,15.786 16.526,15.164 15.608,13.913 C14.883,12.913 14.52,11.649 14.52,10.126 C14.52,8.303 14.997,6.876 15.951,5.845 C16.901,4.813 18.106,4.297 19.561,4.297 C21.197,4.297 22.486,4.838 23.433,5.918 C24.377,6.999 24.829,8.652 24.79,10.882 L17.502,10.882 C17.523,11.744 17.756,12.415 18.205,12.892 C18.653,13.373 19.215,13.613 19.883,13.613 C20.338,13.613 20.72,13.489 21.031,13.242 C21.342,12.991 21.579,12.592 21.734,12.041 Z M21.9,9.101 C21.879,8.257 21.664,7.618 21.251,7.18 C20.837,6.742 20.332,6.522 19.738,6.522 C19.102,6.522 18.579,6.756 18.166,7.218 C17.753,7.678 17.547,8.307 17.555,9.101 L21.9,9.101 Z M29.333,7.9 L26.693,7.424 C26.991,6.36 27.499,5.576 28.224,5.063 C28.951,4.555 30.025,4.297 31.452,4.297 C32.753,4.297 33.717,4.452 34.353,4.76 C34.984,5.067 35.434,5.455 35.691,5.929 C35.949,6.403 36.08,7.268 36.08,8.533 L36.048,11.928 C36.048,12.892 36.094,13.606 36.19,14.065 C36.281,14.521 36.459,15.015 36.713,15.538 L33.834,15.538 C33.759,15.344 33.664,15.058 33.555,14.68 C33.509,14.507 33.473,14.394 33.452,14.337 C32.954,14.821 32.424,15.181 31.858,15.425 C31.294,15.665 30.69,15.786 30.047,15.786 C28.916,15.786 28.022,15.478 27.372,14.867 C26.718,14.252 26.393,13.475 26.393,12.536 C26.393,11.917 26.542,11.362 26.838,10.875 C27.135,10.387 27.552,10.016 28.086,9.759 C28.619,9.501 29.393,9.275 30.4,9.081 C31.756,8.826 32.699,8.585 33.222,8.367 L33.222,8.077 C33.222,7.516 33.085,7.12 32.809,6.879 C32.534,6.642 32.014,6.522 31.248,6.522 C30.728,6.522 30.325,6.625 30.036,6.83 C29.746,7.032 29.513,7.389 29.333,7.9 Z M33.222,10.26 C32.851,10.384 32.261,10.532 31.452,10.705 C30.647,10.878 30.12,11.048 29.87,11.211 C29.492,11.483 29.301,11.822 29.301,12.235 C29.301,12.645 29.453,12.995 29.757,13.291 C30.061,13.588 30.445,13.736 30.915,13.736 C31.442,13.736 31.94,13.564 32.417,13.221 C32.771,12.959 33,12.638 33.109,12.256 C33.187,12.009 33.222,11.536 33.222,10.84 L33.222,10.26 Z M38.949,15.538 L41.856,15.538 L41.856,0.365 L38.949,0.365 L38.949,15.538 Z" id="Fill-19"></path>
                <path d="M60.456,9.96 L63.424,10.9 C62.969,12.557 62.212,13.786 61.152,14.591 C60.096,15.393 58.75,15.796 57.122,15.796 C55.108,15.796 53.451,15.107 52.154,13.733 C50.858,12.355 50.209,10.473 50.209,8.088 C50.209,5.561 50.862,3.6 52.165,2.203 C53.469,0.807 55.183,0.107 57.309,0.107 C59.164,0.107 60.672,0.655 61.831,1.754 C62.524,2.4 63.039,3.333 63.385,4.548 L60.351,5.272 C60.174,4.484 59.8,3.863 59.228,3.407 C58.659,2.951 57.966,2.725 57.154,2.725 C56.03,2.725 55.115,3.127 54.416,3.936 C53.716,4.742 53.366,6.049 53.366,7.858 C53.366,9.777 53.709,11.143 54.401,11.956 C55.09,12.772 55.987,13.178 57.09,13.178 C57.906,13.178 58.606,12.92 59.191,12.401 C59.778,11.886 60.198,11.069 60.456,9.96 Z M68.931,0.365 L68.931,5.944 C69.871,4.848 70.991,4.297 72.295,4.297 C72.966,4.297 73.566,4.424 74.107,4.671 C74.644,4.919 75.05,5.236 75.322,5.622 C75.594,6.011 75.781,6.438 75.881,6.908 C75.983,7.374 76.032,8.106 76.032,9.091 L76.032,15.538 L73.125,15.538 L73.125,9.731 C73.125,8.579 73.068,7.848 72.959,7.537 C72.846,7.225 72.652,6.982 72.373,6.798 C72.093,6.614 71.743,6.522 71.323,6.522 C70.839,6.522 70.408,6.64 70.03,6.876 C69.648,7.109 69.37,7.462 69.196,7.935 C69.02,8.41 68.931,9.109 68.931,10.03 L68.931,15.538 L66.024,15.538 L66.024,0.365 L68.931,0.365 Z M81.155,7.9 L78.516,7.424 C78.813,6.36 79.321,5.576 80.046,5.063 C80.774,4.555 81.848,4.297 83.275,4.297 C84.575,4.297 85.539,4.452 86.175,4.76 C86.807,5.067 87.256,5.455 87.514,5.929 C87.772,6.403 87.902,7.268 87.902,8.533 L87.87,11.928 C87.87,12.892 87.916,13.606 88.012,14.065 C88.104,14.521 88.28,15.015 88.535,15.538 L85.656,15.538 C85.582,15.344 85.485,15.058 85.377,14.68 C85.331,14.507 85.295,14.394 85.275,14.337 C84.776,14.821 84.246,15.181 83.681,15.425 C83.116,15.665 82.512,15.786 81.869,15.786 C80.738,15.786 79.845,15.478 79.194,14.867 C78.541,14.252 78.215,13.475 78.215,12.536 C78.215,11.917 78.364,11.362 78.661,10.875 C78.958,10.387 79.375,10.016 79.908,9.759 C80.441,9.501 81.215,9.275 82.222,9.081 C83.579,8.826 84.522,8.585 85.045,8.367 L85.045,8.077 C85.045,7.516 84.907,7.12 84.631,6.879 C84.356,6.642 83.837,6.522 83.07,6.522 C82.55,6.522 82.148,6.625 81.858,6.83 C81.569,7.032 81.336,7.389 81.155,7.9 Z M85.045,10.26 C84.674,10.384 84.084,10.532 83.275,10.705 C82.469,10.878 81.942,11.048 81.692,11.211 C81.314,11.483 81.123,11.822 81.123,12.235 C81.123,12.645 81.275,12.995 81.579,13.291 C81.883,13.588 82.268,13.736 82.738,13.736 C83.264,13.736 83.763,13.564 84.239,13.221 C84.593,12.959 84.822,12.638 84.932,12.256 C85.01,12.009 85.045,11.536 85.045,10.84 L85.045,10.26 Z M100.769,15.538 L97.861,15.538 L97.861,9.928 C97.861,8.741 97.798,7.975 97.674,7.625 C97.551,7.279 97.346,7.006 97.066,6.812 C96.787,6.621 96.452,6.522 96.06,6.522 C95.555,6.522 95.103,6.661 94.703,6.936 C94.304,7.215 94.028,7.579 93.879,8.035 C93.732,8.49 93.657,9.331 93.657,10.561 L93.657,15.538 L90.75,15.538 L90.75,4.548 L93.449,4.548 L93.449,6.162 C94.41,4.919 95.618,4.297 97.073,4.297 C97.713,4.297 98.303,4.413 98.832,4.643 C99.363,4.876 99.766,5.169 100.037,5.53 C100.31,5.891 100.5,6.296 100.607,6.752 C100.716,7.207 100.769,7.858 100.769,8.706 L100.769,15.538 Z M103.45,16.263 L106.771,16.665 C106.827,17.054 106.955,17.319 107.152,17.464 C107.428,17.672 107.866,17.775 108.456,17.775 C109.216,17.775 109.784,17.662 110.166,17.432 C110.42,17.28 110.614,17.037 110.745,16.697 C110.834,16.457 110.88,16.012 110.88,15.361 L110.88,13.758 C110.011,14.945 108.911,15.538 107.587,15.538 C106.11,15.538 104.941,14.913 104.079,13.666 C103.404,12.677 103.066,11.451 103.066,9.981 C103.066,8.137 103.51,6.731 104.397,5.756 C105.284,4.784 106.386,4.297 107.704,4.297 C109.061,4.297 110.184,4.894 111.067,6.088 L111.067,4.548 L113.787,4.548 L113.787,14.411 C113.787,15.708 113.681,16.676 113.466,17.319 C113.254,17.961 112.953,18.463 112.568,18.831 C112.18,19.194 111.664,19.481 111.022,19.69 C110.374,19.894 109.559,20 108.572,20 C106.708,20 105.387,19.679 104.608,19.043 C103.828,18.403 103.44,17.595 103.44,16.616 C103.44,16.516 103.442,16.4 103.45,16.263 Z M106.047,9.815 C106.047,10.981 106.274,11.836 106.725,12.376 C107.178,12.917 107.732,13.189 108.396,13.189 C109.107,13.189 109.706,12.91 110.197,12.355 C110.686,11.8 110.933,10.977 110.933,9.886 C110.933,8.748 110.696,7.904 110.227,7.352 C109.76,6.798 109.166,6.522 108.449,6.522 C107.75,6.522 107.178,6.795 106.725,7.335 C106.274,7.879 106.047,8.703 106.047,9.815 Z M123.029,12.041 L125.93,12.525 C125.555,13.588 124.969,14.397 124.163,14.952 C123.36,15.51 122.355,15.786 121.147,15.786 C119.234,15.786 117.822,15.164 116.903,13.913 C116.179,12.913 115.816,11.649 115.816,10.126 C115.816,8.303 116.292,6.876 117.246,5.845 C118.195,4.813 119.401,4.297 120.857,4.297 C122.492,4.297 123.781,4.838 124.728,5.918 C125.672,6.999 126.124,8.652 126.085,10.882 L118.797,10.882 C118.818,11.744 119.052,12.415 119.5,12.892 C119.948,13.373 120.511,13.613 121.178,13.613 C121.634,13.613 122.015,13.489 122.326,13.242 C122.637,12.991 122.874,12.592 123.029,12.041 Z M123.195,9.101 C123.174,8.257 122.959,7.618 122.545,7.18 C122.132,6.742 121.627,6.522 121.033,6.522 C120.398,6.522 119.874,6.756 119.461,7.218 C119.047,7.678 118.843,8.307 118.85,9.101 L123.195,9.101 L123.195,9.101 Z" id="Fill-21"></path>
            </g>
            <polygon id="Fill-23" fill="#FFFFFE" points="176.942 13.302 195.17 13.302 195.17 3.177 176.942 3.177"></polygon>
            <polygon id="Fill-24" fill="#FFFFFE" points="199.192 10.802 208.306 10.802 208.306 0.677 199.192 0.677"></polygon>
            <polygon id="Fill-25" fill="#FFFFFE" points="214.692 11.677 223.806 11.677 223.806 1.552 214.692 1.552"></polygon>
            <polygon id="Fill-26" fill="#FFFFFE" points="199.192 56.927 208.306 56.927 208.306 46.802 199.192 46.802"></polygon>
            <polygon id="Fill-27" fill="#FFFFFE" points="214.238 53.552 223.771 53.552 223.771 43.427 214.238 43.427"></polygon>
            <polygon id="Fill-28" fill="#FFFFFE" points="176.953 55.388 195.925 55.388 195.925 44.552 176.953 44.552"></polygon>
            <polygon id="Fill-29" fill="#FFFFFE" points="256.067 12.052 273.559 12.052 273.559 1.927 256.067 1.927"></polygon>
            <polygon id="Fill-30" fill="#FFFFFE" points="256.078 58.888 273.555 58.888 273.555 48.052 256.078 48.052"></polygon>
        </g>
    </g>
</svg>