<?xml version="1.0" encoding="UTF-8" standalone="no"?>
<svg width="500px" height="249px" viewBox="0 0 500 249" version="1.1" xmlns="http://www.w3.org/2000/svg" xmlns:xlink="http://www.w3.org/1999/xlink">
    <!-- Generator: Sketch 3.6.1 (26313) - http://www.bohemiancoding.com/sketch -->
    <title>partner-denimandsteel</title>
    <desc>Created with Sketch.</desc>
    <defs></defs>
    <g id="Page-1" stroke="none" stroke-width="1" fill="none" fill-rule="evenodd">
        <g id="partner-denimandsteel">
            <g id="Group">
                <path d="M38.324424,96.2306452 C38.324424,98.3896313 39.9857143,99.7168203 42.4741935,99.7168203 C48.778341,99.7168203 55.9119816,98.2214286 62.3820276,92.414977 C70.0156682,85.2790323 72.9995392,71.8412442 72.9995392,61.0578341 C72.9995392,43.8020737 69.5156682,33.6822581 60.7230415,25.2214286 C55.0824885,19.7467742 48.278341,18.2513825 43.8013825,18.2513825 C41.6447005,18.2513825 39.9857143,18.4172811 38.824424,18.914977 L38.324424,96.2306452 Z M9.62165899,98.3896313 C9.95345622,98.3896313 10.121659,98.05553 10.121659,97.7214286 L10.2875576,19.7467742 L0.660829493,19.4126728 C0.660829493,14.6016129 0.829032258,9.95645161 0.829032258,5.30898618 C13.10553,4.97718894 27.7092166,4.81359447 41.4788018,4.81359447 C58.7322581,4.81359447 70.5110599,7.46797235 78.8082949,12.1131336 C92.9119816,19.9103687 103.529493,36.5002304 103.529493,54.4195853 C103.529493,77.9794931 92.5801843,95.0693548 79.1423963,104.02788 C69.5156682,110.666129 54.7506912,112.986406 42.9741935,112.986406 C37.497235,112.986406 29.2023041,112.820507 23.559447,112.820507 L0.994930876,112.820507 L0.994930876,99.0509217 L9.62165899,98.3896313 Z" id="Fill-1" fill="#211D1E"></path>
                <path d="M143.00576,56.412212 C141.017281,59.7301843 139.855991,62.8822581 140.021889,69.5182028 C145.828341,69.5182028 153.955069,69.3523041 158.770737,69.1864055 C159.763825,69.1864055 160.259217,68.5251152 160.259217,67.3638249 C160.259217,63.8776498 159.597926,59.3983871 158.270737,56.9099078 C156.943548,53.9237327 154.455069,51.9329493 150.8053,51.9329493 C148.148618,51.9329493 145.328341,52.7601382 143.00576,56.412212 M154.120968,37.9951613 C164.408986,37.9951613 172.208525,41.8108295 176.685484,46.787788 C181.996544,53.0942396 185.146313,61.8868664 185.146313,72.6725806 C184.985023,74.9928571 177.519585,82.1288018 176.190092,82.2947005 C171.708525,82.7900922 154.786866,82.7900922 140.021889,82.7900922 C140.351382,88.2670507 142.34447,91.585023 144.498848,93.5781106 C148.31682,97.2278802 152.62788,97.5573733 156.77765,97.5573733 C164.077189,97.5573733 174.862903,94.9029954 180.169355,92.912212 C181.496544,97.2278802 182.657834,102.536636 183.323733,106.681797 C173.701613,111.163364 159.097926,114.481336 151.137097,114.481336 C129.233871,114.481336 112.314516,103.695622 112.314516,80.1380184 C112.314516,56.5758065 129.233871,37.9951613 154.120968,37.9951613" id="Fill-3" fill="#211D1E"></path>
                <path d="M197.252074,56.5762673 C197.252074,52.0993088 197.417972,47.1200461 197.417972,42.9725806 C205.712903,42.4748848 230.1,38.1615207 231.097696,38.1615207 C231.427189,38.1615207 231.427189,38.3274194 231.427189,38.6592166 C232.258986,42.1430876 232.920276,45.4610599 233.74977,48.9449309 L234.581567,49.1108295 C250.676037,39.3228111 254.325806,37.9956221 261.959447,37.9956221 C269.090783,37.9956221 275.894931,44.4656682 279.212903,49.9403226 C282.367281,55.0854839 283.028571,60.2260369 283.028571,64.7076037 C283.028571,74.1638249 282.696774,87.9334101 282.367281,98.55553 L290.662212,99.0509217 C290.662212,103.36659 290.662212,108.343548 290.494009,112.656912 L269.090783,112.656912 C261.959447,112.656912 254.159908,112.820507 248.353456,112.820507 C248.353456,108.509447 248.519355,103.532488 248.519355,99.2168203 L255.152995,98.7191244 C255.487097,98.7191244 255.818894,98.3873272 255.818894,98.05553 C255.987097,91.2536866 255.818894,81.9633641 255.818894,75.6569124 C255.818894,67.8573733 255.818894,63.8781106 254.491705,61.3896313 C252.832719,58.2375576 250.676037,57.7375576 248.185253,57.7375576 C244.535484,57.7375576 238.892627,60.3919355 234.915668,63.5463134 C234.747465,73.3343318 234.415668,89.0947005 234.415668,98.55553 L241.549309,99.0509217 C241.549309,103.532488 241.549309,108.343548 241.381106,112.656912 L220.643779,112.656912 C213.839631,112.656912 205.212903,112.820507 198.745161,112.820507 C198.745161,108.509447 198.908756,103.532488 198.908756,99.2168203 L207.040092,98.7191244 C207.535484,98.7191244 207.701382,98.3873272 207.701382,98.05553 L207.701382,56.9103687 L197.252074,56.5762673 Z" id="Fill-5" fill="#211D1E"></path>
                <path d="M340.092396,13.4410138 C340.092396,22.4018433 332.958756,28.3718894 324.666129,28.3718894 C317.52788,28.3718894 310.228341,22.2336406 310.228341,13.7728111 C310.228341,6.80276498 316.36659,0.000921658986 325.493318,0.000921658986 C335.115438,0.000921658986 340.092396,6.63686636 340.092396,13.4410138 L340.092396,13.4410138 Z M302.928802,56.7428571 C302.928802,52.0976959 303.0947,46.9548387 303.262903,42.475576 C312.221429,41.8119816 339.097005,37.9940092 340.426498,37.9940092 C340.758295,37.9940092 340.758295,38.162212 340.758295,38.4940092 C340.592396,56.5769585 340.258295,81.9617512 340.258295,98.5539171 L349.385023,99.0493088 L349.385023,112.657604 L326.48871,112.657604 C319.355069,112.657604 310.562442,112.821198 303.924194,112.821198 C303.924194,108.510138 303.924194,103.53318 304.090092,99.2175115 L312.882719,98.7198157 C313.382719,98.7198157 313.546313,98.3880184 313.546313,98.0562212 L313.546313,57.0746544 L302.928802,56.7428571 Z" id="Fill-7" fill="#211D1E"></path>
                <path d="M361.653226,56.412212 C361.653226,52.2647465 361.819124,47.287788 361.987327,42.9721198 C369.618664,42.1449309 394.50576,38.1610599 395.498848,38.1610599 C395.832949,38.1610599 395.998848,38.3269585 395.998848,38.6587558 C396.49424,41.6449309 396.828341,44.7993088 397.49424,47.9490783 L397.989631,48.114977 C413.254608,39.1564516 416.074885,37.9951613 422.874424,37.9951613 C431.669355,37.9951613 438.307604,46.787788 439.800691,48.7785714 L440.62788,48.7785714 C457.054147,39.3223502 460.042627,38.3269585 466.34447,38.3269585 C473.480415,38.3269585 479.286866,42.474424 483.436636,47.7831797 C486.418203,51.5988479 488.579493,57.4076037 488.579493,62.5504608 C488.579493,74.4974654 488.245392,87.9352535 488.079493,98.5550691 L496.706221,98.8868664 C496.706221,103.366129 496.540323,108.177189 496.374424,112.656452 L475.968894,112.656452 C468.998848,112.656452 461.53341,112.820046 455.56106,112.820046 L455.56106,99.0504608 L461.365207,98.5550691 C461.699309,98.5550691 462.031106,98.2232719 462.031106,97.8891705 L462.031106,69.3523041 C462.031106,66.366129 462.031106,63.5481567 460.87212,61.2232719 C459.542627,58.5711982 457.388249,57.5735023 454.39977,57.5735023 C451.084101,57.5735023 446.104839,59.5642857 442.784562,61.7209677 C442.784562,72.3407834 442.455069,88.2670507 442.455069,98.5550691 L449.08871,98.8868664 C449.08871,103.366129 449.08871,108.177189 448.922811,112.656452 L428.185484,112.656452 C422.047235,112.656452 415.243088,112.820046 410.597926,112.820046 L410.597926,99.0504608 L416.570276,98.5550691 C417.070276,98.3891705 417.236175,98.0550691 417.236175,97.7232719 L417.236175,67.693318 C417.236175,64.8753456 417.070276,62.2209677 416.074885,60.225576 C415.079493,57.9029954 413.086406,57.2417051 410.432028,57.2417051 C407.114055,57.2417051 401.8053,59.5642857 398.15553,62.052765 C397.989631,71.8407834 397.821429,88.7647465 397.821429,98.5550691 L404.625576,98.8868664 C404.625576,103.366129 404.625576,108.177189 404.459677,112.656452 L383.056452,112.656452 C376.918203,112.656452 368.791475,112.820046 362.653226,112.820046 C362.653226,108.343088 362.653226,103.20023 362.814516,98.8868664 L371.111751,98.5550691 C371.441244,98.5550691 371.607143,98.2232719 371.607143,97.7232719 L371.607143,56.9099078 L361.653226,56.412212 Z" id="Fill-9" fill="#211D1E"></path>
                <path d="M47.4511521,179.267742 C52.0963134,175.283871 54.9165899,169.977419 54.9165899,163.507373 C54.9165899,159.525806 54.0894009,156.20553 51.6009217,153.880645 C49.7737327,151.726267 46.6239631,151.228571 44.4626728,151.228571 C41.8129032,151.228571 39.1562212,152.389862 37.497235,154.048848 C35.1746544,156.369124 34.5087558,159.025806 34.5087558,161.846083 C34.5087558,168.318433 39.1562212,173.46129 47.4511521,179.267742 L47.4511521,179.267742 Z M65.3705069,226.885253 C56.0778802,217.429032 42.6400922,204.154839 33.8474654,197.848387 C29.8635945,201.498157 27.8751152,206.477419 27.8751152,213.281567 C27.8751152,220.081106 30.6930876,224.562673 34.3474654,227.712442 C37.6631336,230.700922 43.1400922,232.196313 48.6124424,232.196313 C54.5847926,232.196313 60.3935484,230.700922 65.3705069,226.885253 L65.3705069,226.885253 Z M58.7322581,187.564977 C66.7,193.703226 76.8198157,202.82765 83.2875576,209.795392 C86.7737327,206.145622 90.0917051,197.021198 90.0917051,191.878341 C90.0917051,190.882949 90.0917051,190.548848 89.0963134,190.548848 L82.1262673,190.053456 C82.1262673,185.571889 82.2921659,181.590323 82.4580645,177.606452 L102.868203,177.606452 C109.006452,177.606452 115.476498,177.442857 120.621659,177.442857 C120.782949,181.590323 120.782949,186.069585 120.621659,190.053456 L111.990323,190.717051 C107.179263,204.320737 100.706912,214.274654 94.0732719,220.912903 C97.7230415,224.230876 102.034101,228.212442 104.524885,230.700922 C106.017972,232.359908 107.679263,233.023502 109.338249,233.023502 L120.287558,233.189401 C120.287558,237.502765 120.287558,242.15023 120.121659,246.297696 C109.006452,246.96129 95.0686636,247.622581 85.1147465,248.122581 C82.1262673,244.802304 79.1423963,241.318433 75.6585253,237.668664 C67.1930876,243.641014 56.7437788,248.122581 39.324424,248.122581 C31.1907834,248.122581 21.902765,246.96129 15.0986175,243.145622 C4.64470046,237.336866 -0.000460829493,228.54424 -0.000460829493,219.085714 C-0.000460829493,206.311521 9.2921659,194.864516 22.7299539,188.723963 L22.7299539,188.060369 C15.9258065,182.751613 9.7875576,175.617972 9.7875576,166.161751 C9.7875576,159.8553 12.2760369,153.387558 17.9211982,147.910599 C23.3935484,142.435945 33.1861751,137.954378 46.6239631,137.954378 C56.0778802,137.954378 63.543318,139.781567 69.5156682,144.758525 C75.1585253,149.071889 77.6470046,155.04424 77.6470046,160.687097 C77.6470046,171.634101 71.0110599,180.263134 58.7322581,186.901382 L58.7322581,187.564977 Z" id="Fill-11" fill="#B3C7CD"></path>
                <path d="M156.276959,227.382488 C156.442857,227.880184 156.776959,228.709677 157.27235,228.873272 C160.092627,231.032258 164.076498,232.029954 168.226267,232.029954 C172.203226,232.029954 177.018894,231.032258 179.836866,228.709677 C182.325346,226.718894 183.818433,223.732719 183.818433,219.751152 C183.818433,211.453917 179.668664,209.794931 166.730876,204.983871 C149.972811,198.679724 137.032719,188.557604 137.032719,172.299539 C137.032719,162.013825 141.843779,153.387097 148.316129,147.578341 C155.615668,140.942396 167.726267,136.960829 183.652535,136.960829 C193.11106,136.960829 201.905991,138.288018 205.721659,140.112903 C206.717051,150.06682 207.54424,160.352535 208.04424,170.306452 C203.067281,171.138249 196.929032,171.801843 191.117972,172.465438 L187.468203,157.036866 C187.302304,156.370968 187.141014,156.041475 186.806912,155.709677 C184.813825,154.214286 181.664055,153.218894 178.346083,153.218894 C174.364516,153.218894 171.041935,154.048387 168.392166,156.205069 C166.230876,157.864055 163.910599,161.018433 163.910599,165.663594 C163.910599,173.956221 167.558065,175.617512 182.991244,180.928571 C201.240092,187.232719 210.698618,196.520737 210.698618,212.119816 C210.698618,222.571429 206.382949,232.359447 198.417512,238.663594 C190.456682,244.970046 179.507373,248.12212 163.247005,248.12212 C156.276959,248.12212 144.666359,247.292627 137.862212,244.804147 C136.535023,234.35023 135.373733,224.064516 134.212442,213.942396 C139.523502,212.781106 145.98894,211.619816 151.631797,210.958525 L156.276959,227.382488 Z" id="Fill-14" fill="#211D1E"></path>
                <path d="M234.910599,243.1447 C229.599539,238.497235 229.104147,234.683871 229.104147,230.03871 C229.104147,220.746083 229.27235,212.780645 229.27235,210.792166 C229.27235,207.305991 229.438249,190.55023 229.438249,189.054839 L217.823041,189.054839 C217.823041,184.411982 217.98894,179.600922 218.318433,174.953456 C221.63871,174.787558 225.788479,174.289862 229.104147,174.123963 C229.599539,174.123963 230.265438,173.626267 230.265438,172.796774 C230.599539,168.317512 231.094931,163.008756 231.426728,159.024885 C239.887558,154.877419 255.652535,150.066359 256.147926,150.066359 C256.482028,150.066359 256.647926,150.232258 256.647926,150.732258 C256.482028,154.382028 256.316129,169.478802 256.147926,173.958065 C264.608756,173.958065 273.901382,173.792166 281.700922,173.792166 C281.700922,178.603226 281.535023,184.411982 281.035023,189.38894 C274.069585,189.38894 263.781567,189.223041 256.147926,189.223041 L256.147926,202.992627 C255.982028,209.79447 255.982028,215.769124 255.982028,223.234562 C255.982028,227.879724 259.965899,230.702304 263.615668,230.702304 C270.251613,230.702304 276.558065,229.541014 281.700922,228.213825 C282.530415,232.690783 283.196313,237.833641 283.689401,242.149309 C272.074194,246.628571 259.965899,248.121659 247.687097,248.121659 C243.371429,248.121659 239.060369,246.960369 234.910599,243.1447" id="Fill-16" fill="#211D1E"></path>
                <path d="M320.021198,190.052765 C318.032719,193.370737 316.871429,196.522811 317.037327,203.158756 C322.843779,203.158756 330.970507,202.992857 335.786175,202.826959 C336.779263,202.826959 337.274654,202.165668 337.274654,201.004378 C337.274654,197.518203 336.613364,193.03894 335.286175,190.550461 C333.958986,187.564286 331.470507,185.573502 327.820737,185.573502 C325.164055,185.573502 322.343779,186.400691 320.021198,190.052765 M331.136406,171.635714 C341.424424,171.635714 349.223963,175.451382 353.700922,180.428341 C359.011982,186.734793 362.161751,195.527419 362.161751,206.313134 C362.000461,208.63341 354.535023,215.769355 353.20553,215.935253 C348.723963,216.430645 331.802304,216.430645 317.037327,216.430645 C317.36682,221.907604 319.359908,225.225576 321.514286,227.218664 C325.332258,230.868433 329.643318,231.197926 333.793088,231.197926 C341.092627,231.197926 351.878341,228.543548 357.184793,226.552765 C358.511982,230.868433 359.673272,236.177189 360.339171,240.32235 C350.717051,244.803917 336.113364,248.121889 328.152535,248.121889 C306.249309,248.121889 289.329954,237.336175 289.329954,213.778571 C289.329954,190.216359 306.249309,171.635714 331.136406,171.635714" id="Fill-18" fill="#211D1E"></path>
                <path d="M403.465438,190.052765 C401.476959,193.370737 400.315668,196.522811 400.481567,203.158756 C406.288018,203.158756 414.414747,202.992857 419.230415,202.826959 C420.223502,202.826959 420.718894,202.165668 420.718894,201.004378 C420.718894,197.518203 420.057604,193.03894 418.730415,190.550461 C417.403226,187.564286 414.914747,185.573502 411.264977,185.573502 C408.608295,185.573502 405.788018,186.400691 403.465438,190.052765 M414.580645,171.635714 C424.868664,171.635714 432.668203,175.451382 437.145161,180.428341 C442.456221,186.734793 445.605991,195.527419 445.605991,206.313134 C445.4447,208.63341 437.979263,215.769355 436.64977,215.935253 C432.168203,216.430645 415.246544,216.430645 400.481567,216.430645 C400.81106,221.907604 402.804147,225.225576 404.958525,227.218664 C408.776498,230.868433 413.087558,231.197926 417.237327,231.197926 C424.536866,231.197926 435.322581,228.543548 440.629032,226.552765 C441.956221,230.868433 443.117512,236.177189 443.78341,240.32235 C434.16129,244.803917 419.557604,248.121889 411.596774,248.121889 C389.693548,248.121889 372.774194,237.336175 372.774194,213.778571 C372.774194,190.216359 389.693548,171.635714 414.580645,171.635714" id="Fill-20" fill="#211D1E"></path>
                <path d="M451.573502,148.740092 C451.573502,144.260829 451.739401,139.283871 451.907604,134.968203 C461.029724,133.972811 488.075806,130.48894 489.732488,130.48894 C490.064286,130.48894 490.230184,130.654839 490.230184,131.152535 C490.064286,158.694009 489.732488,201.498157 489.568894,232.359908 L499.191014,232.691705 C499.191014,237.173272 499.025115,241.984332 499.025115,246.297696 L475.960599,246.297696 C468.995161,246.297696 460.20023,246.46129 453.234793,246.46129 C453.234793,242.15023 453.396083,237.173272 453.396083,232.857604 L462.356912,232.359908 C462.68871,232.359908 462.854608,232.028111 462.854608,231.530415 L462.854608,149.403687 L451.573502,148.740092 Z" id="Fill-22" fill="#211D1E"></path>
            </g>
        </g>
    </g>
</svg>