<?xml version="1.0" encoding="UTF-8" standalone="no"?>
<svg width="500px" height="191px" viewBox="0 0 500 191" version="1.1" xmlns="http://www.w3.org/2000/svg" xmlns:xlink="http://www.w3.org/1999/xlink">
    <!-- Generator: Sketch 3.6.1 (26313) - http://www.bohemiancoding.com/sketch -->
    <title>partner-hao</title>
    <desc>Created with Sketch.</desc>
    <defs></defs>
    <g id="Page-1" stroke="none" stroke-width="1" fill="none" fill-rule="evenodd">
        <g id="partner-hao">
            <g id="Group" transform="translate(3.000000, 7.000000)">
                <path d="M123.478676,12.65 L123.478676,85.6720588 L15.3904412,85.6647059 L15.3904412,12.65 L0.000735294119,12.65 L0.000735294119,174.944118 L15.3904412,174.944118 L15.3904412,100.627941 L123.478676,100.627941 L123.478676,174.944118 L138.861029,174.944118 L138.861029,12.65 L123.478676,12.65 Z" id="Fill-1" fill="#221F20"></path>
                <path d="M414.069853,162.583824 C373.047794,162.583824 348.525735,127.620588 348.525735,93.8044118 L348.525735,93.3779412 C348.525735,54.3926471 376.518382,25.0176471 413.621324,25.0176471 C454.665441,25.0176471 479.172794,59.9808824 479.172794,93.8044118 L479.172794,94.2235294 C479.172794,133.201471 451.1875,162.583824 414.069853,162.583824 M472.702206,35.3852941 C457.827206,19.0470588 436.908088,10.0470588 413.841912,10.0470588 C390.783088,10.0470588 369.871324,19.0470588 355.003676,35.3852941 C340.900735,50.8411765 333.136029,71.5102941 333.136029,93.5691176 L333.136029,94.025 C333.136029,116.083824 340.900735,136.752941 355.003676,152.223529 C369.871324,168.554412 390.783088,177.547059 413.841912,177.547059 C436.908088,177.547059 457.827206,168.554412 472.702206,152.223529 C486.797794,136.752941 494.569853,116.083824 494.569853,94.025 L494.569853,93.5838235 C494.569853,71.5102941 486.797794,50.8411765 472.702206,35.3852941" id="Fill-2" fill="#221F20"></path>
                <path d="M250.991176,31.2654412 L325.020588,159.486029 L176.961765,159.486029 L250.991176,31.2654412 Z M150.197059,174.956618 L351.792647,174.963971 L250.991176,0.353676471 L150.197059,174.956618 Z" id="Fill-4" fill="#77BC1F"></path>
            </g>
        </g>
    </g>
</svg>