<?xml version="1.0" encoding="UTF-8" standalone="no"?>
<svg width="500px" height="119px" viewBox="0 0 500 119" version="1.1" xmlns="http://www.w3.org/2000/svg" xmlns:xlink="http://www.w3.org/1999/xlink">
    <!-- Generator: Sketch 3.6.1 (26313) - http://www.bohemiancoding.com/sketch -->
    <title>partner-canada</title>
    <desc>Created with Sketch.</desc>
    <defs></defs>
    <g id="Page-1" stroke="none" stroke-width="1" fill="none" fill-rule="evenodd">
        <g id="partner-canada">
            <g id="Group" transform="translate(-1.000000, 0.000000)">
                <path d="M412.261062,5.22123894 C412.261062,4.18141593 412.128319,1.45132743 408.964602,1.49557522 C405.800885,1.53982301 384.783186,2.61946903 383.309735,2.75221239 C381.836283,2.88053097 380.707965,4.3539823 383.265487,4.57079646 C385.823009,4.78761062 397.048673,5.69911504 397.048673,24.2079646 C397.048673,25.4469027 397.137168,95.7743363 397.004425,84.9247788 C397.278761,107.438053 388.597345,115.464602 378.929204,115.433628 C363.716814,115.389381 355.659292,97.1902655 355.659292,79.7654867 C355.659292,60.4380531 366.424779,47.6283186 377.933628,48.300885 C393.619469,49.2212389 396.960177,62.0619469 397.004425,84.880531 L397.066372,47.0044248 C397.132743,51.619469 397.132743,52.2876106 395.053097,50.6858407 C393.349558,49.3716814 385.300885,44.3849558 375.20354,44.3584071 C358.690265,44.3141593 338.40708,56.0884956 338.40708,80.8053097 C338.40708,106.982301 356.955752,119.424779 376.199115,119.424779 C385.561947,119.424779 392.216814,115.234513 394.575221,113.787611 C397.238938,112.159292 397.013274,112.278761 397.504425,114.699115 C397.876106,116.561947 397.654867,119.902655 402.380531,119.424779 C407.747788,118.880531 420.106195,117.345133 422.707965,116.823009 C425.190265,116.327434 424.597345,114.70354 422.358407,114.438053 C420.827434,114.256637 412.261062,115.265487 412.261062,88.7389381 L412.261062,5.22123894" id="Fill-1" fill="#1A1918"></path>
                <path d="M85.8584071,5.93362832 C87.159292,6.38938053 91.1858407,7.9380531 92.4557522,4.92920354 C93.7256637,1.9159292 92.9070796,3.97787611 93.3362832,2.97787611 C93.9690265,1.49557522 96.9513274,0.238938053 97.5309735,3.72123894 C98.1061947,7.19911504 100.154867,37.2787611 100.247788,38.8849558 C100.455752,42.4292035 95.6725664,42.7831858 95.4070796,39.2831858 C95.0575221,34.6460177 85.7743363,4.12389381 60.420354,4.63716814 C37.8230088,5.10176991 22.9380531,31.2433628 23.8141593,65.0442478 C24.6283186,96.6415929 39.8628319,114.053097 64.8495575,113.544248 C88.920354,113.053097 95.6150442,94.7477876 99.159292,83.5486726 C100.632743,78.9070796 104.942478,80.199115 103.933628,84.4380531 C99.4867257,103.119469 85.3628319,118.933628 59.8230088,119.460177 C31.8982301,120.026549 1.77876106,98.9247788 1.01327434,61.6327434 C0.230088496,23.2345133 30.5707965,1 60.5176991,0.384955752 C73.1946903,0.128318584 81.4159292,4.37168142 85.8584071,5.93362832" id="Fill-3" fill="#1A1918"></path>
                <path d="M421.433628,38.5221239 L439.650442,38.5221239 L439.650442,2.09292035 L421.433628,2.09292035 L421.433628,38.5221239 Z" id="Fill-5" fill="#D9222A"></path>
                <path d="M458.575221,35.7300885 C458.575221,35.7300885 458.327434,29.5929204 458.327434,28.9778761 C458.327434,28.3672566 458.845133,28.159292 459.451327,28.2920354 C460.066372,28.4247788 465.800885,29.5929204 465.800885,29.5929204 C465.800885,29.5929204 465.362832,28.3495575 465.057522,27.4292035 C464.752212,26.5132743 465.150442,26.3451327 465.362832,26.1548673 L471.774336,20.6017699 L470.761062,20.1061947 C470.150442,19.8185841 470.243363,19.300885 470.336283,18.960177 L471.455752,15.0309735 C471.455752,15.0309735 468.783186,15.6371681 468.154867,15.7300885 C467.654867,15.8097345 467.486726,15.579646 467.331858,15.2300885 L466.530973,13.3230088 L463.185841,17.0132743 C462.553097,17.5884956 461.942478,17.1460177 462.053097,16.4778761 C462.159292,15.8672566 463.738938,8.61504425 463.738938,8.61504425 C463.738938,8.61504425 462,9.65044248 461.424779,9.99557522 C460.849558,10.3362832 460.544248,10.2787611 460.238938,9.72566372 C459.933628,9.17256637 457.783186,4.87168142 457.783186,4.87168142 L457.792035,4.87168142 C457.792035,4.87168142 455.641593,9.17256637 455.336283,9.72566372 C455.030973,10.2787611 454.725664,10.3362832 454.150442,9.99557522 C453.575221,9.65044248 451.840708,8.61504425 451.840708,8.61504425 C451.840708,8.61504425 453.415929,15.8672566 453.522124,16.4778761 C453.632743,17.1460177 453.022124,17.5884956 452.393805,17.0132743 L449.044248,13.3230088 L448.243363,15.2300885 C448.088496,15.579646 447.915929,15.8097345 447.420354,15.7300885 C446.79646,15.6371681 444.013274,15.0309735 444.013274,15.0309735 L445.234513,18.960177 C445.331858,19.300885 445.424779,19.8185841 444.814159,20.1061947 L443.800885,20.6017699 L450.207965,26.1548673 C450.420354,26.3451327 450.823009,26.5132743 450.517699,27.4292035 C450.207965,28.3495575 449.769912,29.5929204 449.769912,29.5929204 C449.769912,29.5929204 455.50885,28.4247788 456.119469,28.2920354 C456.734513,28.159292 457.247788,28.3672566 457.247788,28.9778761 C457.247788,29.5929204 457,35.7300885 457,35.7300885 L458.575221,35.7300885" id="Fill-6" fill="#D9222A"></path>
                <path d="M476.048673,38.5221239 L494.265487,38.5221239 L494.265487,2.09292035 L476.048673,2.09292035 L476.048673,38.5221239 Z" id="Fill-7" fill="#D9222A"></path>
                <path d="M146.389381,65.3761062 C146.570796,73 145.207965,75.2876106 140.522124,77.6017699 C136.238938,79.7168142 124.225664,81.5 122.699115,81.8495575 C117.853982,82.9513274 104.225664,86.4070796 104.522124,100.690265 C104.818584,114.792035 118.765487,119.557522 128.504425,119.318584 C137.942478,119.09292 143.473451,115.035398 145.938053,113.035398 C147.402655,111.853982 147.274336,112.146018 148.486726,113.504425 C149.840708,115.013274 154.530973,119.513274 165.371681,119.469027 C176.384956,119.424779 178.030973,114.207965 178.668142,112.606195 C179.522124,110.451327 177.216814,109.278761 176.389381,111.225664 C175.00885,114.460177 172.225664,115.327434 170.318584,115.314159 C168.199115,115.292035 161.951327,114.787611 161.90708,98.6769912 C161.90708,98.6769912 161.89823,65.4823009 161.893805,63.5486726 C161.893805,52.7256637 153.632743,43.880531 131.774336,43.880531 C108.252212,43.880531 108.132743,55.4690265 107.977876,58.340708 C107.80531,61.5929204 109.50885,65.0265487 115.424779,65.0442478 C120.752212,65.0619469 122.013274,59.2699115 122.765487,57.0575221 C123.553097,54.7433628 123.712389,47.5929204 133.216814,47.7433628 C141.340708,47.7433628 146.367257,54.8893805 146.367257,65.0752212 L146.539823,95.800885 C146.539823,106.553097 140.99115,115.123894 132.823009,115.123894 C122.99115,115.097345 120.575221,106.920354 120.477876,103.061947 C120.384956,99.2035398 122.495575,91.1371681 132.199115,85.5309735 C132.199115,85.5309735 136.69469,82.6238938 145.318584,79.3230088 C146.097345,79.1504425 146.451327,79.2876106 146.451327,81.1106195 L146.389381,65.3761062" id="Fill-9" fill="#1A1918"></path>
                <path d="M308.30531,65.3761062 C308.49115,73 307.128319,75.2876106 302.438053,77.6017699 C298.159292,79.7168142 286.141593,81.5 284.619469,81.8495575 C279.769912,82.9513274 266.141593,86.4070796 266.442478,100.690265 C266.738938,114.792035 280.681416,119.557522 290.420354,119.318584 C299.858407,119.09292 305.389381,115.035398 307.858407,113.035398 C309.318584,111.853982 309.190265,112.146018 310.411504,113.504425 C311.756637,115.013274 316.451327,119.513274 327.292035,119.469027 C338.30531,119.424779 339.946903,114.207965 340.588496,112.606195 C341.442478,110.451327 339.137168,109.278761 338.30531,111.225664 C336.929204,114.460177 334.146018,115.327434 332.238938,115.314159 C330.115044,115.292035 323.867257,114.787611 323.823009,98.6769912 C323.823009,98.6769912 323.814159,65.4823009 323.814159,63.5486726 C323.814159,52.7256637 315.553097,43.880531 293.690265,43.880531 C270.168142,43.880531 270.053097,55.4690265 269.89823,58.340708 C269.725664,61.5929204 271.429204,65.0265487 277.345133,65.0442478 C282.672566,65.0619469 283.929204,59.2699115 284.685841,57.0575221 C285.469027,54.7433628 285.632743,47.5929204 295.137168,47.7433628 C303.256637,47.7433628 308.283186,54.8893805 308.283186,65.0752212 L308.460177,95.800885 C308.460177,106.553097 302.911504,115.123894 294.743363,115.123894 C284.911504,115.097345 282.495575,106.920354 282.39823,103.061947 C282.30531,99.2035398 284.415929,91.1371681 294.119469,85.5309735 C294.119469,85.5309735 298.615044,82.6238938 307.238938,79.3230088 C308.017699,79.1504425 308.371681,79.2876106 308.371681,81.1106195 L308.30531,65.3761062" id="Fill-10" fill="#1A1918"></path>
                <path d="M468.146018,65.3761062 C468.331858,73 466.969027,75.2876106 462.278761,77.6017699 C457.995575,79.7168142 445.982301,81.5 444.460177,81.8495575 C439.610619,82.9513274 425.982301,86.4070796 426.278761,100.690265 C426.579646,114.792035 440.517699,119.557522 450.261062,119.318584 C459.699115,119.09292 465.234513,115.035398 467.699115,113.035398 C469.159292,111.853982 469.026549,112.146018 470.247788,113.504425 C471.597345,115.013274 476.292035,119.513274 487.132743,119.469027 C498.141593,119.424779 499.792035,114.207965 500.429204,112.606195 C501.278761,110.451327 498.973451,109.278761 498.146018,111.225664 C496.765487,114.460177 493.986726,115.327434 492.075221,115.314159 C489.955752,115.292035 483.707965,114.787611 483.668142,98.6769912 C483.668142,98.6769912 483.654867,65.4823009 483.650442,63.5486726 C483.650442,52.7256637 475.389381,43.880531 453.530973,43.880531 C430.00885,43.880531 429.889381,55.4690265 429.738938,58.340708 C429.561947,61.5929204 431.269912,65.0265487 437.181416,65.0442478 C442.513274,65.0619469 443.769912,59.2699115 444.522124,57.0575221 C445.309735,54.7433628 445.473451,47.5929204 454.977876,47.7433628 C463.097345,47.7433628 468.123894,54.8893805 468.123894,65.0752212 L468.29646,95.800885 C468.29646,106.553097 462.747788,115.123894 454.584071,115.123894 C444.752212,115.097345 442.331858,106.920354 442.238938,103.061947 C442.146018,99.2035398 444.252212,91.1371681 453.955752,85.5309735 C453.955752,85.5309735 458.455752,82.6238938 467.075221,79.3230088 C467.853982,79.1504425 468.212389,79.2876106 468.212389,81.1106195 L468.146018,65.3761062" id="Fill-11" fill="#1A1918"></path>
                <path d="M237.90708,100.057522 C237.911504,112.128319 234.39823,116.039823 230.283186,116.853982 C226.473451,117.610619 227.287611,119.446903 229.066372,119.438053 C229.858407,119.433628 261.40708,119.473451 261.451327,119.469027 C264.097345,119.469027 265.915929,117.769912 261.225664,116.699115 C258.358407,116.048673 253.575221,112.787611 253.570796,97.6106195 L253.504425,69.539823 C253.451327,62.8362832 254.199115,45.920354 227.827434,45.920354 C214.353982,45.920354 206.469027,52.7522124 205.685841,53.3584071 C204.473451,54.300885 203.951327,54.7477876 203.415929,52.960177 C203.004425,51.5973451 202.287611,49.3185841 201.880531,48.1371681 C201.477876,46.9557522 200.982301,45.960177 198.420354,46.3185841 C195.858407,46.6769912 180.49115,49.1061947 177.938053,49.7433628 C175.384956,50.3761062 176.061947,51.4557522 177.911504,51.7654867 C179.761062,52.0707965 188.030973,52.7433628 187.982301,67.0840708 C187.933628,81.4247788 187.969027,97.0884956 187.969027,97.0884956 C188.048673,114.393805 184.380531,115.99115 181.181416,116.871681 C177.017699,118.017699 178.960177,119.469027 180.951327,119.469027 C181,119.473451 212.026549,119.451327 212.818584,119.438053 C214.946903,119.402655 215.884956,117.482301 211.60177,116.769912 C207.464602,116.079646 203.539823,113.646018 203.632743,100.057522 C203.641593,98.7168142 203.632743,83.6415929 203.597345,80.8982301 C203.495575,73.6946903 201.800885,51.0752212 222.19469,50.880531 C236.424779,50.420354 237.79646,62.3097345 237.876106,70.2123894 L237.90708,100.057522" id="Fill-12" fill="#1A1918"></path>
            </g>
        </g>
    </g>
</svg>