<?xml version="1.0" encoding="UTF-8" standalone="no"?>
<svg width="500px" height="91px" viewBox="0 0 500 91" version="1.1" xmlns="http://www.w3.org/2000/svg" xmlns:xlink="http://www.w3.org/1999/xlink">
    <!-- Generator: Sketch 3.6.1 (26313) - http://www.bohemiancoding.com/sketch -->
    <title>partner-megaphone</title>
    <desc>Created with Sketch.</desc>
    <defs></defs>
    <g id="Page-1" stroke="none" stroke-width="1" fill="none" fill-rule="evenodd">
        <g id="partner-megaphone" fill="#221F20">
            <g id="Group" transform="translate(1.000000, 2.000000)">
                <path d="M0.00263157895,38.0701754 L0.00263157895,40.3479532 L0.00263157895,40.3684211 L0.00263157895,47.2748538 L0.00263157895,47.2807018 L0.0260233918,50.2397661 L45.5640351,74.9795322 L45.5289474,13.3362573 L0.00263157895,38.0701754 Z" id="Fill-1"></path>
                <path d="M77.5596491,15.4581871 C76.577193,11.4640351 74.6590643,5.77690058 73.9807018,3.8002924 L73.9836257,3.79444444 L73.9251462,3.63947368 C73.8081871,3.29736842 73.7321637,3.08391813 73.7321637,3.08391813 C73.705848,3.00497076 73.6649123,2.9377193 73.6298246,2.86754386 L72.8871345,0.926023392 L60.7584795,7.55467836 L61.9923977,11.3821637 L61.9953216,11.3792398 C62.7204678,13.7505848 64.1269006,18.5078947 64.8783626,22.0868421 C64.8812865,22.1102339 64.8871345,22.1277778 64.8900585,22.1511696 L64.819883,22.1804094 C66.3988304,29.3733918 67.1883041,36.5663743 67.1883041,43.7564327 C67.1883041,49.2330409 66.697076,54.8704678 65.7292398,60.6511696 C65.4660819,62.1804094 65.1736842,63.7038012 64.8374269,65.230117 L64.8725146,65.2447368 C64.8666667,65.2710526 64.8637427,65.2944444 64.8578947,65.3236842 C64.1122807,68.8792398 62.7233918,73.5839181 61.9923977,75.972807 L60.7584795,79.8002924 L72.8871345,86.4318713 L73.6005848,84.5663743 C73.6385965,84.4874269 73.6824561,84.4143275 73.7146199,84.3266082 C73.7146199,84.3266082 73.7964912,84.095614 73.9280702,83.7125731 L73.9836257,83.5605263 L73.9807018,83.5576023 C74.6766082,81.5342105 76.5684211,75.9143275 77.5391813,71.9523392 C77.6502924,71.4991228 77.7467836,71.0459064 77.8491228,70.5897661 L77.8754386,70.601462 C79.9192982,61.8353801 80.9426901,52.855848 80.9426901,43.6599415 C80.9426901,34.0254386 79.8140351,24.6248538 77.5596491,15.4581871" id="Fill-2"></path>
                <path d="M102.45614,2.03070175 L117.076023,2.03070175 L121.997076,21.5745614 C123.134503,25.9663743 124.497076,32.4809942 125.02924,36.7207602 C125.710526,32.4049708 127.30117,25.9663743 128.435673,21.6476608 L133.663743,2.03070175 L147.979532,2.03070175 L152.447368,54.8230994 L140.175439,54.8230994 L138.736842,32.7061404 C138.435673,28.2383041 137.979532,21.3464912 137.827485,17.255848 C137.222222,21.4225146 135.859649,27.7090643 134.874269,32.1008772 L129.80117,54.8230994 L119.649123,54.8230994 L114.652047,32.1769006 C113.666667,27.7090643 112.22807,21.4225146 111.622807,17.255848 C111.47076,21.4225146 111.24269,28.3143275 111.01462,32.7061404 L109.652047,54.8230994 L97.9883041,54.8230994 L102.45614,2.03070175 Z" id="Fill-4"></path>
                <path d="M157.674854,2.03070175 L188.502339,2.03070175 L187.669006,12.1798246 L170.247953,12.1798246 L170.247953,22.4049708 L184.411696,22.4049708 L184.411696,32.252924 L170.247953,32.252924 L170.247953,44.5979532 L189.487719,44.5979532 L189.487719,54.8230994 L157.674854,54.8230994 L157.674854,2.03070175 Z" id="Fill-7"></path>
                <path d="M192.367251,28.6918129 C192.367251,10.8175439 200.697661,1.19766082 215.77076,1.19766082 C222.81462,1.19766082 228.194737,3.62163743 231.981287,6.80292398 L226.452047,15.8906433 C223.723977,13.3906433 220.618713,11.4988304 215.922807,11.4988304 C208.574854,11.4988304 205.621637,16.1187135 205.621637,28.1625731 C205.621637,40.9637427 208.501754,46.0368421 215.469591,46.0368421 C217.74152,46.0368421 219.408187,45.6596491 220.77076,44.9783626 L220.77076,34.9023392 L213.802924,34.9023392 L213.045614,25.0573099 L232.662573,25.0573099 L232.662573,51.1128655 C227.58655,54.294152 221.75614,55.7327485 215.697661,55.7327485 C200.396491,55.7327485 192.367251,46.7181287 192.367251,28.6918129" id="Fill-8"></path>
                <path d="M250.689474,42.7807018 L247.660234,54.8245614 L235.616374,54.8245614 L251.750877,2.02923977 L264.85614,2.02923977 L280.233333,54.8245614 L266.747953,54.8245614 L263.87076,42.7807018 L250.689474,42.7807018 Z M261.9,34.2982456 L260.689474,29.374269 C259.630994,25.0555556 258.189474,19.1491228 257.581287,14.9064327 C256.826901,19.1491228 255.309357,25.1315789 254.174854,29.374269 L252.812281,34.2982456 L261.9,34.2982456 Z" id="Fill-10"></path>
                <path d="M283.715789,2.03070175 L300.683626,2.03070175 C314.771345,2.03070175 320.905848,7.17982456 320.905848,18.7704678 C320.905848,29.752924 314.090058,35.7383041 300.984795,35.7383041 L296.288889,35.7383041 L296.288889,54.8230994 L283.715789,54.8230994 L283.715789,2.03070175 Z M300.151462,27.0277778 C306.136842,27.0277778 308.712865,24.4517544 308.712865,18.8464912 C308.712865,13.5423977 305.984795,11.0453216 300.151462,11.0453216 L296.060819,11.0453216 L296.060819,27.0277778 L300.151462,27.0277778 Z" id="Fill-12"></path>
                <path d="M325.52807,2.03070175 L338.10117,2.03070175 L338.10117,21.875731 L351.051462,21.875731 L351.051462,2.03070175 L363.627485,2.03070175 L363.627485,54.8230994 L351.051462,54.8230994 L351.051462,32.0248538 L338.10117,32.0248538 L338.10117,54.8230994 L325.52807,54.8230994 L325.52807,2.03070175 Z" id="Fill-15"></path>
                <path d="M368.853509,29.0701754 C368.853509,12.4824561 376.274561,1.11988304 391.201462,1.11988304 C405.818421,1.11988304 413.39152,11.8011696 413.39152,27.7836257 C413.39152,46.1871345 406.119591,55.7309942 391.201462,55.7309942 C376.806725,55.7309942 368.853509,45.505848 368.853509,29.0701754 M399.833041,28.3888889 C399.833041,15.3596491 397.561111,10.8918129 391.201462,10.8918129 C384.683918,10.8918129 382.411988,15.9649123 382.411988,28.3128655 C382.411988,41.7192982 384.911988,45.9619883 391.201462,45.9619883 C397.637135,45.9619883 399.833041,42.0233918 399.833041,28.3888889" id="Fill-16"></path>
                <path d="M418.541228,2.03070175 L430.585088,2.03070175 L441.415497,24.6038012 C442.552924,27.0277778 445.052924,32.7061404 446.56462,36.7207602 C446.114327,31.9488304 445.959357,26.495614 445.959357,22.1798246 L445.959357,2.03070175 L457.55,2.03070175 L457.55,54.8230994 L445.582164,54.8230994 L434.599708,32.0248538 C432.552924,27.7850877 431.038304,23.9195906 429.371637,19.9049708 C429.906725,24.6798246 430.055848,30.1330409 430.055848,34.5248538 L430.055848,54.8230994 L418.541228,54.8230994 L418.541228,2.03070175 Z" id="Fill-18"></path>
                <path d="M464.368421,2.03070175 L495.195906,2.03070175 L494.362573,12.1798246 L476.94152,12.1798246 L476.94152,22.4049708 L491.105263,22.4049708 L491.105263,32.252924 L476.94152,32.252924 L476.94152,44.5979532 L496.181287,44.5979532 L496.181287,54.8230994 L464.368421,54.8230994 L464.368421,2.03070175 Z" id="Fill-21"></path>
                <path d="M109.77193,81.2847953 C108.862573,82.2175439 107.377193,83.0362573 105.318713,83.0362573 C102.614035,83.0362573 100.362573,81.1912281 100.362573,77.9573099 C100.362573,74.7292398 102.517544,72.8578947 105.318713,72.8578947 C107.497076,72.8578947 109.269006,74.1736842 109.581871,74.580117 L110.777778,71.3725146 C110.347953,70.9192982 108.502924,69.5099415 105.102339,69.5099415 C100.292398,69.5099415 96.4356725,72.694152 96.4356725,78.0304094 C96.4356725,83.3432749 100.24269,86.5538012 105.102339,86.5538012 C108.479532,86.5538012 110.22807,85.1619883 111.064327,84.3023392 L109.77193,81.2847953 Z M136.80117,69.7467836 L132.923977,69.7467836 L132.923977,76.1385965 L126.292398,76.1385965 L126.292398,69.7467836 L122.412281,69.7467836 L122.412281,86.2643275 L126.292398,86.2643275 L126.292398,79.3491228 L132.923977,79.3491228 L132.923977,86.2643275 L136.80117,86.2643275 L136.80117,69.7467836 Z M158.038012,69.7233918 L154.01462,69.7233918 L147.789474,86.2643275 L151.812865,86.2643275 L152.98538,82.9368421 L158.874269,82.9368421 L160.046784,86.2643275 L164.260234,86.2643275 L158.038012,69.7233918 Z M153.871345,79.9192982 L155.929825,73.9865497 L157.988304,79.9192982 L153.871345,79.9192982 Z M190.190058,69.7467836 L186.406433,69.7467836 L186.406433,77.2380117 C186.406433,78.9894737 186.479532,80.8578947 186.479532,80.8578947 L179.391813,69.7467836 L175.248538,69.7467836 L175.248538,86.2643275 L179.032164,86.2643275 L179.032164,78.7935673 C179.032164,77.0508772 178.961988,75.0596491 178.961988,75.0596491 L186.216374,86.2643275 L190.190058,86.2643275 L190.190058,69.7467836 Z M217.888889,76.8549708 L210.634503,76.8549708 L210.634503,79.7994152 L214.105263,79.7994152 L214.105263,82.2438596 C214.105263,82.2438596 213.339181,83.2964912 210.657895,83.2964912 C207.976608,83.2964912 205.871345,81.3578947 205.871345,78.0070175 C205.871345,74.6532164 207.929825,72.7146199 210.587719,72.7146199 C212.836257,72.7146199 214.128655,73.8403509 214.824561,74.6093567 L217.385965,72.3783626 C216.859649,71.8081871 214.967836,69.5099415 210.587719,69.5099415 C205.964912,69.5099415 201.944444,72.4982456 201.944444,78.0070175 C201.944444,83.5128655 205.964912,86.5304094 210.538012,86.5304094 C215.087719,86.5304094 217.049708,84.445614 217.888889,83.702924 L217.888889,76.8549708 Z M241.087719,83.1298246 L234.023392,83.1298246 L234.023392,79.2964912 L240.488304,79.2964912 L240.488304,76.2116959 L234.023392,76.2116959 L234.023392,72.8345029 L240.871345,72.8345029 L240.871345,69.7467836 L230.169591,69.7467836 L230.169591,86.2643275 L241.087719,86.2643275 L241.087719,83.1298246 Z M278.339181,69.7467836 L265.938596,69.7467836 L265.938596,72.8140351 L270.19883,72.8140351 L270.19883,86.2643275 L274.078947,86.2643275 L274.078947,72.8140351 L278.339181,72.8140351 L278.339181,69.7467836 Z M303.906433,69.7467836 L300.02924,69.7467836 L300.02924,76.1385965 L293.394737,76.1385965 L293.394737,69.7467836 L289.520468,69.7467836 L289.520468,86.2643275 L293.394737,86.2643275 L293.394737,79.3491228 L300.02924,79.3491228 L300.02924,86.2643275 L303.906433,86.2643275 L303.906433,69.7467836 Z M325.143275,69.7233918 L321.119883,69.7233918 L314.897661,86.2643275 L318.918129,86.2643275 L320.090643,82.9368421 L325.982456,82.9368421 L327.154971,86.2643275 L331.368421,86.2643275 L325.143275,69.7233918 Z M320.976608,79.9192982 L323.035088,73.9865497 L325.096491,79.9192982 L320.976608,79.9192982 Z M351.190058,69.7467836 L338.789474,69.7467836 L338.789474,72.8140351 L343.049708,72.8140351 L343.049708,86.2643275 L346.929825,86.2643275 L346.929825,72.8140351 L351.190058,72.8140351 L351.190058,69.7467836 Z M394.690058,69.7467836 L391.842105,80.8783626 L388.850877,69.7467836 L384.97076,69.7467836 L382.002924,80.8783626 L379.128655,69.7467836 L375.084795,69.7467836 L379.871345,86.2643275 L383.77193,86.2643275 L386.909357,74.9397661 L390.046784,86.2643275 L393.950292,86.2643275 L398.736842,69.7467836 L394.690058,69.7467836 Z M425.959064,78.0304094 C425.959064,72.694152 422.102339,69.4836257 417.195906,69.4836257 C412.283626,69.4836257 408.432749,72.694152 408.432749,78.0304094 C408.432749,83.3695906 412.283626,86.5538012 417.195906,86.5538012 C422.102339,86.5538012 425.959064,83.3695906 425.959064,78.0304094 L425.959064,78.0304094 Z M422.02924,77.9339181 C422.02924,81.0976608 419.950292,83.1035088 417.195906,83.1035088 C414.44152,83.1035088 412.359649,81.0976608 412.359649,77.9339181 C412.359649,74.7730994 414.44152,72.7877193 417.195906,72.7877193 C419.950292,72.7877193 422.02924,74.7964912 422.02924,77.9339181 L422.02924,77.9339181 Z M446.596491,79.4426901 C447.815789,79.0596491 449.824561,77.8374269 449.824561,74.7 C449.824561,73.0508772 449.108187,71.7321637 448.008772,70.9192982 C446.929825,70.1298246 445.494152,69.7467836 443.649123,69.7467836 L437.71345,69.7467836 L437.71345,86.2643275 L441.590643,86.2643275 L441.590643,79.9426901 L442.812865,79.9426901 L446.280702,86.2643275 L450.780702,86.2643275 L446.596491,79.4426901 Z M445.921053,74.8461988 C445.921053,75.7087719 445.590643,76.1619883 445.087719,76.5216374 C444.608187,76.8783626 443.98538,76.9748538 443.099415,76.9748538 L441.567251,76.9748538 L441.567251,72.7380117 L443.099415,72.7380117 C443.98538,72.7380117 444.608187,72.8140351 445.087719,73.1707602 C445.590643,73.5304094 445.921053,74.0099415 445.921053,74.8461988 L445.921053,74.8461988 Z M469.385965,76.3315789 L475.204678,69.7467836 L470.608187,69.7467836 L465.508772,75.7789474 L465.508772,69.7467836 L461.654971,69.7467836 L461.654971,86.2643275 L465.508772,86.2643275 L465.508772,80.8315789 L466.824561,79.3725146 L470.967836,86.2643275 L475.611111,86.2643275 L469.385965,76.3315789 Z M497.204678,81.2380117 C497.204678,79.7555556 496.605263,78.7497076 495.912281,78.0567251 C495.172515,77.3140351 494.070175,76.8783626 493.614035,76.7146199 C493.087719,76.4953216 491.868421,76.0684211 491.149123,75.7789474 C490.406433,75.4953216 489.473684,75.1122807 489.473684,74.1064327 C489.473684,73.0976608 490.380117,72.6181287 491.628655,72.6181287 C492.874269,72.6181287 494.356725,73.3374269 495.315789,74.2935673 L496.964912,71.5918129 C495.842105,70.4660819 493.640351,69.5538012 491.722222,69.5538012 C489.809942,69.5538012 488.30117,70.0830409 487.365497,70.8695906 C486.409357,71.6590643 485.640351,72.9076023 485.640351,74.4894737 C485.640351,76.0421053 486.216374,76.9982456 486.935673,77.6736842 C487.654971,78.3637427 488.491228,78.6766082 488.897661,78.8695906 C489.450292,79.1093567 490.692982,79.5362573 491.412281,79.7994152 C492.131579,80.0625731 493.350877,80.4953216 493.350877,81.6210526 C493.350877,82.7204678 492.394737,83.319883 491.149123,83.319883 C489.880117,83.319883 488.038012,82.4807018 486.839181,81.2380117 L484.923977,84.0625731 C486.266082,85.3081871 488.394737,86.5538012 490.789474,86.5538012 C492.561404,86.5538012 494.093567,86.1210526 495.263158,85.1912281 C496.464912,84.2555556 497.204678,82.8169591 497.204678,81.2380117 L497.204678,81.2380117 Z" id="Fill-22"></path>
            </g>
        </g>
    </g>
</svg>