<?xml version="1.0" encoding="UTF-8" standalone="no"?>
<svg width="500px" height="296px" viewBox="0 0 500 296" version="1.1" xmlns="http://www.w3.org/2000/svg" xmlns:xlink="http://www.w3.org/1999/xlink">
    <!-- Generator: Sketch 3.6.1 (26313) - http://www.bohemiancoding.com/sketch -->
    <title>partner-centralcity</title>
    <desc>Created with Sketch.</desc>
    <defs></defs>
    <g id="Page-1" stroke="none" stroke-width="1" fill="none" fill-rule="evenodd">
        <g id="partner-centralcity">
            <path d="M231.183397,39.4982824 C237.88187,35.7101145 245.748282,33.8437023 253.931489,33.8437023 C261.026908,33.8437023 270.295992,35.423855 277.778817,40.1528626 C285.080344,44.8837786 287.442939,50.2062977 289.416221,54.1490458 L335.549809,45.8704198 C334.729198,43.496374 333.255916,37.8131679 325.656679,30.4944656 C318.074618,23.1757634 301.221565,15.9085878 282.891412,15.9085878 C260.885687,15.9085878 242.563168,24.8265267 231.183397,39.4982824 L231.183397,39.4982824 Z" id="Fill-1" fill="#6973AF"></path>
            <path d="M203.83874,76.823855 C203.83874,36.0146947 235.93416,5.54141221 277.825382,3.59103053 C270.462786,2.52423664 262.180344,1.90782443 252.747137,1.90782443 C173.499046,1.90782443 159.306298,50.5986641 159.306298,77.6082061 C159.306298,115.852481 182.960878,137.736069 211.546756,146.608206 C224.357824,150.552863 237.764313,151.73416 251.371183,151.73416 C258.985687,151.73416 266.686069,151.291412 274.208969,150.239885 C224.367366,146.589122 203.83874,108.507061 203.83874,76.823855" id="Fill-3" fill="#133D8C"></path>
            <path d="M290.596374,97.1257634 C289.012405,101.265076 287.054389,105.799427 280.542939,111.121947 C273.254771,117.037977 263.195611,120.385305 252.355916,120.385305 C243.97042,120.385305 236.983779,118.494084 231.289122,115.299427 C242.214695,129.162023 259.859733,138.329962 282.892176,138.329962 C304.678435,138.329962 322.682252,128.387214 328.52958,121.864313 C334.375,115.343321 336.537214,107.179198 338.111641,102.055153 L290.596374,97.1257634 Z" id="Fill-6" fill="#6973AF"></path>
            <path d="M17.1755725,218.606298 C17.1755725,225.564313 21.269084,232.785687 30.7061069,232.785687 C34.2824427,232.785687 37.6030534,231.68645 40.0057252,229.724618 C42.1564885,227.97271 42.8091603,226.478435 43.3301527,225.108206 L59.0057252,226.732252 C58.4866412,228.430725 57.898855,230.113931 56.4045802,232.463168 C51.0038168,240.785687 40.4637405,243.134924 30.3778626,243.134924 C25.889313,243.134924 21.4675573,242.745611 17.240458,241.444084 C7.80534351,238.510878 0,231.295229 0,218.671183 C0,209.758969 4.68320611,193.690267 30.8358779,193.690267 C53.1526718,193.690267 56.6622137,203.833397 58.1583969,208.195992 L42.9351145,210.928817 C42.2862595,209.631107 41.5057252,207.873473 39.0973282,206.310496 C36.6240458,204.745611 33.5687023,204.228435 31.2251908,204.228435 C23.8091603,204.228435 17.1755725,208.846756 17.1755725,218.606298" id="Fill-8" fill="#133D8C"></path>
            <path d="M94.7879771,220.490458 C94.2669847,219.187023 93.9444656,218.215649 92.3166031,216.84542 C90.2326336,215.162214 87.6276718,214.891221 86.0017176,214.891221 C79.4979008,214.891221 77.8681298,218.935115 77.2211832,220.490458 L94.7879771,220.490458 Z M76.7020992,226.479008 C77.9368321,232.532443 83.335687,233.833969 86.2631679,233.833969 C88.0875954,233.833969 89.7116412,233.375954 90.8185115,232.921756 C92.446374,232.263359 93.095229,231.618321 94.0074427,230.706107 L110.009351,231.482824 C109.16584,233.041985 107.473092,236.303435 102.725,238.906489 C96.7383588,242.156489 88.5456107,242.545802 85.5513359,242.545802 C80.9921756,242.545802 76.4387405,241.959924 72.2116412,240.276718 C65.5742366,237.604962 60.826145,232.263359 60.826145,224.194656 C60.826145,219.646947 62.4540076,216.068702 64.2765267,213.791985 C70.1314885,206.30916 80.4730916,206.116412 85.614313,206.116412 C92.5742366,206.116412 100.450191,207.087786 105.782252,212.55916 C110.599046,217.429389 110.787977,222.637405 110.919656,226.479008 L76.7020992,226.479008 Z" id="Fill-10" fill="#133D8C"></path>
            <path d="M130.633779,211.444084 C134.406679,208.718893 138.504008,206.438359 145.597519,206.438359 C150.213931,206.438359 153.337977,207.155916 156.200573,208.846756 C161.53645,211.966985 161.860878,216.583397 161.860878,223.417366 L161.860878,241.570038 L146.442939,241.570038 L146.442939,225.825763 C146.442939,223.550954 146.31126,222.316221 146.053626,221.404008 C144.946756,217.430725 141.500191,216.262786 138.637595,216.262786 C136.752099,216.262786 134.925763,216.718893 133.496374,217.886832 C130.698664,220.167366 130.633779,223.161641 130.633779,226.215076 L130.633779,241.570038 L115.150954,241.570038 L115.150954,207.087214 L130.633779,207.087214 L130.633779,211.444084 Z" id="Fill-12" fill="#133D8C"></path>
            <path d="M183.98416,208.51813 L189.573855,208.51813 L189.573855,217.430344 L184.047137,217.430344 L184.047137,228.752863 C184.176908,231.813931 185.671183,231.813931 189.640649,231.813931 L189.640649,241.569656 L179.81813,241.569656 C174.806679,241.443702 172.140649,241.115458 170.125382,239.16126 C168.62729,237.281489 168.694084,235.516221 168.62729,233.764313 L168.694084,231.42271 L168.884924,217.430344 L164.073855,217.430344 L164.073855,208.51813 L169.02042,208.51813 L169.152099,196.880725 L183.98416,196.880725 L183.98416,208.51813 Z" id="Fill-14" fill="#133D8C"></path>
            <path d="M209.029198,212.558588 C210.199046,210.732252 211.825,209.236069 213.779198,208.195992 C216.641794,206.63874 218.983397,206.503244 220.935687,206.438359 L220.935687,220.035687 C219.76584,219.905916 218.590267,219.772328 217.292557,219.772328 C213.191412,219.772328 211.567366,220.692176 210.588359,221.596756 C209.094084,222.959351 209.029198,224.591031 208.962405,226.155916 L208.962405,241.570038 L193.674237,241.570038 L193.674237,207.087214 L209.029198,207.087214 L209.029198,212.558588 Z" id="Fill-16" fill="#133D8C"></path>
            <path d="M243.315076,226.342366 C241.103244,226.542748 237.070802,226.933969 237.070802,229.99313 C237.070802,231.033206 237.847519,233.44542 242.467748,233.44542 C245.005916,233.44542 247.545992,232.785115 249.754008,231.481679 C252.878053,229.724046 253.397137,227.645802 253.851336,225.766031 C251.316985,225.893893 245.920038,226.08855 243.315076,226.342366 L243.315076,226.342366 Z M223.019275,217.88626 C223.408588,215.678244 224.12042,211.645802 228.288359,209.109542 C231.540267,207.155344 237.525,205.920611 245.660496,205.920611 C252.553626,205.920611 259.12042,206.502672 262.893321,208.384351 C268.48874,211.054198 268.48874,216.19542 268.48874,218.544656 L268.48874,236.558015 C268.559351,239.227863 268.879962,240.208779 270.376145,241.632443 L254.439122,241.632443 C254.049809,240.277481 253.986832,239.880534 253.851336,238.315649 C249.883779,240.008397 243.96584,242.609542 236.746374,242.609542 C232.843702,242.609542 228.740649,241.960687 225.618511,239.550382 C222.952481,237.603817 221.58416,234.806107 221.58416,231.550382 C221.58416,229.538931 222.170038,227.256489 223.408588,225.565649 C224.51355,224.075191 226.528817,222.569466 229.521183,221.666794 C235.246374,219.905344 246.112786,219.712595 253.589885,219.577099 C253.589885,218.670611 253.589885,217.766031 252.813168,216.785115 C252.22729,216.067557 250.927672,214.771756 246.177672,214.771756 C245.395229,214.771756 242.98874,214.891985 241.295992,215.288931 C238.565076,215.941603 238.177672,216.974046 237.788359,217.88626 L223.019275,217.88626 Z" id="Fill-18" fill="#133D8C"></path>
            <path d="M275.001908,241.568702 L290.410305,241.568702 L290.410305,195.637405 L275.001908,195.637405 L275.001908,241.568702 Z" id="Fill-20" fill="#133D8C"></path>
            <path d="M394.395229,224.84771 C392.065076,228.987023 389.658588,233.122519 383.618511,236.912595 C376.12042,241.660687 366.462023,243.032824 359.133779,243.032824 C334.397137,243.032824 322.154771,228.81145 322.154771,210.706489 C322.154771,196.317176 329.315076,189.672137 333.456298,186.570992 C336.032634,184.504198 343.282634,178.90687 358.879962,178.90687 C363.280725,178.90687 373.885687,179.504198 382.07271,184.591985 C388.542176,188.637786 391.549809,193.725573 393.187214,196.492748 L383.885687,198.559542 C382.504008,196.141603 381.038359,193.557634 377.242557,191.055725 C373.534542,188.637786 366.986832,186.49084 359.22729,186.49084 C344.744466,186.49084 331.295992,193.296183 331.295992,210.448855 C331.295992,216.49084 333.026908,222.691221 337.587977,227.779008 C341.723473,232.000382 348.795992,235.53855 359.744466,235.53855 C369.139504,235.618702 375.42958,233.208397 379.133779,230.275191 C382.408588,227.866794 384.395229,224.758015 385.269275,222.95458 L394.395229,224.84771 Z" id="Fill-22" fill="#133D8C"></path>
            <path d="M403.616412,241.570611 L411.805344,241.570611 L411.805344,199.503817 L403.616412,199.503817 L403.616412,241.570611 Z M403.53626,192.438931 L411.635496,192.438931 L411.635496,184.15458 L403.53626,184.15458 L403.53626,192.438931 Z" id="Fill-23" fill="#133D8C"></path>
            <path d="M426.381298,185.026718 L434.480534,185.026718 L434.480534,199.416031 L446.287786,199.416031 L446.287786,205.10687 L434.394656,205.10687 L434.314504,227.69084 C434.394656,231.914122 434.314504,235.020992 440.079771,235.020992 C442.058779,235.020992 443.791603,234.759542 446.032061,234.330153 L446.032061,241.570611 C443.35458,241.833969 440.690458,242.167939 437.925191,242.167939 C426.381298,242.167939 426.463359,236.398855 426.381298,230.020992 L426.381298,205.020992 L419.133206,205.10687 L419.133206,199.416031 L426.381298,199.416031 L426.381298,185.026718 Z" id="Fill-24" fill="#133D8C"></path>
            <path d="M447.239504,199.416031 L456.541031,199.416031 L473.010496,233.375954 L490.079198,199.416031 L499.218511,199.416031 L475.428435,245.618321 C472.668893,250.967557 469.642176,256.223282 459.817748,256.223282 C456.462786,256.223282 453.266221,255.711832 449.823473,255.188931 L449.823473,247.860687 C452.500954,248.383588 455.596374,249.074427 458.441794,249.074427 C464.476145,249.074427 466.460878,245.791985 468.615458,241.833969 L447.239504,199.416031 Z" id="Fill-25" fill="#133D8C"></path>
            <path d="M80.6045802,258.101145 L112.144656,258.101145 L112.144656,262.370229 L85.5339695,262.370229 L85.5339695,273.791985 L111.144656,273.791985 L111.144656,278.020992 L85.5339695,278.020992 L85.5339695,293.618321 L80.6045802,293.618321 L80.6045802,258.101145 Z" id="Fill-26" fill="#EE3423"></path>
            <path d="M120.10687,281.490076 C120.10687,286.724809 124.734733,290.396565 131.627863,290.396565 C137.358779,290.396565 142.543893,287.028244 142.543893,281.444275 C142.543893,275.75916 137.561069,272.287786 131.022901,272.383206 C123.879771,272.490076 120.10687,276.764885 120.10687,281.490076 L120.10687,281.490076 Z M131.274809,268.465267 C139.826336,268.409924 147.372137,272.638931 147.372137,281.444275 C147.372137,289.793511 140.076336,294.369847 131.372137,294.369847 C121.061069,294.369847 115.274809,288.93855 115.274809,281.793511 C115.274809,273.745802 122.015267,268.516794 131.225191,268.465267 L131.274809,268.465267 Z" id="Fill-27" fill="#EE3423"></path>
            <path d="M156.475573,269.066985 L161.20458,269.066985 L161.20458,281.490649 C161.20458,284.160496 161.309542,286.16813 162.765649,287.725382 C164.425954,289.538359 167.39542,290.250191 170.261832,290.250191 C175.845802,290.250191 178.761832,287.475382 179.567176,286.16813 C180.425954,284.813168 180.425954,283.404771 180.425954,282.047901 L180.425954,269.066985 L185.202672,269.066985 L185.202672,293.618511 L180.527099,293.618511 L180.527099,290.544084 C178.563359,292.208206 175.845802,294.471565 169.708397,294.471565 C167.39542,294.471565 164.527099,294.068893 162.210305,293.066985 C156.475573,290.496374 156.475573,286.021183 156.475573,281.992557 L156.475573,269.066985 Z" id="Fill-28" fill="#EE3423"></path>
            <path d="M201.096374,272.033969 C202.203244,271.074046 203.056298,270.324046 205.174618,269.524427 C207.235687,268.719084 209.447519,268.318321 212.016221,268.318321 C216.33874,268.318321 220.617366,269.570229 223.079198,272.638931 C224.993321,275.054962 225.042939,277.671374 225.042939,280.335496 L225.042939,293.619847 L220.31584,293.619847 L220.31584,280.638931 C220.26813,278.476718 220.214695,276.209542 217.949427,274.396565 C215.733779,272.591221 212.869275,272.43855 211.208969,272.43855 C209.598282,272.43855 207.888359,272.591221 205.777672,273.49771 C201.151718,275.558779 201.096374,279.329771 201.096374,281.93855 L201.096374,293.619847 L196.319656,293.619847 L196.319656,269.066412 L201.096374,269.066412 L201.096374,272.033969 Z" id="Fill-29" fill="#EE3423"></path>
            <path d="M239.331489,281.544084 C239.331489,287.229198 244.106298,290.149046 249.543321,290.149046 C252.155916,290.149046 254.623473,289.53645 256.476527,288.437214 C257.636832,287.725382 260.207443,285.920038 260.207443,281.087977 C260.207443,274.095611 253.919275,272.234924 249.291412,272.28645 C242.951718,272.38187 239.331489,276.259733 239.331489,281.544084 L239.331489,281.544084 Z M259.951718,258.101336 L264.732252,258.101336 L264.732252,293.618511 L259.951718,293.618511 L259.951718,290.349427 C258.652099,291.450573 255.476527,294.066985 248.940267,294.066985 C239.57958,294.066985 234.348664,287.933397 234.348664,281.192939 C234.348664,273.040267 241.392557,268.463931 249.091031,268.463931 C255.129198,268.463931 258.194084,270.677672 259.951718,271.933397 L259.951718,258.101336 Z" id="Fill-30" fill="#EE3423"></path>
            <path d="M288.072901,281.993321 C285.254198,281.993321 282.635878,282.046756 281.08626,282.651718 C279.322901,283.304389 278.515649,284.611641 278.515649,286.020038 C278.515649,288.281489 280.475573,290.846374 285.557634,290.846374 C286.368702,290.846374 290.595802,290.750954 293.601527,288.737595 C296.832443,286.569656 297.025191,283.806298 297.025191,281.993321 L288.072901,281.993321 Z M275.349618,274.550573 C276.410687,271.686069 277.65687,268.317748 288.584351,268.317748 C290.742748,268.317748 293.75229,268.56584 296.019466,269.174618 C301.509924,270.676527 301.509924,274.195611 301.509924,276.913168 L301.509924,285.819656 C301.509924,289.08874 301.509924,290.443702 304.219847,290.443702 C304.824809,290.443702 305.429771,290.350191 306.032824,290.296756 L306.032824,293.562023 C304.477481,293.712786 303.067176,293.867366 301.805725,293.867366 C297.536641,293.867366 297.280916,291.451336 297.080534,289.689885 C296.475573,290.598282 295.819084,291.550573 293.75229,292.710878 C291.643511,293.819656 288.630153,294.516221 285.408779,294.516221 C275.296183,294.516221 273.737023,288.787214 273.737023,286.075382 C273.737023,283.054389 275.39542,280.081107 279.368702,279.025763 C281.887786,278.375 286.717939,278.321565 290.032824,278.321565 L296.979389,278.321565 C297.025191,275.705153 297.025191,273.747137 294.414504,272.640267 C293.401145,272.186069 291.542366,271.785305 288.880153,271.785305 C286.817176,271.785305 284.758015,271.93416 282.891603,272.691794 C281.08626,273.395992 280.584351,274.247137 280.181679,274.999046 L275.349618,274.550573 Z" id="Fill-31" fill="#EE3423"></path>
            <path d="M313.979771,260.618893 L318.710687,260.618893 L318.710687,269.013931 L325.603817,269.013931 L325.603817,272.33645 L318.657252,272.33645 L318.609542,285.51584 C318.657252,287.97958 318.609542,289.792557 321.979771,289.792557 C323.134351,289.792557 324.14771,289.645611 325.45687,289.387977 L325.45687,293.618893 C323.899618,293.76584 322.334733,293.96813 320.724046,293.96813 C313.979771,293.96813 314.033206,290.597901 313.979771,286.87271 L313.979771,272.286832 L309.750763,272.33645 L309.750763,269.013931 L313.979771,269.013931 L313.979771,260.618893 Z" id="Fill-32" fill="#EE3423"></path>
            <path d="M333.053435,293.618321 L337.832061,293.618321 L337.832061,269.066794 L333.053435,269.066794 L333.053435,293.618321 Z M332.998092,264.946565 L337.725191,264.946565 L337.725191,260.114504 L332.998092,260.114504 L332.998092,264.946565 Z" id="Fill-33" fill="#EE3423"></path>
            <path d="M351.866221,281.490076 C351.866221,286.724809 356.490267,290.396565 363.381489,290.396565 C369.120038,290.396565 374.301336,287.028244 374.301336,281.444275 C374.301336,275.75916 369.32042,272.287786 362.786069,272.383206 C355.637214,272.490076 351.866221,276.764885 351.866221,281.490076 L351.866221,281.490076 Z M363.026527,268.465267 C371.58187,268.409924 379.125763,272.638931 379.125763,281.444275 C379.125763,289.793511 371.829962,294.369847 363.133397,294.369847 C352.810878,294.369847 347.024618,288.93855 347.024618,281.793511 C347.024618,273.745802 353.778435,268.516794 362.984542,268.465267 L363.026527,268.465267 Z" id="Fill-34" fill="#EE3423"></path>
            <path d="M393.159542,272.033969 C394.275954,271.074046 395.125191,270.324046 397.235878,269.524427 C399.300763,268.719084 401.508779,268.318321 404.087023,268.318321 C408.407634,268.318321 412.682443,269.570229 415.146183,272.638931 C417.052672,275.054962 417.108015,277.671374 417.108015,280.335496 L417.108015,293.619847 L412.380916,293.619847 L412.380916,280.638931 C412.327481,278.476718 412.275954,276.209542 410.018321,274.396565 C407.80458,272.591221 404.930534,272.43855 403.274046,272.43855 C401.657634,272.43855 399.953435,272.591221 397.837023,273.49771 C393.214885,275.558779 393.159542,279.329771 393.159542,281.93855 L393.159542,293.619847 L388.380916,293.619847 L388.380916,269.066412 L393.159542,269.066412 L393.159542,272.033969 Z" id="Fill-35" fill="#EE3423"></path>
        </g>
    </g>
</svg>