<?xml version="1.0" encoding="UTF-8"?>
<svg width="421px" height="46px" viewBox="0 0 421 46" version="1.1" xmlns="http://www.w3.org/2000/svg" xmlns:xlink="http://www.w3.org/1999/xlink">
    <!-- Generator: Sketch 46.2 (44496) - http://www.bohemiancoding.com/sketch -->
    <title>orange</title>
    <desc>Created with Sketch.</desc>
    <defs></defs>
    <g id="Page-1" stroke="none" stroke-width="1" fill="none" fill-rule="evenodd">
        <g id="orange" fill-rule="nonzero">
            <path d="M24.85,14.05 L14.37,14.05 L14.37,10.83 C14.37,9.33 14.24,8.37 13.97,7.96 C13.7,7.55 13.25,7.34 12.63,7.34 C11.95,7.34 11.44,7.62 11.09,8.17 C10.74,8.72 10.57,9.57 10.57,10.69 C10.57,12.14 10.77,13.23 11.16,13.96 C11.53,14.69 12.6,15.58 14.35,16.61 C19.37,19.59 22.54,22.04 23.84,23.95 C25.14,25.86 25.8,28.95 25.8,33.2 C25.8,36.29 25.44,38.57 24.71,40.04 C23.99,41.51 22.59,42.73 20.51,43.73 C18.44,44.72 16.02,45.22 13.27,45.22 C10.25,45.22 7.67,44.65 5.53,43.5 C3.39,42.36 1.99,40.9 1.33,39.13 C0.67,37.36 0.34,34.85 0.34,31.6 L0.34,28.76 L10.82,28.76 L10.82,34.04 C10.82,35.67 10.97,36.71 11.26,37.18 C11.55,37.65 12.08,37.88 12.83,37.88 C13.58,37.88 14.14,37.59 14.51,37 C14.88,36.41 15.06,35.53 15.06,34.37 C15.06,31.81 14.71,30.14 14.01,29.36 C13.3,28.57 11.53,27.26 8.73,25.42 C5.92,23.56 4.06,22.21 3.15,21.37 C2.24,20.53 1.48,19.37 0.88,17.88 C0.3,16.4 0,14.51 0,12.2 C0,8.88 0.42,6.44 1.27,4.91 C2.12,3.37 3.49,2.17 5.39,1.3 C7.28,0.43 9.57,0 12.25,0 C15.18,0 17.68,0.47 19.74,1.42 C21.8,2.37 23.17,3.56 23.84,5 C24.51,6.44 24.85,8.88 24.85,12.33 L24.85,14.05 Z" id="S_2_" fill="#FA8D49"></path>
            <polygon id="T_1_" fill="#FA8D49" points="52.07 0.91 52.07 9.6 45.37 9.6 45.37 44.32 34.08 44.32 34.08 9.6 27.4 9.6 27.4 0.91"></polygon>
            <path d="M54.64,0.91 L62.63,0.91 C67.96,0.91 71.56,1.12 73.45,1.53 C75.34,1.94 76.87,2.99 78.06,4.68 C79.25,6.37 79.84,9.06 79.84,12.76 C79.84,16.14 79.42,18.41 78.58,19.57 C77.74,20.73 76.09,21.43 73.62,21.66 C75.85,22.21 77.36,22.96 78.12,23.89 C78.89,24.82 79.37,25.67 79.55,26.45 C79.74,27.23 79.83,29.37 79.83,32.87 L79.83,44.32 L69.36,44.32 L69.36,29.9 C69.36,27.58 69.18,26.14 68.81,25.58 C68.44,25.03 67.48,24.75 65.93,24.75 L65.93,44.32 L54.64,44.32 L54.64,0.91 Z M65.93,8.34 L65.93,17.99 C67.2,17.99 68.09,17.82 68.6,17.47 C69.11,17.12 69.36,15.99 69.36,14.08 L69.36,11.69 C69.36,10.31 69.11,9.41 68.62,8.98 C68.13,8.55 67.24,8.34 65.93,8.34 Z" id="R" fill="#FA8D49"></path>
            <polygon id="E_4_" fill="#FA8D49" points="84.22 0.91 103.04 0.91 103.04 9.6 95.5 9.6 95.5 17.83 102.55 17.83 102.55 26.09 95.5 26.09 95.5 35.63 103.79 35.63 103.79 44.32 84.22 44.32"></polygon>
            <polygon id="E_3_" fill="#FA8D49" points="107.03 0.91 125.85 0.91 125.85 9.6 118.32 9.6 118.32 17.83 125.37 17.83 125.37 26.09 118.32 26.09 118.32 35.63 126.61 35.63 126.61 44.32 107.04 44.32 107.04 0.91"></polygon>
            <polygon id="T" fill="#FA8D49" points="151.87 0.91 151.87 9.6 145.17 9.6 145.17 44.32 133.88 44.32 133.88 9.6 127.2 9.6 127.2 0.91"></polygon>
            <path d="M179.17,14.41 L168.88,14.41 L168.88,11.25 C168.88,9.78 168.75,8.84 168.49,8.43 C168.23,8.03 167.79,7.83 167.17,7.83 C166.5,7.83 166,8.1 165.66,8.65 C165.32,9.19 165.15,10.02 165.15,11.13 C165.15,12.55 165.34,13.62 165.73,14.34 C166.1,15.06 167.14,15.93 168.86,16.94 C173.79,19.87 176.9,22.27 178.18,24.15 C179.46,26.03 180.1,29.05 180.1,33.23 C180.1,36.27 179.75,38.5 179.03,39.94 C178.31,41.38 176.95,42.58 174.91,43.56 C172.87,44.53 170.51,45.02 167.81,45.02 C164.85,45.02 162.31,44.46 160.22,43.34 C158.12,42.22 156.75,40.79 156.1,39.05 C155.45,37.31 155.13,34.85 155.13,31.66 L155.13,28.87 L165.42,28.87 L165.42,34.05 C165.42,35.65 165.56,36.67 165.85,37.13 C166.14,37.59 166.65,37.81 167.39,37.81 C168.13,37.81 168.67,37.52 169.03,36.94 C169.39,36.36 169.57,35.5 169.57,34.36 C169.57,31.85 169.23,30.21 168.54,29.44 C167.84,28.67 166.11,27.38 163.36,25.57 C160.61,23.75 158.78,22.42 157.89,21.6 C156.99,20.78 156.25,19.64 155.67,18.18 C155.08,16.72 154.79,14.86 154.79,12.6 C154.79,9.34 155.21,6.95 156.04,5.44 C156.87,3.93 158.22,2.75 160.08,1.9 C161.94,1.05 164.18,0.62 166.82,0.62 C169.7,0.62 172.15,1.08 174.17,2.01 C176.2,2.94 177.54,4.11 178.2,5.52 C178.86,6.93 179.19,9.33 179.19,12.72 L179.19,14.41 L179.17,14.41 Z" id="S_1_" fill="#FFFFFF"></path>
            <polygon id="E_2_" fill="#FFFFFF" points="183.56 1.51 202.03 1.51 202.03 10.04 194.64 10.04 194.64 18.12 201.56 18.12 201.56 26.22 194.64 26.22 194.64 35.59 202.77 35.59 202.77 44.12 183.56 44.12"></polygon>
            <polygon id="N" fill="#FFFFFF" points="230.69 1.51 230.69 44.11 220.98 44.11 215.22 24.74 215.22 44.11 205.96 44.11 205.96 1.51 215.22 1.51 221.43 20.69 221.43 1.51"></polygon>
            <path d="M258.61,14.41 L248.32,14.41 L248.32,11.25 C248.32,9.78 248.19,8.84 247.92,8.43 C247.66,8.03 247.22,7.83 246.6,7.83 C245.93,7.83 245.43,8.1 245.09,8.65 C244.75,9.2 244.58,10.02 244.58,11.13 C244.58,12.55 244.77,13.62 245.16,14.34 C245.53,15.06 246.57,15.93 248.29,16.94 C253.22,19.87 256.33,22.27 257.61,24.15 C258.89,26.03 259.53,29.05 259.53,33.23 C259.53,36.27 259.17,38.5 258.46,39.94 C257.75,41.38 256.38,42.58 254.34,43.56 C252.3,44.54 249.94,45.02 247.24,45.02 C244.28,45.02 241.74,44.46 239.65,43.34 C237.55,42.22 236.18,40.79 235.53,39.05 C234.88,37.31 234.56,34.85 234.56,31.66 L234.56,28.87 L244.85,28.87 L244.85,34.05 C244.85,35.65 244.99,36.67 245.28,37.13 C245.57,37.59 246.08,37.81 246.82,37.81 C247.56,37.81 248.1,37.52 248.46,36.94 C248.82,36.36 249,35.5 249,34.36 C249,31.85 248.66,30.21 247.97,29.44 C247.27,28.67 245.54,27.38 242.79,25.57 C240.04,23.75 238.21,22.42 237.32,21.6 C236.43,20.78 235.68,19.64 235.1,18.18 C234.51,16.72 234.22,14.86 234.22,12.6 C234.22,9.34 234.64,6.95 235.47,5.44 C236.3,3.93 237.65,2.75 239.51,1.9 C241.37,1.05 243.62,0.62 246.25,0.62 C249.13,0.62 251.58,1.08 253.6,2.01 C255.63,2.94 256.97,4.11 257.63,5.52 C258.29,6.93 258.62,9.33 258.62,12.72 L258.62,14.41 L258.61,14.41 Z" id="S" fill="#FFFFFF"></path>
            <polygon id="E_1_" fill="#FFFFFF" points="263 1.51 281.47 1.51 281.47 10.04 274.08 10.04 274.08 18.12 281 18.12 281 26.22 274.08 26.22 274.08 35.59 282.21 35.59 282.21 44.12 263 44.12"></polygon>
            <path d="M320.95,0.99 L320.95,44.62 L311.03,44.62 L311.02,15.17 L307.07,44.62 L300.04,44.62 L295.88,15.84 L295.87,44.62 L285.95,44.62 L285.95,0.99 L300.63,0.99 C301.07,3.61 301.51,6.7 301.98,10.26 L303.59,21.36 L306.2,0.99 L320.95,0.99 Z" id="M" fill="#FA8D49"></path>
            <polygon id="E" fill="#FA8D49" points="325.51 0.99 344.43 0.99 344.43 9.72 336.86 9.72 336.86 17.99 343.95 17.99 343.95 26.29 336.86 26.29 336.86 35.88 345.19 35.88 345.19 44.61 325.52 44.61 325.52 0.99"></polygon>
            <path d="M348.44,0.99 L356.93,0.99 C362.41,0.99 366.11,1.24 368.05,1.74 C369.98,2.24 371.45,3.07 372.46,4.22 C373.47,5.37 374.09,6.65 374.35,8.06 C374.6,9.47 374.73,12.24 374.73,16.37 L374.73,31.65 C374.73,35.57 374.55,38.18 374.18,39.5 C373.81,40.82 373.17,41.85 372.25,42.6 C371.33,43.35 370.2,43.87 368.86,44.16 C367.51,44.46 365.48,44.6 362.77,44.6 L348.46,44.6 L348.46,0.99 L348.44,0.99 Z M359.78,8.45 L359.78,37.15 C361.41,37.15 362.42,36.82 362.8,36.17 C363.18,35.51 363.37,33.73 363.37,30.82 L363.37,13.87 C363.37,11.89 363.31,10.63 363.18,10.07 C363.05,9.51 362.77,9.1 362.32,8.84 C361.87,8.58 361.02,8.45 359.78,8.45 Z" id="D" fill="#FA8D49"></path>
            <polygon id="I" fill="#FA8D49" points="390.29 0.99 390.29 44.62 378.95 44.62 378.95 0.99"></polygon>
            <path d="M414.45,0.99 L420.94,44.62 L409.35,44.62 L408.74,36.78 L404.68,36.78 L404,44.61 L392.27,44.61 L398.06,0.98 L414.45,0.98 L414.45,0.99 Z M408.44,29.04 C407.87,24.1 407.29,17.99 406.71,10.72 C405.55,19.07 404.83,25.18 404.53,29.04 L408.44,29.04 Z" id="A" fill="#FA8D49"></path>
        </g>
    </g>
</svg>