<svg xmlns="http://www.w3.org/2000/svg" viewBox="0 0 243.179 241.067"><defs><style>.a{fill:#23418c;}.b{fill:#f68e3a;}</style></defs><title>street-sense</title><path class="a" d="M59.7,40.22H43.116v-5.09q0-3.562-.636-4.538a2.34,2.34,0,0,0-2.121-.976,2.7,2.7,0,0,0-2.439,1.316,7.632,7.632,0,0,0-.827,3.989,11.31,11.31,0,0,0,.93,5.178q.888,1.74,5.046,4.2,11.923,7.077,15.019,11.615t3.1,14.633q0,7.338-1.718,10.815t-6.638,5.832a26.257,26.257,0,0,1-11.452,2.354,25.609,25.609,0,0,1-12.237-2.714q-5.069-2.714-6.638-6.914T20.934,68v-4.5H37.518v8.356q0,3.86.7,4.962a2.707,2.707,0,0,0,2.481,1.1,2.908,2.908,0,0,0,2.651-1.4,7.991,7.991,0,0,0,.87-4.157q0-6.065-1.654-7.932-1.7-1.865-8.356-6.235a82.088,82.088,0,0,1-8.822-6.4A14.981,14.981,0,0,1,21.8,46.286a24.253,24.253,0,0,1-1.421-8.992q0-7.89,2.015-11.537a13.557,13.557,0,0,1,6.511-5.7A25.974,25.974,0,0,1,39.766,18a28.292,28.292,0,0,1,11.855,2.248q4.9,2.249,6.489,5.662t1.59,11.6Z" transform="translate(-18.763 -17.995)"/><path class="a" d="M102.751,19.437V33.18h-10.6V88.107H74.291V33.18H63.73V19.437Z" transform="translate(-18.763 -17.995)"/><path class="a" d="M106.823,19.437h12.639q12.639,0,17.115.976a11.783,11.783,0,0,1,7.295,4.984q2.821,4.008,2.82,12.788,0,8.016-1.992,10.773t-7.848,3.309q5.3,1.315,7.125,3.521a10.5,10.5,0,0,1,2.27,4.05q.445,1.845.445,10.159V88.107H130.109V65.288q0-5.514-.87-6.829t-4.56-1.315V88.107H106.823ZM124.68,31.186V46.455a7.861,7.861,0,0,0,4.22-.827q1.208-.828,1.209-5.366V36.488q0-3.265-1.167-4.284T124.68,31.186Z" transform="translate(-18.763 -17.995)"/><path class="a" d="M153.607,19.437h29.775V33.18H171.463V46.2h11.155V59.265H171.463v15.1H184.57V88.107H153.607Z" transform="translate(-18.763 -17.995)"/><path class="a" d="M189.7,19.437h29.775V33.18H207.558V46.2h11.155V59.265H207.558v15.1h13.106V88.107H189.7Z" transform="translate(-18.763 -17.995)"/><path class="a" d="M260.618,19.437V33.18h-10.6V88.107H232.158V33.18H221.6V19.437Z" transform="translate(-18.763 -17.995)"/><path class="a" d="M81.723,180.722v78.34H63.916l-.024-52.889L56.8,259.062H44.174L36.7,207.383l-.024,51.679H18.867v-78.34H45.227q1.173,7.065,2.418,16.654L50.537,217.3l4.682-36.58Z" transform="translate(-18.763 -17.995)"/><path class="a" d="M89.9,180.722h33.968V196.4h-13.6v14.854H123v14.9H110.272v17.227h14.952v15.678H89.9Z" transform="translate(-18.763 -17.995)"/><path class="a" d="M131.078,180.722h15.242q14.758,0,19.96,1.354a15.309,15.309,0,0,1,7.911,4.452,14.1,14.1,0,0,1,3.388,6.895q.677,3.8.677,14.928v27.436q0,10.55-.991,14.105a10.608,10.608,0,0,1-3.46,5.564,14.392,14.392,0,0,1-6.1,2.807,55.109,55.109,0,0,1-10.936.8H131.078Zm20.371,13.4v51.532q4.4,0,5.42-1.766t1.016-9.605V203.851a40.876,40.876,0,0,0-.339-6.822,3.238,3.238,0,0,0-1.548-2.2A10.071,10.071,0,0,0,151.449,194.126Z" transform="translate(-18.763 -17.995)"/><path class="a" d="M206.224,180.722v78.34H185.853v-78.34Z" transform="translate(-18.763 -17.995)"/><path class="a" d="M249.615,180.722l11.649,78.34H240.446l-1.094-14.082h-7.286l-1.226,14.082H209.78l10.392-78.34Zm-10.8,50.371q-1.547-13.31-3.1-32.9-3.113,22.5-3.909,32.9Z" transform="translate(-18.763 -17.995)"/><path class="b" d="M65.31,119.162H45.677v-6.025q0-4.218-.753-5.373a2.77,2.77,0,0,0-2.511-1.155,3.2,3.2,0,0,0-2.887,1.559,9.034,9.034,0,0,0-.979,4.723,13.381,13.381,0,0,0,1.1,6.129q1.051,2.061,5.974,4.97,14.115,8.378,17.781,13.75t3.666,17.323q0,8.688-2.034,12.8t-7.858,6.9a31.093,31.093,0,0,1-13.558,2.786,30.31,30.31,0,0,1-14.486-3.214q-6-3.212-7.858-8.184t-1.858-14.11v-5.322H39.049v9.892q0,4.57.829,5.875a3.2,3.2,0,0,0,2.938,1.306,3.443,3.443,0,0,0,3.138-1.657,9.459,9.459,0,0,0,1.029-4.921q0-7.179-1.958-9.39-2.009-2.209-9.892-7.381a97.252,97.252,0,0,1-10.444-7.583,17.728,17.728,0,0,1-4.243-6.527A28.713,28.713,0,0,1,18.763,115.7q0-9.34,2.385-13.658a16.049,16.049,0,0,1,7.708-6.753,30.75,30.75,0,0,1,12.854-2.435,33.495,33.495,0,0,1,14.034,2.661q5.8,2.662,7.683,6.7t1.883,13.733Z" transform="translate(-18.763 -17.995)"/><path class="b" d="M73.7,94.558h35.249v16.269H94.835v15.415h13.206v15.465H94.835v17.876h15.516v16.269H73.7Z" transform="translate(-18.763 -17.995)"/><path class="b" d="M163.626,94.558v81.294H145.1l-11-36.957v36.957H116.426V94.558H134.1l11.851,36.6v-36.6Z" transform="translate(-18.763 -17.995)"/><path class="b" d="M216.9,119.162H197.269v-6.025q0-4.218-.753-5.373a2.769,2.769,0,0,0-2.511-1.155,3.194,3.194,0,0,0-2.887,1.559,9.029,9.029,0,0,0-.979,4.723,13.381,13.381,0,0,0,1.1,6.129q1.052,2.061,5.974,4.97,14.115,8.378,17.781,13.75t3.665,17.323q0,8.688-2.033,12.8t-7.858,6.9a31.1,31.1,0,0,1-13.558,2.786,30.31,30.31,0,0,1-14.486-3.214q-6-3.212-7.858-8.184t-1.857-14.11v-5.322h19.633v9.892q0,4.57.829,5.875a3.2,3.2,0,0,0,2.937,1.306,3.443,3.443,0,0,0,3.139-1.657,9.459,9.459,0,0,0,1.029-4.921q0-7.179-1.958-9.39-2.01-2.209-9.892-7.381a97.2,97.2,0,0,1-10.444-7.583,17.729,17.729,0,0,1-4.243-6.527,28.712,28.712,0,0,1-1.683-10.645q0-9.34,2.386-13.658a16.05,16.05,0,0,1,7.707-6.753A30.753,30.753,0,0,1,193.3,92.851a33.492,33.492,0,0,1,14.034,2.661q5.8,2.662,7.683,6.7t1.884,13.733Z" transform="translate(-18.763 -17.995)"/><path class="b" d="M225.287,94.558h35.249v16.269H246.427v15.415h13.206v15.465H246.427v17.876h15.516v16.269H225.287Z" transform="translate(-18.763 -17.995)"/></svg>