<?xml version="1.0" encoding="UTF-8" standalone="no"?>
<svg width="570px" height="165px" viewBox="0 0 570 165" version="1.1" xmlns="http://www.w3.org/2000/svg" xmlns:xlink="http://www.w3.org/1999/xlink">
    <!-- Generator: Sketch 3.7 (28169) - http://www.bohemiancoding.com/sketch -->
    <title>thank-you</title>
    <desc>Created with Sketch.</desc>
    <defs></defs>
    <g id="Page-1" stroke="none" stroke-width="1" fill="none" fill-rule="evenodd">
        <g id="thank-you" fill="#2A4ED2">
            <path d="M75.017,35.221 C74.468,34.489 74.468,33.757 74.651,33.025 C75.017,32.11 74.651,31.195 74.834,30.463 C74.651,29.914 74.285,29.365 74.285,28.816 C73.919,26.803 73.004,25.156 72.455,23.326 C72.272,22.411 72.089,21.496 71.723,20.398 C71.54,20.398 71.174,20.398 70.991,20.215 C70.625,20.032 70.442,19.849 70.076,19.849 C69.893,19.666 68.429,19.483 68.063,19.483 C67.514,19.849 66.965,19.849 66.416,19.849 L60.926,19.849 C60.377,19.849 59.645,20.032 59.096,20.215 C56.9,20.764 54.521,21.13 52.325,21.496 L52.142,21.313 C51.593,21.13 51.044,21.496 50.678,21.679 C49.763,22.228 48.848,22.411 47.933,22.411 C46.103,22.594 44.273,22.594 42.443,22.96 C41.528,23.143 40.613,23.143 39.698,23.326 C38.966,23.509 38.051,23.692 37.136,23.692 C35.123,23.875 32.927,24.424 30.914,24.241 C29.084,24.241 27.254,24.424 25.607,24.424 L24.692,24.424 C23.594,24.973 22.679,24.79 21.581,24.79 C20.483,24.973 19.568,25.339 18.47,25.339 C17.555,25.339 16.64,25.339 15.908,25.522 C14.81,25.888 13.529,25.705 12.431,25.705 C11.699,25.888 11.333,26.071 11.15,26.071 C10.784,25.705 10.418,25.339 10.235,24.973 C10.052,24.973 9.686,25.156 9.32,25.339 C9.137,24.973 8.771,24.79 8.405,24.424 C7.856,25.522 6.941,26.254 6.026,26.62 C5.843,27.169 5.66,27.352 5.66,27.718 C5.843,28.267 6.026,28.633 5.66,29.182 C4.562,29.365 3.464,30.097 3.098,31.378 C3.281,31.561 3.281,31.927 3.464,32.293 C2.915,32.476 2.549,32.476 2,32.659 C2.183,32.842 2.366,32.842 2.366,33.025 C2.549,33.757 2.549,34.489 2.915,34.855 C4.379,36.685 4.196,39.064 5.294,40.894 C5.477,41.077 5.477,41.443 5.477,41.626 C6.026,43.456 6.209,45.286 6.941,47.116 C7.49,47.299 8.039,47.299 8.588,47.482 C8.771,47.848 9.137,48.397 9.32,48.763 C9.869,48.946 10.418,49.129 10.967,49.312 C10.967,49.678 10.967,50.044 11.15,50.41 C11.333,50.776 11.882,51.142 12.065,51.508 C12.797,51.325 13.346,51.508 13.895,51.325 C14.444,51.142 14.993,50.776 15.725,50.776 C16.274,50.776 16.823,50.41 17.372,50.227 C18.104,50.044 18.653,50.593 19.385,50.044 C21.032,49.678 22.862,49.312 24.509,48.946 C25.058,48.763 25.607,48.58 26.339,48.58 C27.437,48.58 28.535,48.397 29.633,48.214 C29.633,48.214 29.816,48.214 29.999,48.397 C29.999,48.58 30.182,48.763 30.182,48.946 C30.182,51.142 29.999,53.155 29.999,55.168 C29.999,55.717 30.182,56.083 29.999,56.449 C29.45,58.279 29.816,60.109 29.633,61.939 C29.633,62.854 29.816,63.769 29.816,64.684 C29.633,65.416 29.999,66.331 29.816,67.246 C29.633,67.612 29.816,67.978 29.816,68.344 L29.816,69.259 C29.816,69.625 29.999,69.808 29.999,69.991 C29.816,70.906 29.816,71.638 29.816,72.37 C29.633,73.468 29.816,74.383 29.633,75.298 L29.633,78.409 C29.633,79.507 29.267,80.422 29.633,81.337 C29.633,81.52 29.45,81.886 29.45,82.252 C29.45,82.801 29.267,83.167 29.267,83.716 L29.267,92.5 C29.267,93.049 29.084,93.598 29.084,94.33 C29.084,95.062 28.901,95.794 28.901,96.709 C28.718,97.441 28.901,98.356 28.901,99.088 L28.901,100.918 C28.901,104.029 28.535,107.14 29.267,110.251 C29.267,112.996 29.816,115.741 30.182,118.486 C30.182,118.852 30.548,119.218 30.548,119.767 C30.548,121.597 31.097,123.427 31.646,125.44 C32.012,127.453 32.561,129.466 33.476,131.296 C34.025,132.211 34.208,133.309 34.574,134.224 L34.574,134.59 C34.391,134.773 34.391,134.773 34.208,134.773 L34.757,136.42 C34.94,136.237 35.123,136.054 35.306,135.688 L36.953,135.688 C38.6,134.956 39.332,133.675 40.613,132.76 L41.162,132.76 C41.162,132.577 41.345,132.394 41.528,132.211 C42.26,132.394 42.809,132.76 43.358,132.394 C43.724,131.662 43.541,130.564 44.273,130.015 C44.456,130.198 44.639,130.198 44.639,130.198 C45.554,129.649 45.554,128.734 45.737,128.002 C45.92,127.087 46.286,126.355 46.652,125.623 L47.018,125.623 C47.384,125.989 47.567,126.538 47.933,127.087 C48.848,126.538 48.299,125.44 48.848,124.708 C49.214,124.708 49.763,124.525 50.129,124.342 C50.678,122.695 51.044,121.414 51.41,119.95 C51.593,119.767 51.776,119.767 51.959,119.584 C52.142,119.767 52.325,119.767 52.508,119.767 C52.508,119.401 52.508,118.852 52.691,118.12 C53.057,118.669 53.24,119.035 53.423,119.401 C53.24,119.584 53.057,119.584 53.057,119.767 L53.057,120.316 C53.423,120.316 53.606,120.133 53.789,119.767 C53.972,119.035 54.338,118.486 54.521,117.754 C54.887,118.12 55.07,118.303 55.07,118.303 C55.436,118.852 55.07,119.584 55.619,119.95 C55.619,118.852 55.802,117.754 55.802,116.839 C56.168,116.29 56.351,115.741 56.717,115.375 C56.717,114.826 56.168,114.46 56.351,113.911 C56.168,113.728 55.985,113.545 55.802,113.362 C55.802,112.996 55.985,112.813 55.985,112.63 C55.802,112.447 55.619,112.081 55.253,111.898 C54.887,111.715 54.887,111.715 55.253,111.532 C55.253,110.983 56.168,110.8 55.802,110.251 C55.619,110.251 55.253,110.434 54.887,110.434 C54.887,109.702 54.704,108.97 55.07,108.421 C55.253,108.055 55.436,107.872 55.619,107.689 C55.253,107.506 55.07,107.323 54.887,107.14 C54.887,106.591 54.887,106.225 54.704,105.676 C54.704,105.676 54.521,105.676 54.338,105.859 L54.338,107.506 C54.155,108.055 53.789,108.604 53.606,108.97 C53.789,109.336 53.789,109.519 53.789,109.702 C53.24,109.885 53.24,110.983 52.508,110.983 C52.325,110.983 52.325,111.166 52.325,111.349 C52.508,111.532 52.691,111.715 53.057,111.715 C52.874,112.264 52.691,112.63 52.691,113.179 C52.508,113.545 52.508,114.094 52.508,114.643 C52.325,114.643 52.142,114.46 51.776,114.46 C51.593,113.179 51.776,111.898 51.593,110.434 C52.142,109.885 52.508,109.336 52.874,108.787 C53.057,108.238 53.057,107.689 53.057,107.323 C53.423,106.957 53.606,106.591 53.789,106.225 C53.789,106.225 53.789,106.225 53.789,106.042 C53.606,105.859 53.423,105.676 53.24,105.493 C53.423,104.761 53.789,104.395 53.789,103.663 C53.972,103.297 53.606,102.565 54.338,102.016 C54.521,102.199 54.887,102.199 55.253,102.382 C55.07,101.467 55.619,100.369 55.07,99.454 C54.704,99.454 54.521,99.271 54.338,99.271 L54.338,98.356 C54.521,98.356 54.704,98.356 54.704,98.173 C54.887,97.075 55.436,95.794 55.07,94.696 C54.887,94.33 54.704,94.147 54.338,93.964 L54.521,93.964 L54.338,93.964 C54.338,93.964 54.155,94.147 53.972,94.147 C53.972,94.696 53.789,95.428 53.789,95.977 C53.606,95.428 53.423,94.879 53.606,94.33 C53.606,93.598 53.606,93.049 53.789,92.134 C53.423,92.5 53.24,92.683 53.057,92.866 C53.057,93.415 53.057,93.781 52.874,94.147 C52.874,94.33 52.691,94.33 52.508,94.33 C52.508,94.696 52.325,94.879 51.959,94.696 C51.776,94.513 51.593,94.33 51.41,94.147 C51.227,94.33 51.044,94.513 50.861,94.696 C51.044,95.062 51.044,95.428 51.227,95.794 C50.678,96.892 50.129,97.807 49.763,98.905 C49.763,99.088 49.58,99.088 49.397,99.271 L49.397,97.075 C49.397,97.075 49.58,96.892 49.58,96.709 C49.763,96.709 49.946,96.526 50.129,96.343 C49.946,96.16 49.58,96.16 49.397,95.977 C49.031,92.866 49.763,89.938 49.946,87.01 C49.946,86.278 50.312,85.363 50.495,84.631 C50.678,84.082 51.044,83.533 51.593,83.35 C51.593,82.801 51.776,82.069 51.776,81.703 C52.142,81.337 52.325,80.971 52.691,80.971 C52.874,81.154 53.057,81.337 53.24,81.703 C53.789,80.971 53.057,80.605 52.874,80.056 C53.057,78.409 52.874,76.579 53.423,74.932 C53.24,74.566 53.24,74.383 53.057,74.017 C53.423,73.834 53.789,73.651 54.155,73.468 C53.789,73.285 53.606,73.285 53.24,73.102 C53.606,72.553 53.972,72.187 54.338,71.638 C53.972,71.455 53.972,71.272 53.789,71.272 C53.24,71.272 52.691,71.455 52.325,71.638 C52.325,72.187 52.325,72.553 52.142,73.102 C52.142,73.102 52.325,73.285 52.325,73.468 C52.142,73.834 51.959,74.2 51.593,74.749 C51.776,75.115 51.776,75.481 51.959,75.847 C51.227,76.213 50.861,76.762 50.861,77.494 C50.678,77.86 50.678,78.043 50.312,78.226 C49.946,76.579 50.861,74.932 50.861,73.468 C50.861,73.102 51.044,72.919 51.044,72.553 C51.227,72.004 51.593,71.272 51.41,70.906 C51.227,69.991 52.142,69.991 52.142,69.442 C52.142,68.527 52.508,67.795 52.508,67.063 C52.508,66.148 52.874,65.233 52.874,64.318 C52.874,62.488 53.789,60.841 53.423,59.011 C54.155,57.364 53.789,55.534 53.972,53.704 C53.972,53.155 53.972,52.606 53.789,52.24 C53.789,51.508 53.606,50.776 53.423,50.227 C53.24,49.495 53.057,48.763 53.057,48.031 C53.423,47.482 53.972,47.116 54.521,47.299 C55.802,47.299 57.083,46.933 58.364,47.116 C58.547,47.116 58.73,46.933 58.913,46.75 C59.096,46.567 59.462,46.567 59.828,46.384 C60.194,46.567 60.56,46.933 60.743,47.116 C61.658,46.933 62.39,46.75 63.122,46.567 L63.122,45.835 C65.501,45.835 67.697,45.286 70.076,44.371 C69.344,44.188 68.978,44.005 68.795,43.639 C69.527,42.907 70.442,42.541 70.991,41.809 C71.357,41.809 71.906,41.809 72.272,41.626 C72.638,41.077 72.821,40.711 73.187,40.162 C73.553,39.796 74.102,39.43 74.468,39.064 C74.285,38.698 74.102,38.698 74.102,38.515 C74.102,37.417 74.834,36.319 75.017,35.221 Z M47.933,125.074 C47.567,124.891 47.567,124.525 47.75,124.342 C48.116,124.525 48.116,124.891 47.933,125.074 Z M48.482,92.5 C48.299,93.232 48.299,93.964 48.116,94.513 C47.75,95.428 47.567,96.343 47.384,97.258 C47.384,97.441 47.201,97.624 47.018,97.807 C47.018,97.807 46.835,97.807 46.835,97.624 C47.018,97.258 47.018,96.709 47.201,96.343 L47.201,94.696 L47.75,92.5 C47.933,91.951 48.116,91.219 48.299,90.487 C48.665,91.219 48.665,91.951 48.482,92.5 Z M51.959,119.035 C51.776,119.035 51.776,118.852 51.776,118.852 C51.776,118.852 51.776,118.852 51.959,118.669 L51.959,118.852 L51.959,119.035 Z M54.155,111.532 C54.338,111.715 53.972,111.715 53.423,111.532 L54.155,111.532 Z M53.057,114.277 C53.057,113.911 53.057,113.728 53.24,113.179 C53.606,113.911 53.423,114.46 53.24,114.826 C52.874,115.009 52.691,115.009 52.508,114.643 C52.691,114.46 52.874,114.277 53.057,114.277 Z M52.508,116.656 C52.325,116.656 52.325,116.656 52.142,116.839 C52.142,116.656 52.325,116.656 52.325,116.473 C52.325,116.473 52.325,116.656 52.508,116.656 Z M51.776,117.022 C51.776,117.022 51.959,117.022 52.142,116.839 C51.959,117.388 52.142,117.754 51.959,118.12 C51.593,117.754 51.593,117.388 51.776,117.022 Z M54.338,99.271 C54.338,99.454 54.155,99.637 54.155,99.637 C53.972,99.454 54.155,99.454 54.338,99.271 Z M54.155,97.441 C54.338,97.807 54.338,98.173 54.338,98.356 C53.972,98.173 53.789,97.99 54.155,97.441 Z M52.325,95.428 C52.691,95.794 52.508,95.977 52.508,96.343 C52.142,96.526 51.959,96.16 51.776,95.977 C51.959,95.794 52.142,95.611 52.325,95.428 Z M51.044,98.722 C51.044,98.173 51.227,97.624 51.41,97.075 C51.593,97.075 51.776,97.075 51.959,97.258 C52.142,97.99 52.142,98.722 51.959,99.454 C51.959,99.637 51.776,99.637 51.593,99.82 C51.593,100.186 51.593,100.552 51.41,100.918 C51.41,100.918 51.593,101.101 51.593,101.284 L51.593,103.297 C51.41,103.48 51.227,103.48 50.861,103.663 C50.678,102.199 50.861,100.918 50.861,99.454 C51.044,99.454 51.044,99.454 51.227,99.271 C51.044,99.088 51.044,98.905 51.044,98.722 Z M49.397,99.454 L49.397,99.82 C49.397,99.82 49.214,100.003 49.214,100.186 C48.848,99.82 49.031,99.454 49.397,99.454 Z M50.312,78.226 C50.312,78.592 50.312,78.775 50.129,79.141 C49.946,78.592 49.946,78.409 50.312,78.226 Z M55.253,45.835 C55.07,45.835 55.07,45.835 54.887,45.652 L55.436,45.652 C55.436,45.835 55.253,45.835 55.253,45.835 Z M58.547,46.567 C58.73,46.384 58.73,46.567 58.73,46.75 C58.73,46.75 58.73,46.567 58.547,46.567 Z M63.122,45.286 L62.573,45.286 C62.573,45.286 62.573,45.103 62.756,45.103 C62.756,45.103 62.939,45.103 63.122,45.286 Z M69.161,41.809 C69.893,41.443 69.893,41.443 70.808,41.443 C70.808,41.626 70.808,41.809 70.991,41.809 C70.442,41.809 69.893,41.992 69.161,41.809 Z" id="Combined-Shape"></path>
            <path d="M97.709,5.575 C96.794,6.307 96.062,7.222 95.147,7.954 C93.866,9.052 92.951,10.333 92.219,11.797 C92.219,11.98 92.036,11.98 91.853,12.163 C91.121,12.712 90.389,13.078 89.474,13.627 C88.742,15.091 88.01,16.555 87.095,18.019 C86.18,19.483 85.448,21.13 85.082,22.777 C84.167,26.071 82.886,29.182 81.605,32.293 C81.788,32.659 81.971,33.208 81.971,33.574 C81.605,35.038 81.056,36.502 80.507,37.783 C79.958,39.247 79.409,40.711 79.226,42.175 L79.226,42.541 C79.775,42.541 80.141,42.541 80.873,42.724 C80.69,43.09 80.69,43.456 80.507,43.822 C80.141,45.103 79.775,46.384 79.226,47.665 C78.86,48.58 78.86,49.495 79.043,50.593 C79.409,50.41 79.775,50.044 80.141,49.861 C79.958,51.874 79.409,54.436 79.043,54.985 C78.86,54.985 78.677,55.168 78.494,55.168 C78.128,55.168 77.762,54.619 77.213,55.168 C77.213,57.547 76.481,59.926 75.932,62.305 C76.298,62.671 76.298,63.22 76.115,63.769 C75.932,64.501 75.749,65.233 75.749,66.148 C75.749,66.514 75.749,66.88 75.566,67.246 C75.383,67.795 75.383,68.344 75.383,69.076 C75.383,69.808 75.383,70.906 75.2,71.638 C74.834,72.553 74.834,73.468 74.834,74.383 C74.468,74.749 74.285,75.298 73.919,75.664 L73.919,77.311 C74.102,77.86 74.285,78.226 74.285,78.592 C73.736,82.801 73.736,86.827 73.004,90.853 C73.187,91.219 73.37,91.402 73.553,91.768 C73.37,93.049 73.553,94.513 73.187,95.794 C73.004,97.807 72.821,99.82 72.638,101.833 C72.455,104.578 72.638,107.506 72.638,110.434 C72.455,110.617 72.272,110.983 72.089,111.349 C72.455,112.081 72.821,112.63 73.004,113.179 C73.187,115.558 72.821,117.937 73.37,120.133 C73.37,121.78 73.553,123.244 73.919,124.891 C74.285,126.172 74.285,127.636 75.017,128.917 C75.383,130.015 75.383,130.93 75.2,131.662 C76.115,133.126 77.03,134.224 77.945,135.505 C77.945,136.054 78.128,136.603 78.128,136.969 C78.677,137.518 79.043,137.884 79.592,138.25 C80.141,138.25 80.507,138.067 80.873,138.067 C81.788,137.518 81.422,136.603 81.788,136.054 C82.154,135.688 82.703,135.322 83.069,134.956 C83.618,134.59 83.801,134.224 83.984,133.675 C83.984,133.309 84.167,133.126 84.35,132.943 C85.082,131.662 85.814,130.381 86.363,129.1 C86.912,128.002 87.278,126.721 87.827,125.623 C88.925,123.793 88.925,123.793 89.474,120.865 C89.657,120.499 89.84,120.133 90.023,119.584 C90.206,119.218 90.572,119.035 90.572,118.486 C90.389,118.12 90.755,117.571 90.755,117.205 C90.755,116.107 90.938,115.192 91.304,114.094 C92.036,112.081 92.585,110.068 92.402,108.055 C92.402,107.506 92.585,107.14 92.585,106.591 C92.951,104.944 93.317,103.297 93.317,101.65 C93.5,101.101 93.5,100.735 93.5,100.369 C93.866,100.186 94.049,100.003 94.232,99.82 C94.415,97.807 94.598,95.977 94.781,94.33 C94.781,94.147 94.964,93.964 94.964,93.781 C95.696,92.134 95.696,90.304 95.696,88.474 L95.696,84.631 C96.794,82.984 97.709,81.52 98.807,80.056 C100.088,78.409 101.186,76.762 102.467,75.115 C103.199,73.834 104.48,72.919 105.029,71.455 C105.029,71.455 105.212,71.455 105.212,71.272 C106.127,70.723 106.676,69.625 107.591,68.893 L108.14,68.893 C107.957,69.625 107.774,70.357 107.591,71.089 C107.408,72.736 106.859,74.383 106.493,75.847 C105.944,77.677 105.761,79.507 105.212,81.337 C104.846,82.984 104.297,84.631 103.931,86.095 C102.833,89.938 102.284,93.781 101.552,97.624 C101.552,98.173 101.369,98.722 101.186,99.271 L101.186,100.918 C101.369,101.65 101.552,102.199 101.369,103.114 C101.186,103.846 101.552,104.761 101.552,105.493 C101.552,106.225 101.369,106.957 101.186,108.055 C101.918,109.702 102.467,111.715 103.199,113.545 L103.199,116.29 C103.748,116.656 104.48,117.205 104.846,117.937 C104.846,118.303 105.212,118.669 105.395,118.852 C106.676,119.95 107.957,121.048 108.872,121.963 C109.787,122.329 110.336,122.512 110.885,122.695 C111.8,123.061 112.898,123.427 113.813,123.427 C115.826,123.61 117.839,123.61 119.669,122.695 C120.218,122.512 120.767,122.329 121.316,122.146 C123.878,121.231 125.891,119.584 127.538,117.388 C128.819,115.558 130.283,113.728 131.015,111.532 C131.381,110.8 131.93,110.251 132.296,109.519 C132.479,108.055 132.479,106.591 133.577,105.676 C133.76,105.127 133.76,104.761 133.76,104.395 C134.309,103.846 134.675,103.48 134.858,103.114 C135.041,102.199 135.224,101.65 135.407,100.918 C135.773,99.82 136.505,98.722 136.505,97.258 C136.505,96.709 136.688,96.16 137.054,95.611 C137.603,94.879 137.786,94.147 137.969,93.415 C138.152,92.134 138.518,91.036 139.067,90.121 C138.884,87.742 142.361,85.729 142.178,83.533 C142.91,82.252 142.91,80.788 143.276,79.507 C143.093,78.409 144.008,78.226 144.374,77.128 C144.557,76.579 144.74,75.847 144.923,75.298 C145.106,74.932 145.289,73.285 145.472,72.919 C145.838,72.187 146.753,71.638 146.57,70.906 C147.119,68.71 147.668,68.71 147.485,66.514 C146.936,65.782 146.204,65.965 145.472,66.514 C145.106,66.88 144.557,67.612 144.374,68.161 C143.093,70.54 142.727,70.906 141.446,73.285 C141.263,73.651 140.165,76.762 140.165,77.128 C139.616,79.873 138.518,80.239 138.335,82.984 C138.152,84.082 136.871,85.18 136.688,86.461 C136.688,87.376 135.59,88.108 135.59,88.84 C135.224,90.304 134.492,91.402 133.943,93.049 C133.394,95.062 132.845,97.075 131.93,99.088 C131.747,99.637 131.564,100.003 131.381,100.369 C129.551,104.395 127.721,108.604 125.159,112.264 C124.244,113.362 123.329,114.46 121.682,115.009 C121.499,115.009 121.133,114.826 120.95,114.826 C120.584,114.277 120.401,113.911 120.584,113.545 C120.95,112.996 120.95,112.264 120.95,111.715 C120.95,110.617 121.133,109.336 121.133,108.055 C120.95,106.408 121.133,104.578 120.767,102.748 C120.401,101.65 120.584,100.369 120.767,99.088 C120.95,98.722 120.95,98.173 120.95,97.624 C120.95,95.611 121.682,93.781 121.499,91.768 C121.499,91.585 121.499,91.402 121.682,91.219 C122.048,90.304 121.865,89.572 122.048,88.657 C122.048,88.108 122.048,87.376 122.231,86.827 C122.597,85.546 122.78,84.265 122.963,82.984 C123.146,81.703 123.512,80.422 123.695,79.141 C123.878,77.86 124.061,76.762 124.061,75.481 C124.244,73.834 124.427,72.004 123.878,70.357 C123.878,68.527 122.963,67.063 122.048,65.599 C121.316,64.684 120.584,63.952 119.852,63.037 C119.12,62.854 118.388,62.488 117.656,62.305 C116.558,62.122 115.277,61.939 114.179,61.573 C113.63,61.573 112.898,61.024 112.166,61.39 C111.617,61.024 111.068,61.024 110.519,61.207 C108.689,61.756 106.676,62.122 105.212,63.403 C104.48,63.952 103.931,64.135 103.199,64.684 C102.467,65.233 101.735,65.782 101.003,66.514 C99.356,67.795 98.075,69.259 96.977,71.089 C96.794,71.455 96.611,71.821 95.879,71.821 C95.879,71.455 96.062,71.272 96.062,70.906 C96.062,70.357 96.062,69.991 95.879,69.442 C95.696,68.893 95.696,68.344 95.696,67.795 C95.696,66.331 95.513,65.05 95.33,63.586 C95.33,63.403 95.513,63.22 95.513,63.22 C95.33,62.122 95.147,61.207 95.147,60.475 L95.147,57.364 C95.33,55.717 94.964,54.07 94.415,52.972 L94.415,48.031 C94.415,47.482 94.781,47.116 94.781,46.75 C94.964,46.201 94.781,45.835 94.964,45.469 C96.794,43.822 97.709,41.626 98.807,39.613 C99.722,37.966 100.271,36.136 101.186,34.489 C101.369,33.94 101.735,33.574 101.918,33.208 C102.101,32.659 102.101,32.11 102.284,31.561 C102.467,31.012 102.833,30.463 102.833,29.914 C103.016,28.084 103.748,26.62 104.48,24.973 C104.48,24.607 104.663,24.241 104.663,23.875 C105.029,22.045 105.395,20.032 106.127,18.385 C106.127,17.287 105.944,16.555 105.944,15.457 C106.127,14.725 106.31,13.993 106.493,13.261 C106.127,11.98 106.127,10.882 105.944,9.784 C105.578,8.503 105.029,7.405 104.48,6.307 C103.931,5.758 103.565,5.392 102.833,5.026 C102.65,4.843 102.101,4.843 101.552,4.66 C100.271,4.843 99.173,5.209 97.709,5.575 Z M94.232,41.443 C93.866,40.345 93.5,39.43 93.317,38.698 C92.951,37.966 92.768,37.051 93.134,36.502 C93.5,35.221 93.134,34.123 93.317,32.842 C93.5,31.744 93.5,30.646 93.317,29.548 C93.317,27.718 93.5,26.071 94.049,24.424 C94.781,22.411 95.147,20.215 95.696,18.202 C96.245,15.823 97.16,13.444 97.892,11.065 C98.075,10.699 98.441,10.333 98.624,9.967 L100.088,9.967 C101.003,10.15 101.552,10.882 101.918,11.431 C102.833,14.176 102.467,17.104 102.467,20.032 C102.284,20.764 102.101,21.679 101.918,22.411 C101.369,23.692 101.003,25.339 100.637,26.62 C100.088,28.45 99.356,30.463 98.807,32.476 C97.892,35.404 96.428,37.966 94.964,40.528 C94.964,40.894 94.598,41.077 94.232,41.443 Z M82.886,36.502 L82.703,36.502 L82.703,36.319 L82.886,36.502 Z M81.056,41.809 L80.873,41.992 L80.873,41.809 L81.056,41.809 Z" id="Combined-Shape"></path>
            <path d="M202.385,69.259 C202.385,69.259 202.934,67.246 202.751,66.88 C202.568,66.514 202.019,65.965 201.653,65.965 C201.287,65.965 200.921,65.233 200.738,65.233 C200.006,65.05 199.823,65.233 198.176,66.331 C194.699,68.527 193.418,73.102 192.137,77.128 C191.039,80.605 190.124,84.265 189.026,87.925 C188.843,88.84 188.66,89.938 188.477,90.853 C187.928,92.317 188.111,93.781 187.928,95.245 C187.379,97.807 187.013,100.552 186.281,103.114 C186.098,103.48 185.915,104.029 185.915,104.395 C185.915,105.676 185.366,106.591 185,107.689 C184.817,108.421 184.634,109.153 184.451,109.885 C183.536,113.545 182.255,117.022 180.608,120.316 C180.242,120.865 180.059,121.231 179.693,121.78 C179.51,121.963 179.327,121.963 178.961,122.146 C178.778,120.865 179.51,119.584 179.144,118.486 C178.961,117.388 178.961,116.107 178.961,115.009 C178.961,113.728 178.229,112.63 178.229,111.166 C178.595,110.068 178.595,108.97 178.046,107.506 C177.68,106.591 177.68,105.127 177.863,104.212 C178.412,101.833 178.046,99.454 177.863,97.075 C177.68,95.977 178.046,95.062 178.229,94.147 C177.497,92.866 177.497,91.768 177.68,90.67 C177.863,89.572 177.863,88.474 177.863,87.193 C177.68,86.095 177.68,84.997 177.68,83.899 C177.497,81.886 177.68,79.873 177.863,78.043 C178.046,75.664 178.229,73.285 178.046,70.906 L178.046,69.808 C178.595,68.527 178.412,67.246 178.046,66.148 C177.131,65.233 176.216,64.867 175.118,64.684 C172.19,64.501 169.445,65.233 166.883,64.501 C165.785,64.867 164.87,65.233 164.138,65.416 C163.223,65.965 163.04,66.88 162.491,67.429 C161.942,68.161 161.393,68.71 160.661,69.259 L160.661,70.906 C159.746,71.821 159.563,73.285 159.38,74.566 C159.197,75.298 159.014,76.03 158.831,76.579 C158.282,77.677 157.733,78.958 156.818,80.056 C155.903,81.52 155.171,83.167 153.89,84.448 C153.341,86.278 152.06,87.742 150.962,89.389 C149.132,92.317 147.302,95.245 145.838,98.356 C145.472,99.088 145.106,100.003 144.557,100.735 C144.374,101.101 144.008,101.284 143.642,101.467 C143.642,101.65 143.642,101.833 143.459,102.016 C143.093,101.467 143.459,101.65 143.825,101.467 C143.276,99.82 143.825,98.173 144.374,96.526 C144.923,94.879 145.655,93.232 146.204,91.402 C147.851,86.644 149.681,81.886 151.511,77.128 C151.877,76.579 152.243,76.213 152.609,75.664 C152.975,75.298 153.158,74.749 153.341,74.2 C153.707,73.651 153.89,72.919 154.256,72.37 C155.354,70.357 156.452,68.161 157.55,66.148 C158.282,65.05 159.014,63.952 159.746,62.854 C160.844,61.207 161.759,59.743 162.857,58.279 C163.772,57.547 164.687,56.632 165.419,56.083 C166.883,55.534 168.164,56.266 169.262,56.266 C170.726,56.266 172.007,56.266 173.471,56.449 C173.654,55.534 175.118,55.717 175.301,54.619 C175.118,54.436 174.935,54.253 174.935,54.253 C173.837,53.704 172.739,53.155 171.824,52.789 C169.445,52.972 167.249,52.423 164.87,52.606 C162.491,52.789 160.112,52.789 157.916,52.972 C157.367,53.338 156.818,53.704 156.269,54.07 C155.903,54.436 155.354,54.985 154.988,55.534 C153.707,56.998 152.06,58.279 150.962,59.926 C150.047,61.39 148.766,62.671 147.485,63.952 C146.204,65.599 144.74,67.063 143.825,68.71 C142.727,70.357 141.629,72.004 140.897,73.834 C140.531,74.749 139.982,75.664 139.616,76.396 C139.25,77.311 138.884,78.226 138.335,78.958 C137.969,79.873 137.786,80.971 137.054,81.52 C136.139,82.252 136.322,83.167 135.956,84.082 C134.492,86.461 133.76,89.023 132.662,91.585 C132.296,92.5 132.113,93.415 131.93,94.33 C131.564,97.075 131.015,100.003 130.283,102.748 C129.917,103.114 129.551,103.48 129.185,103.846 C129.368,104.395 129.368,104.761 129.551,105.31 C129.185,105.676 128.819,106.042 128.636,106.225 C129.185,109.153 129.734,111.898 130.466,115.009 C131.015,115.558 131.747,116.473 132.296,117.205 C135.773,119.035 139.433,119.218 142.91,119.767 C144.008,119.95 144.923,119.584 146.387,119.401 C146.936,119.584 147.851,119.767 148.766,119.218 C149.498,119.035 150.413,118.852 151.328,118.669 C151.694,118.486 152.06,118.303 152.426,117.937 C152.975,117.205 153.341,116.473 153.89,115.741 C154.622,114.826 155.354,113.911 156.086,112.996 C156.818,111.898 157.916,111.349 158.282,110.068 C159.563,109.336 159.929,108.055 160.661,106.957 C161.21,106.225 161.576,105.676 161.942,104.944 C162.308,105.676 162.674,106.408 162.857,107.14 C163.04,107.506 163.04,108.055 163.04,108.421 C163.223,109.519 163.04,110.8 163.406,111.898 C164.138,113.362 163.955,114.826 164.138,116.29 C164.321,117.754 164.687,119.401 164.87,120.865 C165.053,121.78 165.053,122.878 165.236,123.976 C165.602,125.989 166.151,127.819 167.066,129.649 C168.347,131.845 170.177,133.309 172.922,133.126 C174.203,132.943 175.301,132.943 176.582,132.943 C178.412,132.76 180.059,132.577 181.523,131.662 C182.438,130.93 183.353,130.015 184.085,129.466 C185.183,128.002 185.915,126.904 186.83,125.806 C187.013,125.44 187.379,125.074 187.562,124.525 C187.928,123.244 188.66,121.963 189.575,120.865 C189.941,120.133 190.307,119.401 190.673,118.486 C191.588,116.107 192.137,113.545 193.235,110.983 C194.15,108.787 194.699,106.774 194.333,104.395 C194.333,104.212 194.516,104.029 194.516,104.212 C194.882,103.114 195.248,102.565 195.431,101.833 C195.797,100.918 195.98,100.186 196.346,99.454 C196.163,98.356 196.346,97.258 196.529,96.343 C197.078,94.513 197.444,92.866 197.993,91.219 C198.542,89.938 198.725,88.84 198.542,87.559 C198.359,86.827 198.542,85.912 198.542,85.18 C198.725,84.265 198.908,83.35 199.091,82.069 C199.457,81.337 199.823,80.056 199.823,78.958 C200.006,77.128 200.372,75.481 200.921,73.834 C201.47,72.37 202.385,69.259 202.385,69.259 L202.385,69.259 Z" id="Path"></path>
            <path d="M250.88,127.819 C250.331,127.087 249.782,126.538 249.05,125.806 C249.05,125.44 249.05,124.708 248.684,124.525 C248.135,123.61 248.135,122.695 247.769,121.78 C247.952,121.597 247.952,121.414 247.952,121.231 C247.769,120.316 247.403,119.401 247.22,118.669 C247.037,117.022 246.854,115.558 246.488,114.094 C246.305,113.179 246.122,112.081 245.939,110.983 C245.939,109.702 245.756,108.238 245.573,106.957 C245.756,106.225 245.756,105.676 245.939,104.944 C245.939,104.029 245.939,103.297 245.756,102.382 C245.756,101.467 245.939,100.552 246.305,99.637 C245.939,98.722 245.573,97.624 246.122,96.709 C245.756,95.611 245.573,94.696 246.122,93.598 C246.305,93.415 246.305,93.049 246.305,92.683 C246.305,91.402 246.671,90.304 246.854,89.023 C247.403,87.193 247.403,83.533 247.037,81.52 C246.854,80.605 246.671,79.507 247.22,78.409 C247.037,78.043 246.854,77.86 246.854,77.494 C246.671,75.664 247.037,73.834 246.305,72.004 L246.305,71.821 C246.305,69.625 245.756,67.795 245.207,65.782 C244.475,63.769 243.926,61.573 243.377,59.377 C242.462,56.449 240.449,54.253 238.07,52.972 C236.972,52.972 236.24,52.972 235.508,52.789 C234.776,52.423 234.044,53.155 233.312,52.423 C231.848,52.423 230.384,52.606 229.103,53.155 C227.273,54.253 225.626,55.351 224.162,56.632 C220.685,60.109 217.208,63.586 214.646,67.795 C214.463,67.978 214.28,67.978 214.097,68.161 C213.914,67.978 213.731,67.795 213.548,67.795 C213.182,66.88 212.999,65.965 212.633,64.867 C212.084,63.403 211.535,61.756 210.803,60.292 C210.254,59.194 209.339,57.913 208.607,56.998 C207.143,55.351 205.862,53.704 204.215,52.606 C202.202,51.691 200.006,51.691 198.359,50.776 C196.163,50.776 194.333,50.227 191.954,50.593 C191.222,50.959 190.307,51.325 189.209,51.691 C189.026,52.057 188.843,52.423 188.66,52.789 C188.294,53.155 187.928,53.338 188.111,53.887 C188.111,54.07 188.294,54.436 188.477,54.619 C189.392,54.985 190.307,54.619 191.222,54.985 C191.405,55.351 191.588,55.534 191.771,55.9 C191.771,58.096 191.771,60.292 191.954,62.488 C191.954,64.684 191.222,66.88 191.222,69.259 L191.222,69.625 C190.856,70.357 190.856,71.272 190.856,72.187 C190.673,73.102 190.49,74.017 190.49,74.932 C190.124,77.494 189.575,80.056 189.758,82.618 L189.758,83.35 C189.209,84.448 189.392,85.546 189.392,86.644 L189.392,92.683 C189.392,93.049 189.209,93.598 189.392,94.147 C189.941,95.611 189.758,97.075 189.758,98.539 C189.758,100.186 190.307,101.65 190.856,103.297 C191.405,104.944 192.137,106.408 192.686,108.055 C194.882,110.617 197.444,112.081 200.372,111.715 C202.934,110.617 205.313,109.885 206.96,108.604 C208.424,106.591 209.888,104.761 211.352,103.297 C211.901,101.101 211.901,98.905 213.365,97.624 C213.548,96.343 213.731,95.428 213.914,94.147 C213.731,93.598 213.548,93.049 213.731,92.683 C214.097,92.134 213.731,91.402 213.731,90.853 C213.914,90.121 214.097,89.389 214.097,88.657 L214.097,86.644 C214.097,86.095 213.914,85.546 214.097,84.997 C214.646,83.533 214.646,82.069 214.646,80.605 C214.463,79.141 214.829,77.86 215.378,76.396 C216.11,74.383 217.574,72.553 218.855,70.723 C220.502,68.161 222.332,65.782 224.162,63.403 C225.443,61.939 226.724,60.841 228.188,59.743 C228.371,59.56 228.737,59.56 229.103,59.377 C229.103,61.024 229.286,62.488 228.92,63.952 C228.554,65.965 228.188,68.161 227.822,70.174 C227.456,71.455 227.273,72.736 227.09,74.017 C226.907,75.481 226.907,76.762 226.541,78.043 C226.175,79.324 226.358,80.605 225.992,81.703 C225.626,82.984 225.809,84.265 225.626,85.546 L225.626,86.278 C225.077,87.559 225.26,88.84 225.077,90.121 L225.077,91.402 C224.894,91.951 224.711,92.317 224.894,92.866 C225.077,93.232 224.894,93.781 224.894,94.33 C225.077,95.977 225.077,97.807 225.077,99.454 C225.077,101.65 225.26,103.846 225.26,106.042 C225.26,106.408 225.26,106.957 225.443,107.323 C225.626,108.055 225.626,108.787 225.626,109.519 C225.626,112.63 225.992,115.558 226.724,118.486 C227.09,119.767 227.456,121.048 228.005,122.146 L228.005,122.329 C228.005,122.695 228.005,122.878 228.188,123.061 C228.188,123.244 228.371,123.244 228.371,123.427 C228.554,123.976 228.554,124.708 228.737,125.44 C230.018,125.989 230.384,127.087 230.933,128.185 C230.75,128.551 230.384,128.917 230.201,129.1 L230.201,130.198 C231.299,130.564 231.482,131.845 232.031,132.577 C232.946,133.126 233.678,133.675 234.593,134.224 C236.423,135.322 238.253,136.237 240.449,136.42 C240.998,136.42 241.547,136.603 241.73,136.603 C242.828,136.42 243.56,136.42 244.109,136.237 C245.39,136.054 246.488,135.871 247.22,134.773 C247.403,134.59 247.586,134.407 247.952,134.224 C248.684,134.041 249.233,133.309 249.599,132.577 C249.782,132.394 249.965,132.211 249.965,132.028 C249.965,131.662 249.782,131.296 249.782,131.113 C250.331,130.93 250.697,130.747 250.88,130.564 L250.88,127.819 Z" id="Path"></path>
            <path d="M315.662,159.478 C315.113,159.478 314.564,159.295 314.015,159.295 L313.466,158.746 C313.649,158.38 313.832,158.014 313.832,157.648 C313.649,156.916 312.917,157.465 312.734,156.733 C313.283,156.733 313.649,156.55 314.198,156.55 C314.198,156.184 314.015,156.001 314.015,155.818 C313.283,155.818 312.551,156.367 311.636,156.184 C311.819,156.001 311.819,155.818 311.819,155.635 C310.172,155.086 308.525,154.537 307.061,153.805 C306.146,153.256 305.231,152.707 304.316,151.975 C304.133,151.792 303.767,151.792 303.584,151.792 C303.218,151.243 303.035,150.877 302.669,150.511 C302.303,150.328 302.303,150.328 302.12,149.962 L301.571,149.962 C300.839,149.23 300.839,148.132 300.473,147.217 L300.473,145.204 C300.473,145.021 300.29,144.838 300.107,144.655 C299.924,145.204 300.107,145.753 299.741,146.302 C299.558,146.302 299.375,146.119 299.009,146.119 C298.094,145.204 298.277,143.557 297.362,142.642 C297.362,142.276 297.728,141.91 297.545,141.544 C297.179,141.544 296.813,141.544 296.447,141.727 C296.447,141.178 296.447,140.629 296.264,140.08 C296.264,139.897 296.081,139.714 295.898,139.714 C295.715,139.165 295.532,138.799 295.532,138.25 L295.532,135.505 C295.166,135.322 294.983,135.139 294.617,134.773 C294.617,134.407 294.617,133.675 294.434,133.126 C294.068,132.028 293.702,130.747 293.519,129.466 C293.519,129.283 293.336,129.283 293.153,129.1 C292.787,129.1 292.421,129.1 292.055,129.283 C292.055,129.1 292.055,128.917 292.238,128.551 C292.055,128.002 291.689,127.27 291.506,126.538 C291.323,125.806 291.506,124.891 291.323,124.159 C291.14,123.244 291.14,122.329 291.14,121.414 C290.957,120.499 290.225,119.584 289.859,118.669 L289.859,118.303 C289.859,117.937 290.042,117.571 290.042,117.388 L289.31,117.388 C289.31,117.022 289.127,116.839 289.127,116.473 C289.127,115.741 289.31,115.009 289.127,114.277 C289.127,113.362 288.761,112.63 288.578,111.898 C288.395,111.166 288.395,110.434 288.212,109.702 C287.663,108.238 287.297,106.591 287.297,104.944 C287.114,104.578 286.931,104.395 286.748,104.029 C286.382,103.114 286.199,102.199 286.016,101.284 C285.833,100.369 285.284,99.454 285.101,98.722 C284.918,97.807 284.918,96.709 284.369,95.977 C284.003,95.062 284.003,94.147 283.637,93.415 C283.271,92.5 283.271,91.402 282.539,90.487 C282.173,90.304 281.807,90.121 281.258,89.938 C281.075,89.755 281.075,89.389 280.892,89.206 C280.709,89.206 280.526,89.206 280.343,89.389 C279.977,88.84 279.611,88.291 279.245,87.742 C278.513,87.376 277.781,87.559 277.598,86.827 C277.598,86.278 277.598,85.912 277.781,85.363 C278.147,84.814 278.513,84.265 278.879,83.716 C279.245,82.984 279.611,82.252 279.977,81.52 C281.807,78.592 283.454,75.847 285.65,73.285 C285.833,72.919 286.016,72.736 286.016,72.37 C286.382,71.821 286.748,71.272 287.114,70.723 L287.297,70.54 L288.029,70.54 C288.578,69.625 289.127,68.71 289.859,67.978 C290.225,67.429 290.591,66.697 290.957,65.965 C291.323,64.684 291.872,63.586 292.604,62.305 C293.153,61.024 293.885,59.926 294.617,58.645 C295.349,56.998 295.898,55.351 295.898,53.521 C295.349,52.789 294.8,52.057 294.434,51.508 C293.702,50.776 292.97,50.41 292.421,49.861 C290.591,49.495 289.127,50.227 287.846,51.508 C285.65,53.704 283.271,55.9 281.075,58.279 C280.709,58.645 280.343,59.011 279.977,59.377 C278.33,61.939 276.317,64.135 274.853,66.88 C274.487,67.429 274.121,67.978 273.755,68.527 C273.572,68.344 273.572,68.161 273.572,68.161 C273.572,65.416 273.389,62.671 273.389,59.926 C273.389,58.279 273.572,56.815 273.023,55.168 C273.023,54.802 273.023,54.253 273.206,53.887 C273.572,52.972 273.572,52.24 273.206,51.508 C273.572,50.227 274.304,49.129 275.219,48.214 C275.402,48.031 275.585,47.848 275.768,47.482 C276.5,46.201 277.415,44.92 278.33,43.639 C278.696,42.724 279.062,41.992 279.428,41.077 C279.611,40.345 279.794,39.613 280.16,38.881 C280.526,37.783 280.709,36.685 281.075,35.587 C281.258,35.038 281.258,34.123 281.624,33.574 C281.99,32.659 281.807,31.744 282.173,30.829 C282.356,30.097 282.539,29.182 282.539,28.267 L282.539,24.607 L282.539,23.143 C282.539,22.411 282.356,21.862 282.539,21.313 C282.905,20.764 282.356,20.398 282.356,19.849 C282.539,18.202 282.539,16.372 282.539,15.457 C281.624,12.346 281.075,10.15 280.526,7.771 C280.343,7.588 280.16,7.405 279.977,7.039 C279.611,4.66 278.33,2.647 276.317,1.366 C275.402,1.183 274.487,1.183 273.755,1 C273.206,1.366 272.657,1.549 272.291,1.915 C271.193,2.83 269.912,3.379 268.448,3.745 C267.533,3.745 266.801,4.111 265.886,4.294 C265.703,4.477 265.337,4.66 265.154,4.843 C264.971,5.209 264.788,5.392 264.605,5.758 C263.873,7.039 263.141,8.32 262.409,9.601 C261.86,10.699 261.494,11.614 261.311,12.712 C261.128,13.81 260.762,14.725 260.396,15.823 C259.481,18.934 258.749,21.862 258.017,24.973 C257.834,26.437 257.651,27.901 257.285,29.182 C257.102,29.914 257.102,30.463 256.919,31.195 C256.736,32.293 256.736,33.391 256.553,34.672 C256.553,34.672 256.736,35.038 256.736,35.221 C256.553,35.77 256.37,36.136 256.004,36.685 C256.37,37.6 256.187,38.515 256.187,39.43 C256.37,39.247 256.553,39.247 256.919,39.064 C256.736,40.711 256.919,41.992 256.736,43.456 C256.37,44.92 256.37,46.384 256.004,48.031 C256.187,48.214 256.37,48.763 256.37,49.129 C256.187,49.861 256.37,50.776 256.37,51.508 C256.37,52.24 256.187,52.789 256.187,53.521 C256.187,53.704 256.004,53.887 256.187,54.07 C256.37,54.802 256.004,55.351 256.004,56.083 L256.004,58.279 L256.004,60.292 C255.821,61.207 255.638,62.122 255.272,63.22 C255.272,63.22 255.455,63.586 255.455,63.769 L255.455,68.71 C254.906,69.808 255.089,70.906 255.089,72.187 C255.089,73.285 254.723,74.566 254.723,75.664 C254.54,77.311 254.906,79.141 254.357,80.788 C254.174,80.788 254.357,80.971 254.357,80.971 C254.357,81.154 254.54,81.337 254.54,81.52 C254.54,82.069 254.174,82.618 254.357,82.801 C254.54,83.35 254.174,83.716 254.174,84.082 L254.174,85.363 L254.174,87.925 C254.174,88.657 253.991,89.389 253.808,90.304 C253.991,90.304 253.991,90.304 253.991,90.487 C254.174,91.768 254.723,93.232 254.54,94.513 L254.54,96.526 C254.906,97.075 255.089,97.624 255.455,98.173 L255.455,98.356 C255.272,98.722 255.272,99.088 255.089,99.454 C255.638,102.199 255.821,105.31 255.272,105.859 C254.906,105.493 255.089,104.761 254.357,104.761 C254.357,105.676 254.357,105.859 255.089,107.323 C255.272,107.323 255.638,107.323 255.821,107.506 C256.187,108.055 256.553,108.787 256.919,109.519 C257.102,111.532 257.285,113.545 257.651,115.558 C257.285,115.741 256.919,115.924 256.736,115.924 C256.736,117.205 257.651,118.12 258.2,119.218 C258.2,119.401 258.017,119.584 258.017,119.584 C257.651,119.584 257.468,119.218 256.919,119.584 C256.736,119.95 257.102,120.316 257.102,120.316 C257.102,121.048 256.919,121.78 256.919,122.329 C258.2,123.427 259.298,124.891 259.847,126.538 C260.762,127.819 262.409,128.368 262.958,129.649 C264.971,130.381 265.886,132.028 267.35,133.309 C268.448,132.577 268.814,131.479 268.997,130.381 C269.546,128.551 269.912,126.538 271.01,124.891 C271.376,124.159 271.559,123.61 271.742,122.878 C271.742,121.963 272.108,121.231 272.291,120.316 C272.474,119.767 272.657,119.218 272.657,118.486 C273.023,118.12 273.206,117.754 273.389,117.205 C273.572,115.558 274.304,113.545 275.219,111.898 L275.219,112.081 C275.951,114.643 276.134,117.022 276.5,119.584 C276.866,121.231 277.232,122.878 277.964,124.525 C278.147,124.891 278.33,125.44 278.513,125.989 C279.245,129.1 280.16,132.394 281.441,135.505 C282.173,137.518 283.088,139.348 283.82,141.361 C284.735,144.289 286.382,147.034 288.395,149.23 C290.042,151.243 291.872,153.073 293.519,154.903 C294.434,155.818 295.349,156.55 296.081,157.831 C296.264,158.197 296.63,158.38 296.996,158.746 C298.094,159.478 299.192,160.21 300.29,160.942 C300.107,161.125 299.924,161.308 299.741,161.491 C299.924,161.674 300.107,161.674 300.473,161.857 C300.107,162.04 299.924,162.04 299.558,162.04 C299.192,162.04 299.009,161.857 298.643,161.674 C298.643,161.857 298.46,162.04 298.277,162.406 C298.643,162.406 299.009,162.406 299.375,162.589 C300.839,163.138 302.486,163.504 304.133,163.504 C305.414,164.053 306.512,163.87 307.793,163.87 C307.976,164.053 308.159,164.236 308.342,164.236 C309.074,164.236 309.623,164.419 310.355,164.236 C311.453,164.053 312.551,163.87 313.283,163.138 C314.198,162.406 314.93,161.491 315.845,160.759 C315.662,160.21 315.662,159.844 315.662,159.478 Z M272.657,44.92 C272.84,43.09 272.291,41.26 272.84,39.43 C272.84,38.881 272.474,38.149 272.657,37.417 C272.657,36.685 272.657,35.953 272.474,35.404 C272.108,34.489 272.291,33.757 272.474,32.842 C272.657,31.927 272.291,31.012 272.474,30.28 C272.474,29.365 272.657,28.633 272.657,27.718 L272.657,25.156 C272.474,23.692 272.474,22.228 272.108,20.947 C271.742,19.849 271.559,18.568 271.376,17.47 C271.559,16.555 271.742,15.823 271.742,14.908 C271.559,13.444 271.925,11.98 271.376,10.699 C271.193,10.333 271.376,9.784 271.559,9.418 C271.925,8.503 272.108,7.588 272.291,7.039 C272.657,6.307 273.206,6.124 273.755,6.307 C273.938,6.49 274.121,6.673 274.121,6.856 C275.036,7.954 275.402,9.235 275.768,10.516 C276.683,13.078 277.415,15.64 277.781,18.202 C278.33,20.764 278.513,23.143 278.33,25.705 C277.781,27.718 278.33,29.731 277.598,31.744 C277.598,33.94 276.866,35.953 276.5,37.966 C275.951,40.162 275.219,42.358 274.121,44.188 C273.755,44.737 273.572,45.103 273.206,45.835 C273.023,45.469 272.657,45.103 272.657,44.92 Z M274.67,78.409 C274.67,78.409 274.487,78.409 274.487,78.226 L274.67,78.226 L274.67,78.409 Z M281.258,65.233 C281.441,65.416 281.258,65.416 281.258,65.416 L281.258,65.233 Z M275.585,78.043 L274.853,78.043 C274.853,77.494 274.853,76.762 275.585,76.396 C275.768,76.579 275.951,76.762 276.134,76.945 C275.951,77.311 275.768,77.677 275.585,78.043 Z M275.951,75.847 L275.585,75.847 C275.219,75.481 275.585,75.298 275.768,75.115 C276.5,73.834 276.866,72.553 277.598,71.272 C278.513,69.442 279.428,67.429 280.709,65.782 C280.892,65.599 280.892,65.599 281.075,65.599 L281.075,66.331 C280.16,68.161 279.428,70.174 278.513,72.004 C277.781,73.285 276.683,74.566 275.951,75.847 Z M287.48,119.767 L287.48,119.035 C287.846,119.035 287.846,119.401 287.48,119.767 Z M287.48,118.852 C287.297,118.852 287.114,118.669 287.114,118.486 C286.931,117.205 286.931,115.741 286.565,114.277 C286.382,113.362 286.565,112.264 286.565,110.8 C287.297,112.996 287.663,114.826 288.212,116.839 C288.029,117.388 287.663,118.12 287.48,118.852 Z M288.578,118.669 C288.578,118.852 288.761,119.218 288.761,119.401 C288.212,119.218 288.578,118.852 288.578,118.669 Z M290.957,129.649 C290.957,129.649 290.774,129.649 290.774,129.466 C290.774,129.466 290.957,129.466 290.957,129.283 L290.957,129.649 Z M290.225,128.551 C290.225,128.185 290.408,127.819 290.408,127.27 C290.225,127.087 290.042,127.087 289.859,126.904 C290.408,125.989 290.042,125.257 289.31,124.525 C289.31,124.525 289.493,124.342 289.493,124.159 C289.31,123.976 289.127,123.976 288.944,123.793 C288.761,123.427 288.578,123.061 288.578,122.695 C288.761,122.512 288.761,122.512 288.944,122.329 C288.761,121.597 288.578,120.682 288.578,119.95 C288.578,119.767 288.761,119.584 288.761,119.401 C288.944,119.584 289.127,119.584 289.127,119.584 C289.127,120.133 289.127,120.682 289.31,121.048 C289.493,121.78 289.859,122.512 290.042,123.244 C290.591,124.891 290.774,126.721 291.506,128.368 L291.506,129.283 L290.957,129.283 C290.774,129.1 290.591,128.734 290.225,128.551 Z M291.506,131.479 C291.323,131.479 291.14,131.296 291.14,131.296 C291.14,131.296 291.323,131.113 291.506,131.113 L291.506,131.479 Z M292.604,133.675 C292.238,133.492 291.872,133.126 291.506,132.76 L291.506,131.479 C291.689,131.296 291.689,131.296 291.506,131.113 C291.323,130.564 291.14,130.198 290.957,129.649 C291.14,129.649 291.323,129.466 291.506,129.283 L291.872,129.283 C291.872,130.381 292.421,131.296 292.787,132.211 C292.787,132.76 292.97,133.126 292.604,133.675 Z M293.519,137.335 C293.153,136.603 293.336,135.688 293.519,134.956 L294.068,137.152 C293.885,137.152 293.702,137.335 293.519,137.335 Z M294.617,139.165 C294.068,138.982 293.885,138.616 293.702,138.067 C294.068,138.067 294.251,137.884 294.251,137.884 C294.617,138.25 294.617,138.799 294.617,139.165 Z M294.983,140.446 C294.8,140.446 294.617,140.263 294.617,139.897 L294.617,139.165 C295.166,139.531 294.983,140.08 294.983,140.446 Z M295.166,140.629 C295.166,140.629 295.349,140.629 295.349,140.812 C294.983,140.995 295.166,140.812 295.166,140.629 Z M295.715,139.897 C295.532,139.714 295.715,139.714 295.898,139.714 L295.715,139.897 Z M295.715,141.361 C295.898,141.727 295.898,142.093 295.898,142.276 C295.349,142.093 295.532,141.91 295.715,141.361 Z M295.898,142.459 L296.264,142.459 C295.898,142.825 296.081,142.459 295.898,142.459 Z M303.584,152.158 C303.401,152.158 303.035,152.158 302.852,151.975 C302.852,151.975 302.852,151.975 302.852,151.792 L303.584,151.792 L303.584,152.158 Z M304.499,153.073 C303.767,153.073 303.767,153.073 303.584,152.341 C303.95,152.341 304.499,152.524 304.499,153.073 C304.865,153.073 304.865,153.256 304.865,153.622 C304.682,153.622 304.499,153.439 304.499,153.073 Z M305.048,153.805 C305.048,153.805 305.048,153.622 304.865,153.622 L305.231,153.622 C305.231,153.805 305.231,153.805 305.048,153.805 Z M305.963,154.72 C306.146,154.537 306.146,154.72 306.146,154.903 C306.146,154.72 306.146,154.72 305.963,154.72 Z M306.329,154.903 L307.61,154.903 C306.695,155.452 306.695,155.452 306.329,154.903 Z M309.989,156.001 C309.989,156.001 310.172,156.001 310.172,155.818 L310.172,156.184 C310.172,156.184 309.989,156.184 309.989,156.001 Z M310.355,156.184 L311.636,156.184 C311.087,156.733 310.904,156.733 310.355,156.184 Z M312.917,158.38 C312.734,158.38 312.734,158.197 312.734,158.197 L312.734,158.014 C312.917,158.014 312.917,158.197 312.917,158.197 L312.917,158.38 Z" id="Combined-Shape"></path>
            <path d="M388.13,52.24 C386.117,49.495 383.738,47.116 381.176,45.652 C379.529,45.286 378.614,45.103 377.516,44.737 C377.15,44.92 376.967,44.92 376.784,45.103 C376.052,44.92 375.137,44.554 374.405,44.371 C372.392,45.286 371.294,47.299 369.647,48.946 C369.098,50.41 368.183,51.508 366.902,52.24 C366.353,53.521 366.17,54.619 366.17,55.717 C366.17,57.364 366.353,58.828 365.804,60.292 C365.621,60.841 365.804,61.39 365.804,61.939 C365.804,63.22 365.804,64.501 365.438,65.965 C365.072,67.246 365.072,68.527 364.523,69.808 C363.608,72.004 363.242,74.383 361.778,76.396 C361.778,76.579 361.778,76.945 361.595,77.128 C360.68,79.873 359.399,82.618 358.118,85.18 C357.752,85.912 357.569,85.912 356.471,86.644 C356.288,86.461 356.105,86.278 356.105,85.912 C355.922,84.814 356.288,83.899 356.471,82.801 C356.837,80.788 356.837,78.958 357.02,76.945 C357.203,76.579 357.386,76.213 357.386,75.664 C357.569,74.566 357.752,73.468 357.935,72.187 C357.752,71.821 357.386,71.272 357.203,70.906 C357.02,69.625 356.471,68.527 356.471,67.246 C356.654,65.965 356.471,64.684 356.471,63.403 C355.556,62.305 354.824,61.207 354.092,60.292 C353.36,57.181 353.36,56.449 351.53,54.436 C351.53,53.887 351.347,53.155 351.347,52.606 C350.066,51.691 349.151,50.959 348.053,50.044 C347.87,50.227 347.687,50.227 347.504,50.227 C346.406,49.678 345.125,49.129 343.661,48.58 C342.746,48.763 341.648,48.031 340.367,47.848 C340.001,48.031 339.452,48.397 338.903,48.58 C338.537,48.763 338.72,49.495 338.171,49.495 C336.89,49.129 335.792,48.946 334.694,48.58 C334.511,48.763 334.511,48.946 334.145,49.312 C334.694,49.678 335.06,49.861 335.609,50.227 C335.426,51.508 335.792,52.972 335.243,54.253 C335.06,55.168 334.877,56.083 335.426,56.815 C335.06,57.364 335.792,57.913 335.609,58.279 C335.243,59.194 335.609,60.109 335.609,60.841 C335.426,61.573 335.609,62.122 335.426,62.671 C335.06,63.586 335.243,64.501 335.426,65.05 C335.243,66.331 335.06,67.246 334.877,68.161 C335.06,68.71 335.426,69.259 335.609,69.808 C335.792,70.723 335.609,71.638 335.243,72.37 C334.694,73.285 335.792,74.2 335.06,74.932 L335.06,77.311 C334.877,78.043 334.694,78.409 334.511,78.958 C335.06,79.69 334.694,80.422 334.877,81.154 C335.06,81.886 335.243,82.618 334.877,83.35 C334.694,84.082 335.243,84.631 334.877,85.18 C334.511,85.729 335.06,86.278 335.06,86.827 C335.06,88.108 335.243,89.206 335.426,90.487 C335.426,90.853 335.243,91.219 335.243,91.219 C335.609,93.049 336.524,94.696 335.792,96.16 C336.158,96.892 336.158,97.258 336.341,97.624 C336.158,99.454 337.256,100.735 337.256,102.382 L338.171,102.382 C337.805,103.114 337.622,103.663 337.439,104.212 C338.171,105.127 339.086,106.042 340.001,106.957 C340.55,107.14 341.099,107.14 341.648,107.323 C342.197,107.506 342.746,107.689 343.112,107.506 C344.21,107.323 345.308,107.506 346.406,107.689 C346.406,107.506 346.406,107.323 346.589,107.14 C346.772,107.323 346.772,107.506 346.772,107.689 C348.602,107.689 350.432,107.872 352.262,107.323 C352.628,107.689 352.628,108.238 353.36,108.055 C353.543,107.689 353.909,107.14 354.275,106.774 C354.824,106.591 355.19,106.408 355.556,106.225 C356.105,106.408 356.654,106.591 357.203,106.774 C357.752,106.042 358.301,105.31 358.85,104.761 C359.216,104.578 359.582,104.578 359.948,104.212 C360.497,104.029 360.863,103.663 361.229,103.48 C361.595,103.297 361.595,102.748 362.144,102.931 C362.327,103.846 362.327,104.944 362.51,105.859 C362.51,106.408 361.595,106.591 361.961,107.323 C362.327,107.506 362.693,106.957 363.242,107.506 C362.327,109.519 363.059,111.898 362.693,113.911 C362.876,114.46 363.059,114.643 363.242,115.009 C362.876,115.741 362.51,116.656 362.693,117.388 C362.693,118.12 362.51,118.852 362.327,119.401 C362.327,119.767 362.51,119.95 362.693,120.316 C362.876,121.231 362.144,122.146 362.51,123.061 C362.327,123.61 362.144,123.976 361.778,124.159 C361.961,124.525 362.144,124.708 362.144,124.891 C362.144,125.257 361.961,125.623 361.961,125.806 C362.327,125.989 362.693,126.172 363.059,126.355 C363.059,126.538 363.059,126.721 362.876,127.087 C362.51,126.904 362.144,126.904 361.778,126.904 C361.961,127.27 361.961,127.819 362.144,128.185 C362.144,128.734 361.961,129.466 361.778,129.832 C361.961,130.747 361.961,131.296 362.144,131.845 C361.412,132.76 361.778,133.858 361.778,134.773 C361.595,135.322 361.595,136.054 361.412,136.603 C361.412,136.786 361.595,136.969 361.778,137.152 C361.046,138.25 361.046,139.348 361.412,140.629 L361.595,140.812 C361.778,141.178 361.961,141.361 362.144,141.727 C362.144,142.642 362.327,143.374 361.961,144.289 C361.778,144.106 361.595,143.923 361.229,143.557 C361.229,144.472 361.046,145.204 361.046,145.753 C360.68,145.936 360.497,146.119 360.314,146.302 C360.68,146.485 360.863,146.668 360.863,146.668 C360.863,147.4 360.68,148.132 360.68,148.681 C361.046,149.23 361.229,149.779 361.595,150.328 C361.778,150.694 361.778,151.06 361.412,151.426 C361.046,151.06 360.497,150.511 360.131,150.145 C359.765,150.328 359.582,150.511 359.948,150.877 C360.131,151.06 360.314,151.243 360.497,151.243 C360.68,151.975 360.863,152.707 361.046,153.439 C360.863,153.622 360.68,153.622 360.314,153.805 C360.497,155.086 361.412,156.001 361.961,157.099 C361.778,157.282 361.595,157.465 361.412,157.465 C361.595,158.38 362.327,158.197 362.876,158.38 C363.425,158.38 363.791,158.563 363.974,159.112 C363.425,159.478 362.693,159.478 362.327,160.21 C363.059,160.942 363.791,161.491 364.706,161.674 C365.255,161.491 365.804,161.674 366.353,161.674 C366.719,161.308 366.902,161.125 367.085,160.942 C368,160.759 368.915,160.942 369.647,160.576 C370.379,160.393 371.294,160.393 372.209,160.027 C373.49,158.929 374.954,158.197 376.967,158.197 C377.15,156.916 378.065,156.367 378.98,156.001 C379.163,155.269 378.797,154.72 379.346,154.354 L379.895,154.354 C380.261,153.805 380.627,153.256 380.993,152.707 C380.993,151.609 381.176,150.694 380.993,149.962 C380.444,148.864 380.627,147.766 380.627,146.485 C380.444,145.936 380.444,145.57 380.444,145.021 C380.444,144.472 380.078,143.923 380.078,143.191 C380.078,142.642 380.261,141.91 380.261,141.361 C380.261,141.178 380.078,140.995 380.078,140.812 C379.895,140.629 379.712,140.446 379.712,140.263 C379.529,139.531 379.712,138.616 379.712,138.067 C379.346,137.335 379.163,136.969 378.98,136.603 C378.797,136.237 378.614,135.871 378.248,135.871 C377.882,136.969 377.699,138.067 377.333,139.531 C376.967,138.25 376.784,137.152 376.601,136.237 C377.15,134.956 376.967,133.492 376.967,132.028 C376.601,131.296 376.418,130.381 376.052,129.832 C376.052,128.734 375.869,127.636 376.418,126.721 C376.601,125.989 376.052,125.074 376.235,124.342 L376.235,124.159 L376.052,123.976 C376.052,123.244 376.235,122.512 376.418,121.597 C376.235,121.048 376.052,120.316 376.052,119.584 C376.235,118.12 376.601,116.656 376.967,115.192 C377.15,114.46 377.333,113.911 377.516,113.179 C378.065,111.166 378.248,109.153 378.98,107.14 C379.529,105.676 379.712,104.029 379.895,102.565 C380.078,102.199 380.078,101.833 380.078,101.467 C380.078,100.003 380.444,98.722 380.81,97.258 C380.993,97.075 380.993,96.709 380.993,96.526 C381.176,95.794 380.993,94.879 381.176,94.33 C381.725,93.598 381.176,92.866 381.359,92.134 C381.725,91.402 381.542,90.67 381.542,89.755 C381.725,88.474 381.908,87.376 382.457,86.095 C383.006,85.18 383.189,84.082 383.189,82.984 C383.189,82.618 383.189,82.069 383.372,81.703 C383.738,80.422 384.104,79.141 384.47,77.86 C384.836,76.213 384.836,74.566 385.202,73.102 C385.751,70.723 386.3,68.344 386.3,65.782 C386.849,64.501 386.666,63.037 386.849,61.756 C387.398,60.658 387.764,59.56 388.13,58.645 C388.13,56.449 388.313,54.253 388.13,52.24 Z M338.537,99.82 L338.354,99.82 L338.354,99.637 L338.537,99.82 Z M362.693,125.806 C362.876,125.074 362.876,124.891 362.876,124.708 C363.059,124.708 363.059,124.891 363.059,124.891 C363.059,125.074 363.059,125.257 362.693,125.806 Z M365.438,107.689 L365.621,107.872 L365.255,107.872 C365.438,107.872 365.438,107.872 365.438,107.689 Z M363.974,125.074 C363.608,124.159 363.425,123.427 363.242,122.695 C363.425,122.512 363.791,122.329 363.974,122.146 C364.34,123.61 364.34,123.61 363.974,125.074 Z M364.706,111.349 L364.706,111.715 C364.523,111.532 364.523,111.532 364.34,111.532 C364.523,111.349 364.523,111.349 364.706,111.349 Z M365.072,136.054 L364.889,136.054 L365.072,135.871 L365.072,136.054 Z M365.072,132.394 L365.072,132.577 L364.889,132.394 L365.072,132.394 Z M365.255,119.584 C365.255,119.767 365.072,119.95 364.889,120.316 C364.523,119.218 364.889,118.486 364.889,117.388 C365.438,118.12 365.072,118.852 365.255,119.584 Z M365.804,112.63 C365.804,113.545 365.621,114.277 365.621,115.192 L365.072,115.192 C365.072,115.009 364.889,114.826 364.889,114.826 C364.889,114.094 365.072,113.362 365.072,112.447 C365.072,112.264 364.889,112.081 364.706,111.715 C364.889,111.532 364.889,111.532 365.072,111.349 C364.889,111.349 364.889,111.349 364.706,111.166 C364.889,110.617 364.889,110.068 364.889,109.336 C365.072,109.153 365.255,108.97 365.438,108.787 C365.804,109.336 365.987,109.702 366.17,110.068 C365.987,110.8 365.621,111.715 365.804,112.63 Z M369.281,98.722 C369.098,98.905 369.098,98.905 368.915,98.722 L369.098,98.539 L369.281,98.722 Z M367.451,106.225 L367.634,106.225 L367.451,106.408 L367.451,106.225 Z M366.719,117.571 L366.536,117.571 L366.536,117.388 L366.719,117.571 Z M367.085,114.46 C366.719,113.911 366.719,113.911 367.085,112.996 C367.451,113.362 367.268,113.911 367.085,114.46 Z M367.817,123.427 C367.634,123.244 367.634,122.878 367.451,122.512 C367.817,122.695 368,122.695 368.183,122.695 L368.183,124.342 L368,124.342 C368,123.976 367.817,123.61 367.817,123.427 Z M368.183,126.355 L368,126.355 L368,126.172 L368.183,126.355 Z M368,121.414 C367.817,121.414 367.634,121.231 367.451,121.231 C367.268,120.682 367.451,120.316 368,120.133 C368.549,120.499 368.183,121.048 368,121.414 Z M367.451,112.081 L367.451,111.898 L367.634,111.898 L367.451,112.081 Z M368,119.218 C367.634,118.486 367.634,117.754 368,117.022 C368.366,117.754 368.549,118.486 368,119.218 Z M368,115.558 C368.366,115.741 368.183,115.924 368,116.29 L368,115.558 Z M369.281,109.153 C369.281,109.519 369.281,110.068 369.098,110.434 C369.098,110.8 368.732,111.166 368.366,112.081 C368.366,110.617 368.366,109.519 368.183,108.421 C368,108.238 367.634,108.238 367.451,108.238 C367.634,108.787 367.634,109.336 367.817,109.885 C367.634,109.885 367.451,110.068 367.268,110.251 C367.085,110.068 366.902,110.068 366.902,110.068 C367.268,109.153 366.536,108.238 366.902,107.323 C367.268,107.323 367.634,107.14 368.183,106.957 C368.549,106.042 368.366,105.127 368,104.212 C368.183,104.029 368.366,103.846 368.549,103.48 C369.098,102.931 368.366,102.382 368.732,101.833 C368.915,101.284 368.915,100.735 369.098,100.186 C369.281,100.369 369.464,100.735 369.464,101.101 C369.281,103.663 369.281,106.408 369.281,109.153 Z M371.111,125.989 C371.111,125.806 370.928,125.806 370.928,125.806 L371.111,125.623 L371.294,125.806 L371.111,125.989 Z M371.294,124.891 L371.111,124.891 L371.111,124.708 L371.294,124.891 Z" id="Combined-Shape"></path>
            <path d="M374.039,132.028 C372.575,132.211 375.137,130.564 373.49,130.747 L374.222,130.747 C374.588,131.113 374.405,131.662 374.039,132.028 L374.039,132.028 Z" id="Path"></path>
            <path d="M361.778,140.812 L361.778,140.446 C362.144,140.812 361.961,140.812 361.778,140.812 L361.778,140.812 Z" id="Path"></path>
            <path d="M380.627,139.348 C380.993,138.433 381.176,137.518 380.81,136.237 C380.627,136.969 380.81,137.335 380.444,137.701 C379.895,138.799 379.895,139.714 380.078,140.812 C380.81,140.629 380.444,139.897 380.627,139.348 L380.627,139.348 Z" id="Path"></path>
            <path d="M378.797,135.139 C378.797,134.956 378.98,134.956 378.98,134.956 C378.797,134.407 378.614,133.858 378.248,133.126 C377.882,134.041 378.065,134.773 378.797,135.139 L378.797,135.139 Z" id="Path"></path>
            <path d="M359.948,156.001 C360.131,156.001 360.314,156.001 360.68,156.184 C360.314,155.818 360.314,155.818 360.131,155.818 L359.948,155.818 L359.948,156.001 Z" id="Path"></path>
            <path d="M384.653,82.435 C385.019,82.435 385.202,82.069 384.836,81.703 C384.836,82.069 384.653,82.252 384.653,82.435 L384.653,82.435 Z" id="Path"></path>
            <path d="M384.47,83.716 C384.653,83.167 384.653,82.984 384.653,82.618 C384.104,82.801 384.104,83.167 384.47,83.716 L384.47,83.716 Z" id="Path"></path>
            <path d="M384.653,82.618 C384.653,82.618 384.653,82.618 384.653,82.435 L384.653,82.618 L384.653,82.618 Z" id="Path"></path>
            <path d="M380.444,132.028 C380.261,132.577 380.261,132.76 380.261,132.76 L380.261,132.943 C380.261,132.76 380.444,132.577 380.444,132.028 L380.444,132.028 Z" id="Path"></path>
            <path d="M377.516,130.564 C377.333,130.564 377.15,130.381 377.15,130.381 C377.15,130.564 377.15,130.747 376.967,131.479 C377.333,130.93 377.333,130.747 377.516,130.564 L377.516,130.564 Z" id="Path"></path>
            <polygon id="Path" points="378.248 130.015 378.431 129.832 378.248 129.832"></polygon>
            <polygon id="Path" points="378.431 128.917 378.248 128.734 378.248 128.917"></polygon>
            <polygon id="Path" points="378.248 127.27 378.248 127.453 378.431 127.27"></polygon>
            <polygon id="Path" points="381.908 146.668 381.725 146.851 381.908 146.851"></polygon>
            <polygon id="Path" points="358.301 153.805 358.301 153.988 358.484 153.805"></polygon>
            <path d="M360.314,149.962 C360.314,149.962 360.497,149.962 360.314,149.779 L360.314,149.962 Z" id="Path"></path>
            <path d="M360.314,149.962 L360.131,149.962 L360.131,150.145 C360.131,150.145 360.131,149.962 360.314,149.962 L360.314,149.962 Z" id="Path"></path>
            <path d="M346.589,108.055 C346.589,107.872 346.772,107.872 346.772,107.689 L346.406,107.689 C346.406,107.872 346.589,107.872 346.589,108.055 L346.589,108.055 Z" id="Path"></path>
            <path d="M346.772,107.689 L346.955,107.689 C346.955,107.689 346.955,107.689 346.772,107.689 L346.772,107.689 Z" id="Path"></path>
            <path d="M399.293,69.442 C398.561,70.54 397.829,71.821 396.731,72.736 C396.731,73.834 395.45,76.213 394.901,76.579 C394.718,76.579 394.718,76.579 394.352,76.396 C393.986,76.945 393.62,77.311 393.437,77.494 C393.071,78.958 393.62,80.239 392.705,81.337 C392.522,81.337 392.339,81.337 392.156,81.154 C391.973,81.52 391.607,81.703 391.424,81.886 L390.692,81.886 C390.509,82.069 390.509,82.069 390.509,82.252 C390.509,84.265 390.875,86.095 389.96,88.108 C389.777,88.474 389.96,89.023 389.96,89.389 C390.326,90.487 389.96,91.768 389.777,92.683 C390.509,95.428 390.509,98.173 390.692,100.735 C390.143,101.833 390.143,101.833 390.326,102.931 C390.692,103.114 390.875,103.297 391.058,103.48 C391.424,104.395 391.79,105.493 391.79,106.408 C391.79,107.323 392.156,108.055 392.339,108.97 C392.522,109.885 392.888,110.8 393.437,111.532 C393.986,112.264 393.986,113.179 393.803,114.094 L394.535,114.094 C394.535,114.643 395.084,114.46 395.45,114.826 C395.633,115.375 395.999,115.924 396.365,116.473 C396.914,117.022 397.463,117.388 398.012,117.937 C398.378,118.486 399.11,118.669 399.293,119.401 C399.11,119.584 399.11,119.767 398.927,119.767 C399.11,120.316 399.659,120.499 399.842,121.048 C400.208,121.963 401.123,122.512 402.038,122.878 C403.685,123.427 405.515,124.159 407.162,124.708 L407.894,124.708 C410.639,124.708 413.201,124.708 415.946,123.976 C416.129,124.159 416.312,124.159 416.495,124.159 C417.044,123.976 417.593,123.793 418.142,123.793 C421.436,123.244 423.998,121.414 426.743,119.584 C427.292,119.218 428.024,118.669 428.756,118.12 C429.122,117.937 429.488,117.388 429.854,117.022 C430.952,115.558 432.05,114.277 433.331,112.996 C433.88,112.447 434.246,111.898 434.612,111.349 C436.076,108.97 437.723,106.774 438.638,104.029 C438.272,102.748 438.455,101.284 438.821,99.82 C439.37,97.99 439.919,96.16 439.553,94.33 C439.553,94.147 439.736,93.781 439.736,93.598 C439.919,92.866 439.919,92.134 440.102,91.402 C440.285,90.67 440.651,89.938 440.468,89.023 C440.834,87.742 440.468,86.461 440.651,85.363 C440.834,84.082 440.834,82.801 440.834,81.52 C440.651,79.873 441.017,78.226 441.2,76.579 C441.383,75.664 441.383,74.749 441.017,73.834 C440.834,73.285 440.651,73.285 441.2,72.736 L441.383,72.736 C443.945,72.736 446.873,72.919 449.252,72.004 C450.35,71.638 449.618,71.638 450.35,71.638 C452.546,71.455 453.827,69.625 456.023,68.527 C456.206,68.161 456.755,66.514 457.121,66.148 C456.938,65.416 457.121,64.684 456.572,64.135 C455.84,63.952 455.474,64.684 454.925,64.501 C454.376,64.867 453.827,65.233 453.461,65.416 C450.899,65.782 449.069,66.697 446.69,67.429 C444.86,67.978 442.298,67.612 440.285,67.429 C439.187,66.514 438.638,65.233 438.089,63.952 C437.906,63.403 437.723,62.671 437.174,62.122 C436.076,61.39 435.527,60.109 435.344,59.011 C433.88,58.462 433.331,57.364 432.599,56.632 C431.501,55.9 430.22,55.534 429.122,55.168 C426.011,54.985 423.449,56.083 420.887,56.815 C420.338,58.279 419.972,59.56 419.606,60.841 C419.24,62.488 419.789,63.952 420.155,65.233 C420.521,66.331 420.521,67.429 421.253,68.161 C422.534,69.259 422.717,70.723 424.73,71.089 C425.279,71.272 426.377,71.638 426.743,71.821 C428.939,72.37 431.135,72.187 433.514,72.37 C433.697,72.37 433.88,72.553 434.063,72.553 C434.063,74.749 434.063,76.945 433.88,79.141 C433.331,80.422 432.965,81.886 432.416,83.35 C431.501,86.095 431.135,89.023 430.037,91.768 C429.854,93.598 428.939,95.062 428.207,96.709 C427.475,98.539 426.743,100.369 426.011,102.199 C424.364,106.591 421.619,110.068 417.227,112.081 C417.044,112.264 416.678,112.264 416.495,112.264 C413.384,110.434 412.103,107.323 410.639,104.578 C410.456,103.846 410.456,103.114 410.09,102.382 C409.358,100.369 408.992,98.173 408.992,95.977 C409.358,95.062 409.724,94.147 409.907,93.232 C409.907,92.866 409.724,92.5 409.724,92.134 C409.907,90.853 410.273,89.572 411.005,88.474 C411.005,85.729 411.188,85.363 412.103,82.801 C412.469,82.069 412.835,81.337 413.018,80.422 C413.018,79.324 413.567,78.043 413.933,76.945 C414.116,76.579 413.933,76.213 414.116,75.847 C414.116,75.298 414.482,74.932 414.665,74.383 C414.848,74.017 414.848,73.651 414.848,73.468 C414.848,72.919 414.848,72.553 414.665,72.37 C415.031,72.187 415.397,71.821 415.58,71.638 C415.397,70.723 415.397,69.991 415.214,69.442 C415.031,69.259 414.665,69.076 414.482,68.893 C414.299,68.161 414.848,68.161 415.031,67.795 L415.031,67.429 C415.397,66.331 415.763,65.416 416.129,64.501 C415.946,63.952 415.946,63.769 415.946,63.22 C415.031,62.488 414.299,61.756 413.201,61.207 C412.103,60.841 411.005,60.292 409.907,59.926 C408.809,59.56 407.894,59.011 406.613,59.011 C405.515,59.743 404.417,60.658 403.502,61.39 C403.136,61.756 401.855,64.684 402.038,65.233 C400.94,66.697 400.025,67.978 399.293,69.442 Z M431.684,67.795 C430.22,67.612 428.939,67.246 427.658,67.063 C426.743,65.965 426.56,64.684 425.462,64.135 C425.462,63.22 425.279,62.488 425.279,61.756 C425.645,60.658 426.011,59.743 426.377,59.011 C427.292,58.462 428.207,58.462 429.305,58.645 C430.952,59.377 431.867,61.024 432.782,62.671 C433.697,64.135 433.88,65.782 434.612,67.612 C433.697,67.978 432.599,67.978 431.684,67.795 Z" id="Combined-Shape"></path>
            <path d="M533.615,81.52 C533.249,78.592 535.628,71.638 535.811,68.71 C535.811,68.71 535.994,70.174 535.811,68.71 C535.628,67.246 536.36,64.501 535.628,64.135 C534.896,63.769 533.981,63.22 533.249,63.037 C532.517,62.854 531.236,65.599 531.236,65.599 C530.87,67.063 530.87,68.71 530.687,70.357 C530.504,72.187 529.772,74.017 529.955,76.03 C529.955,76.396 529.772,76.579 529.772,76.945 C529.04,79.873 528.125,82.618 527.942,85.546 C527.942,86.095 527.759,86.461 527.576,86.827 C527.21,88.108 526.478,89.389 526.112,90.853 C525.563,93.598 524.465,96.16 523.55,98.905 C522.635,101.833 521.354,104.761 519.707,107.323 C518.609,108.787 517.511,110.251 516.779,111.715 C515.864,113.179 514.583,114.643 513.668,115.924 C512.387,117.571 510.923,118.852 509.093,119.95 C508.727,119.401 508.361,119.035 508.361,118.669 C508.178,117.388 507.446,115.924 507.629,114.46 C507.812,114.094 507.446,113.545 507.446,112.996 C507.263,112.63 507.08,112.264 507.263,111.898 C507.446,110.251 506.714,108.787 507.263,107.14 L507.263,94.513 C507.263,92.866 507.263,91.219 506.714,89.755 C506.897,89.206 507.08,88.657 507.08,88.108 C507.263,87.376 507.08,86.644 507.08,86.095 L507.08,85.363 C506.897,84.448 507.08,83.35 507.263,82.435 C507.263,81.337 506.897,80.239 506.714,79.141 L506.714,78.226 C506.714,76.762 506.897,75.481 506.165,74.2 L506.165,73.468 C506.348,71.272 506.348,69.076 505.616,66.88 C505.799,65.782 505.25,64.684 504.884,63.586 C504.701,62.854 504.335,62.305 504.152,61.756 C504.152,60.292 503.237,59.194 502.139,58.096 C501.59,58.096 500.858,57.73 500.126,57.73 C498.113,57.547 496.1,57.547 494.27,57.547 C492.074,58.645 490.61,60.109 490.244,62.305 C490.61,63.22 490.61,64.135 490.61,65.05 C490.61,66.148 490.61,67.246 490.427,68.344 C490.427,69.442 490.061,70.54 490.061,71.821 C490.061,74.2 489.329,76.579 489.512,79.141 C489.512,79.141 489.512,79.324 489.329,79.507 C488.963,80.971 488.597,82.435 488.231,83.899 C487.316,87.376 486.218,90.853 485.12,94.147 C484.571,96.16 483.839,97.99 482.924,99.82 C482.192,101.101 481.277,102.199 480.545,103.297 C479.081,104.029 477.983,105.859 476.153,105.493 C475.604,104.578 475.787,103.846 476.153,103.114 C475.97,102.199 475.787,101.284 475.421,100.552 C475.787,99.271 476.153,98.173 475.604,96.892 C475.421,96.343 475.787,95.611 475.787,95.062 L475.787,93.415 C475.97,92.134 476.153,91.036 476.336,89.755 L476.336,84.448 C476.519,82.435 476.153,80.422 476.885,78.592 C476.702,77.86 476.519,77.494 476.336,76.945 C476.336,75.481 476.153,74.017 475.97,72.553 C475.604,71.272 475.238,70.174 474.506,69.076 C473.774,67.795 472.859,66.697 471.578,65.782 C470.114,64.684 468.833,63.403 467.552,62.122 C466.271,60.841 464.624,59.743 463.343,58.462 C462.245,57.364 460.781,56.815 459.134,56.632 C458.036,56.449 456.755,56.632 455.657,56.266 C455.108,56.083 454.376,56.083 453.827,56.266 C453.278,56.266 452.546,56.449 451.814,56.632 C451.448,56.815 451.082,56.998 450.533,57.364 C450.899,57.913 451.265,58.462 451.448,59.011 C451.265,60.475 451.082,61.756 451.082,63.037 C450.899,63.403 451.082,63.586 450.899,63.769 C450.533,64.867 450.533,66.148 450.533,67.246 C450.533,69.808 449.984,72.187 449.984,74.566 C449.984,74.932 449.801,75.298 449.618,75.664 C449.984,76.213 450.167,76.762 449.801,77.494 C449.435,78.226 449.435,79.141 449.435,79.873 L449.435,84.997 C449.435,86.461 449.435,87.925 449.618,89.206 C449.984,90.67 449.984,91.951 449.984,93.232 C449.984,95.062 450.533,96.709 450.716,98.539 C450.716,99.637 451.082,100.735 451.448,101.833 C452.546,106.408 455.108,110.068 458.219,113.179 C459.134,114.094 460.049,114.826 461.147,115.192 C463.709,116.473 466.088,117.754 469.016,117.937 C470.297,118.486 471.578,118.486 472.859,118.12 C474.14,117.937 475.238,117.754 475.97,117.754 C478.532,116.839 480.911,116.107 483.107,115.375 C484.571,115.009 485.669,114.277 486.767,113.362 C487.133,112.996 487.499,112.447 488.048,112.081 C488.231,111.898 488.414,111.898 488.78,111.715 C489.146,112.447 489.329,113.362 489.512,114.094 C489.512,115.009 489.878,115.924 490.061,116.656 C490.61,118.12 490.976,119.584 491.708,121.048 C492.44,122.329 492.257,123.793 492.989,125.44 C493.904,126.355 495.185,127.453 496.466,128.368 C498.113,128.734 499.943,129.1 501.59,129.649 C502.871,130.015 504.152,130.015 505.616,129.832 C506.714,129.649 507.995,129.283 509.276,128.917 C509.459,128.917 509.825,128.917 510.191,128.734 C511.472,127.636 513.119,127.087 514.217,125.806 C514.4,125.623 514.766,125.257 514.949,125.074 C516.596,124.159 517.877,122.695 518.792,121.048 C519.341,119.95 520.256,118.852 521.171,117.937 C521.171,117.754 521.171,117.571 521.354,117.388 C521.354,116.839 521.354,116.29 521.537,115.924 C522.086,114.643 522.452,113.545 522.818,112.447 C523.184,111.349 523.916,110.251 524.282,109.153 C525.746,105.859 527.21,102.565 528.308,99.088 C528.491,97.99 528.674,96.892 529.223,95.794 C530.138,93.964 530.321,91.951 530.87,90.121 C531.785,87.193 532.517,84.448 533.615,81.52 L533.615,81.52 Z" id="Path"></path>
            <path d="M567.47,30.28 C566.738,29.914 566.189,29.548 565.64,29.182 C564.359,28.45 563.078,28.084 561.98,27.169 C560.333,26.071 558.686,25.522 556.673,25.339 C556.307,25.156 555.758,24.973 555.209,24.973 C553.196,24.241 550.817,24.058 549.17,22.594 C548.255,22.594 547.523,22.411 546.608,22.228 C546.425,22.411 546.059,22.411 545.876,22.594 C544.595,22.411 543.497,22.228 542.033,22.045 C541.301,21.496 540.203,20.581 538.739,21.496 C538.556,22.96 540.386,23.143 540.752,24.79 C540.752,25.522 541.118,26.803 540.752,28.084 C540.386,29.914 540.386,31.744 540.569,33.757 C540.752,36.685 540.203,39.613 540.386,42.541 L540.386,43.09 C539.837,44.005 540.02,45.103 540.02,46.201 C540.02,47.665 540.386,49.312 539.837,50.776 C539.654,51.142 539.837,51.691 539.837,52.057 C540.203,56.632 540.386,61.207 540.569,65.599 C540.752,69.259 541.118,72.736 541.301,76.396 C541.667,82.984 541.85,89.389 542.216,95.977 C542.399,97.624 542.582,99.271 543.131,100.918 C543.863,103.663 544.961,106.225 546.059,108.97 C548.987,111.532 552.464,111.898 556.307,110.983 C556.673,111.166 557.405,111.166 557.954,111.349 C558.32,110.983 558.686,110.617 558.869,110.251 C559.418,109.153 559.967,107.872 560.516,106.774 C560.15,105.859 559.784,105.127 559.418,104.578 C559.784,103.663 559.967,102.931 560.15,102.382 C560.333,99.271 559.601,96.343 559.235,93.598 C559.967,91.219 561.065,89.023 561.248,86.827 C561.065,86.461 560.882,86.095 560.699,85.729 C561.065,84.814 561.248,84.082 561.431,83.167 C561.614,82.435 561.614,81.52 561.797,80.422 C562.163,79.873 562.529,79.324 562.712,78.958 L562.712,77.494 C564.542,74.017 566.555,70.723 566.555,66.697 C566.555,66.514 566.738,66.331 566.921,66.148 C567.836,64.318 567.47,62.305 568.019,60.475 C568.385,59.194 568.385,57.73 568.202,56.449 C568.202,54.985 568.385,53.704 568.202,52.423 C568.019,49.312 567.836,46.201 567.653,43.273 C567.653,41.626 567.287,40.162 568.019,38.515 C568.202,38.149 568.202,37.6 568.019,37.051 C568.019,34.855 567.836,32.659 567.47,30.28 L567.47,30.28 Z" id="Path"></path>
            <path d="M556.307,117.388 C555.392,117.205 554.66,117.022 553.928,116.839 C553.562,116.839 553.013,117.022 552.647,117.205 C551.549,117.571 550.268,116.656 548.987,117.205 C548.438,117.388 547.706,117.022 547.157,116.839 C545.51,116.29 543.863,116.107 542.033,115.924 C540.386,117.205 540.569,119.035 540.02,120.499 C540.02,121.414 540.02,122.329 540.203,123.244 C540.203,123.61 540.386,123.976 540.569,124.525 C541.301,127.087 542.765,129.466 544.412,131.479 C547.157,134.773 550.634,136.237 554.843,135.688 C556.307,136.237 557.405,135.139 558.503,135.139 C559.601,133.858 560.333,132.76 561.248,131.479 C561.431,130.564 561.614,129.832 561.797,129.649 C561.248,127.453 561.065,125.806 560.699,124.159 C559.235,121.963 557.039,120.133 556.307,117.388 L556.307,117.388 Z" id="Path"></path>
        </g>
    </g>
</svg>